<mxfile host="65bd71144e">
    <diagram id="Z-xCxFi8J2B4nkM2y7AL" name="Page-1">
        <mxGraphModel dx="792" dy="356" grid="0" gridSize="10" guides="1" tooltips="1" connect="1" arrows="1" fold="1" page="1" pageScale="1" pageWidth="2339" pageHeight="3300" math="0" shadow="0">
            <root>
                <mxCell id="0"/>
                <mxCell id="1" parent="0"/>
                <mxCell id="57" value="" style="rounded=0;whiteSpace=wrap;html=1;dashed=1;strokeWidth=2;strokeColor=#66FFFF;" vertex="1" parent="1">
                    <mxGeometry x="504" y="329" width="471" height="81" as="geometry"/>
                </mxCell>
                <mxCell id="46" value="" style="rounded=0;whiteSpace=wrap;html=1;dashed=1;strokeColor=#FFB366;strokeWidth=2;" parent="1" vertex="1">
                    <mxGeometry x="504" y="138" width="471" height="189" as="geometry"/>
                </mxCell>
                <mxCell id="2" value="dbt" style="shape=image;verticalLabelPosition=bottom;labelBackgroundColor=#ffffff;verticalAlign=top;imageAspect=0;image=data:image/png,iVBORw0KGgoAAAANSUhEUgAAAIEAAAB+CAIAAACMBuXLAAAAAXNSR0IArs4c6QAAAARnQU1BAACxjwv8YQUAAAAJcEhZcwAADsMAAA7DAcdvqGQAAAASdEVYdFNvZnR3YXJlAEdyZWVuc2hvdF5VCAUAADXiSURBVHhe5X0JgGRVeW7nmedL8qJJ9JnESNxAiAuIDDAzzNL7Vlvvy2w9013Lrb1ngIAomBAXjITnFg1K9JmoiaiQqE/iTozRRCXigrLLMuww9FZ193P/fN+5Nc1QM9Wmm2pgzJl/qm/dqrrnnH///7O1SKPi458E4gaB77kiritK7ID3cTcQ5QSuJwo3xFHiic1PPHwgsqTUkuuIF1TxM/2s47ko13c9RwWmqjqCHil2XvGv5ykgwxXfRcfx3ge28JHSWDF9WfL8wMVtPASfNy6NaSAm/gOtAeoLq/AXNZo1FXATf9gE3/JcfBXVBvgJqvd8XFn4q39/3BewlxIHF+ghukSsOqAC8QAs+BrHYEZfLJEKvuQF4R2iBi+aWo48ykc1KA1pwFrB2ypgvXiexzoW1FxFfE9cpaoBJCFEska/rpUv/Msf4NWWYJF3j+9SEcdhd8ha7C+5XEE/UAjI9EQBEG8B1bi0xJkXZQMLNX6t+CghdhqUhjQAqV0SYQk/VwJUuuLabIKHV+W7KgArKBC+CtKDYGyJVkq6obb+CArpuC/gPAEfQhVptiQyXQoB+8k3VWBAPDdA3yEWgQ2UUQCAAHcJGAiE5CDRGpfGusgCx+vfKjD+Y3gm5e6eh+XL11pXXBiUY5LtlIv2Bp+4Sm67Hd9EWy3lgFBoqa7VZNOPf3NAlUycE7nso6CPNrQTkfPjn8pHr5QL90qu0z1/wP3gW+QbX5D7oHbmIDgeMYBfmESCtpuNygr2AL8j41dhiiENP75Z3nKRNdHi7tou+URg9Pkz26XQ5u89Y27idHnjuH/LDaEQiA3WqDiQR1yvVPVxUnzyP7QqVYJfpbijmz/5nlw4trhvozlzhhhbJNMpmX7Z1+PvaZPEr8pl7wzufKgKdYVv015DaWu2bFAa0oAuEOwtrh64XS7OqMmXVwrtfgmVxSQVlWQ8SMb99KDKDahcp8pslsTzrHf+sRy8hwID3QjKgX7kouO7VMBTYGTg3faJ07vvWXp7XoZ/WzLnSK5LjAE/BYirNLARCYwYYbbTmvw/cvn5MveoBeT7S5CLFUpDGsCYwBGT6z/jJJ4ru+ILRkTKA5KMqGKbX+r2sj2Sj0g+KrmoFONBqk/l4mjWY0O/43zknVK1rAA+EkSXwnB8FygVcDQuHp93P/Sn1bGXSOpUsxDzMn1STkghqpEQUUYPSZJvkz1dfq7XKXfKrn5rxwnyo28egtVemQYUEtawEOC1eggqCLwPVibyPnelDL5AklsXijtUvhUVeGmYgf5jQlDslPywFCMytdUeeY588WMBTLe2DWyAdtFYD7xqbbO0soJHDYlRIJXnQvCg/VayXU0pFn0Y7VDqJoWXsKpoHC7gwLi4AsMr7e/AFwrQyAW55iNOX4vs3SrpATGiDnB9FAYOw6Dku6XQYxUnJNklg78hX/8s1YmjoNXp3zhw3oFzGBj4SywtsJyItnC1gP/EAL40X8Hfz310ceylKhMNMkNSjFZzCUl3sAX1VS5DtJodldJ2P5Oo5BOy+3Rz90vluzdQGanKQsDwhgxFFce+sS6wF7wsIkUHHCDX0yA2qBoV6TCT9bkV3QbeE99UFmJLZ4nIwls44p58/7uLo8+TqTP94qiL7pf6qoUh2dd1VPcPQ35Icu1BsVfSeNvpGhP2cIt849rHULGaQ60wEKjPgpIDLcjwWhehIbpOcCjbQnR89YsSe5EA79l+ZSQquVESwIDQDT6pviPAyfVKttubgTQMyGy3l+n2Ur0yfrq8ZVzuvAthNuIJ7U6oMLys4UKzIf6CDLhYUWSbU9B/1IK6ajIXVs+euwgDcBc3+AmcwFt/IudFZefrxei1jT7JtUlxFIbQz22TUkN9QDC67GyPW4Zyjkt+q50ekYFfl5u+ZwHhjBSWdFbBFN8Jea6lEmgNAN4EBI+ZQMaDP60mfg0qCEZGK/3+oKAvoPsyjWUwE5WZVkiDU+gN8oMCRsglrGS/7N3ij5zgXfXWYA7hu/ICeM2szpEFP4Cfx2ZQRyEaCWyHztz6FstGgAlGo/JhZBWSxLMYizLohaaA7ln033uJDJ7iptptIyaAYr/Mjvu5PjHiUugQsFdd95ehGLGKcXumVwr9h9LACSSjT2Y65/a+WJYeYvcCaBkFMQCxEXOjtDhoA6mBmAqNWaKsXJCW6cRiaacUOpdgaUnPdhe6Pg+0NqSBm0z4mXiQmZRsu8BE5/tNYxw/lELEMQZleou5+zVy/T+iq0CBxjSUE1w+FxE/vWcAuY8frG9hMIV6UBkZgPkVgDKhg9AqqsrPfzgYP0VSm9wDULxxSW+vFnd42V50SvJdfmYM3O3COTwKAyGoQpfKDAXZTgvfDKXBiJqFcZmKyhVv0U6qgqVkT+n0UwBbApAF9pGEYZ5NbrpJxl+xmG0Pst0mtEoaFwMqv5OUT/dIkdrpmOBk4+pAAr+SXKuXnZQc2KdbZjsl1S3FIXpNuLP71cH+NvPGf4cYhAxIw4zwW/OjdmM1Y6xrCXwQn8YJ6KZmpt8DgUAw5N/wzyq7TaY2uIW4k4xo89su+W3KgMMTVcYOxENesSPIxqv5+u4fAX1S7JL0OHgR1tTJ9tsIZvOdqtjqwsH5+Z1wSRg9owFUScwjtVAP+AHoHyAGgXBcehHxlR9h3IG6czHQQDIRyQL6FTzR+ipr4Gc30RDlhiA3TjHhFrsC8A74Bc3NdZqZLil2uIVOP7VF7T5NLvsTefQeoJ1sAFI40A4gBaJL8OY6F4dmj/IGNHj6Avzw4D32xfv9PWcF6U5B99MDbnYI7o1C5JWNWJlev7x9qRiTTK9XgG6JB+Vz6rq/DHYBJrMrKHZLJmHlY5JskxLQiBAqCnZUf/E2aBybgS+EkdoI9UMXoXimq/Oj9z7ijvyqGKBbB37jp/toA7JtUEGqFPGL/eb0CvZgGFoPsQJJOIMWRMSASA76cNRKA1KIw2lT6URQHndhLabeYA+/3L/m3VI1WS9FdIlSuP4kQCXgQjAc+I4OGVT/x99eTfyeTJ0N78PLD8D8KmjwXIT8ZPSZkP7sGATCxc3MoBS6ZSYm6dH67i9DsqcKz6UQUznIUK8UB7xMAlbESrZSE0R+Re6bAxNQ6fkeGoMCv4gpULSLdvJfrpGJVlUG83bXP7rpgL7t6aikN8u3voG60QayJJwmMqcSkwKL+4si8xptqy14Gmwbs700MzqpTgKb0Lj4yMQzIXtf+wdzxybZtVlBZOua12zwyu2SjsvObfLVf9AaV+sA3a8WKAAoR5gmG8J5xVuDFMQn4hS31z2i+ZDs9me7rOKYjJ8oF47LrQeV76IlLgI4Giu2klrbX+AbBiyrKyCh71LfQ9AD1zJ98P7h/C56fsttcv6I7Hyt7B+GfAfwHeqa12zwYCSScUl2yHv/1HbBGdC9FEqUljAghF2mx1acUHC8knEnBwGsf0pzwStGvEwP7IRbhgPXbkefKx9+mzX/CPADjiWm2D5FBRUs8u1qCx7kkt0BpCV1ndYAS0vBh9602P/bYmx2SwMKdq4QsXP1zWs6+EZvAB833e3uHxXXcjzwRK202JBWhGjoJSyC0eMXz5EkXJqG/k/TAKYFRiI/5mdjfg4Kt0MQ+8R/S677FBkEsQJwKIvMHZAYmmFWU3zoG8tfUpAjdo0kgZ677hPS/3yYN1gpqzBsZocRxMBoycwKuYcmgQFLGaWJzvaABuyPT3uEAhrQVYDcWlCal2QEBh0EYNB71FOaCnMQtZJmDfjdhTa7MCD5cxCRmnu2yHhb8MMfUwJYyB46nlhdoegwQeIw+DA998af+btO9VKbJdODIMsuRxhFGr1+NiHFvsX1768YcPR7VLlLDkwGUJDQjDorjaLzphyepq70rr4KYS08XL9IT3RdQZU7ZBrxS5skB+kRwnkAV4ISBzqCVJtMniL/9yJ5mARYtg+rKhzK8nx6u4896r7vIhn/3SpCnEyPDyctFZV0An6nm+ySDLydbpXrrGte8wHBVqa7ktwo/+/9AX0P2GVF3UgawG7pQXnyy90/Xxh/jeS2kzvqHtF8GPXPTUihN5gdcuEIFuOVLNPxsi/ilbqdfEQybWrgBXLdxxlIM6mxuhKApxYfkX+6ViZeMJ/ukuw4Yka/MGgZ3VXYgHy3m4r6qLq43SwOSG74qOY1G2aHJNsxv+M0uetuCgGaqMTRhq9FM4zt+zpZDeG4fK/MaIGte0TTAQwI18gYkgKc8XEmxVK4uVWmY1KYMA0wTrsN1bn3rCXg6EfXE6+rKeSzB26SgVcIhIwwtlRG3NPql9uY9UrFpZCQUoxiAUVkrHt/bdSy5xy5ZKDmIwQ6cxnKAb0FeB8crtSG6/7bgsRzvGLC2a/TszPdMFlOqpOBVWabpNddRwUMxaOBEQEgRGLCw4DjuH3hPZfIY/NU8xAJplsQUsNkMOMCZcXhbjTeZeYNfmwVfx0EFrLkPe4XhyTdVc0jchwI8j0ccoEmzPQCAqMvBFwf2YanBCmgqDXIxitpPDOmklEwtH0AyIz5oy+Un30HLQS7E/l0OTQNGBMFNvOFeIfoGS7qB/9M0mdIbpLxejrmGe0BIkawZG5Epdc/biDUyFCjQbaTZNjXZY69Qv3jxyo2TJfJNmu8w5HlkDv7VHECnf5kitwNlPY6oGUrj3slmMSomun0sj01dIMSBYSiHAIj4PpJDXgKAAcvE2cXigkb0UCqxy+MB8a4JDdU3vlmhJ9sNHGN/zpBR12ElnpsMtVTYNMAPvjA3PgLvVKvFLYwms1EqDFT7WIMyuy6y4Hk+p64Jg2gKCAK3W6hXcq7nJ2n+9k2ufFGC81GDEaJIDHwTg94Ib72dBoAZFggd6GL+M59D7j7TlOww8U2cH2I91AUlq+fqPQpQhnPH1SpbsQc5N10u+Q3q9nex4ZfIPc8YMNOBaG3rdum2wcaoA86LyCKrjQYybTU1e+VfW3BzJiURpQx4GS3cJCSXNNwDKdpABqEAL10WFcQcfl+P7ddUj1Wpr868iq5NOs8tEgSaCtGY8a0OHQSJYGWjtmgMBaFqnXl5rtk8uXgTS/VvYzxJx5+ZAOeIsD/gUdT7vKNVgdvC5MqNSxT7eqT70azPHsBTbLD5LX2mtFA+KYgAIXAVRXeoF5yxfa8sV9ZLPZLqcM50CtJPH3Ey0e9dEd9lU2HZRo8QQbaBiufYKx/YJjj5sUemdnoxV8if3c5KeBDGykTvQL+Q0HXWWlegRqK0yEQigZX/53s2iDnjoDxfWbiqJHw/Jo0HNmGpwB+ptPJxzgEmRp093cgCjGLfe5oCzSk4uBlhSyvKmR6sAun5EoLnT4ILodWqhAUeEmQZcuvynWflN1neqlet9gl+WFVHHAK8C6g6eprXS/I9QUEWmlmFIxWuje7oMfjUu6AR2+V+oK9m7zdJwX//u8WR+JpF2gLPKojTv1ER6thooKDI7jpzU5Smg+bZUqA1kXNFIVklO5MbhQsK4WoleuWyTPly5+0II1a97gMHOlcoLVhoNxCOxa20kfIQEGegzjAJRersuuVzGNnYkswzoUIXGmBWNVV2XzQBg0XR9IAztJMxCztrM7GfAac/U52KwILJvRzbbLzFfYbd8nBB8lNPqcFwhTT1wA9QBmOmpnaSJhy822HxjdCHUkJoUmsRoPQMj+pDU8B0iNWbrMUBmFEg2mEWdusPa/WI7j0eCidoIJngmE4jK+FFvEBI2R+4HAQB68+uUZ/+Qc3q4nXc+ZMBg1t1egYq6+y6QAUkwzLNOCwKGjgZzugGHENvAsczdwAY65sDPGdmYnJ1EY38vvyibcq61FmAKB9fLtKgljwXWkZ0O1w6uf5Y0B6zSpoCWimQc72ewz3ElLcLNMJ+hGjZwT/8SPyvwOdv0RDFU7acMOZqWxswzleYCB+6eIdjCzyMAnxIJ/w8+sf068SOKRVjHMIN9Uh06+f2/l6+cbVFrkMfYAogNdo8Nh5Lf3OTXf4e17sFfqDdLc726PScc/Qg1xHPXmNUOzHAxlIFdtkulv+dE+F9nel5HtDGmhaLcrP7wiGX+6B7wpDEAUpr79ftErw4IcYY2KM+rND1QJCoS57T3tQHld33+bpkWpYCXqqtBTaQuBesVvSUY7Rws6nh5UBH6Z5cTLzQm1SijrwYoZeKg/Mi7dAZDYuDWkQqiTYN/eqS+BaeeV2C9FHqKmfTeBw8hksITR73EaMWh7jFJv8Jnfy9+UDlwSmjkVhIiAIgVQdjuEG//8q2b1JjARniDJrqwe9j3ryGsEYUKWIlWuXmV7/Y3Db9DSuFdNdjWng0UyL56vFeWfnGQKnCADeqavymQYn1+Vn2uEmBfv7mIpIQcvHKwbMxqDae7q9+0T56jXa85sDJUJ1LA/eZk+erJLbgCz3QK+bxk+aFyenB6TYAaJau0+XSoA4smafGpfG9gBiy8hZT7v750/JzjNhDPzU0+ib/hehMMh5V2nYbXg78Me71UyP5CZAj2AGTsSITJxsnhu1b73ZgVFQLg0EnJSZrWZykx5C2A5nN2CS56gnrw3SUSqMHafJt7+I+rhW6RdNFlnBJttsLkXXZUBXiPozW6W0o77KZxxAAM7Fj8m0zrwWY1ahzz0Ax6mXCXCjmwo6fY4MvsS98u32HMMGMKb55+dLTudCMpy/o+eGNgf8QoIz4WYTwJyPkEtxFUIAndi4NKQB00mejhfEhTq1f/gdhGz20zGusErI99nZTq/UqydkDnNCyv5h2ljgItujydAbJLtNKP30Rhk+yfn8x8R/LPjsR2Vvl1dklEBnt3nxgWn0+hOvCX52s8vsOQqXgDAL17g0pAGTwnSqGOtwjoIsyDveJFNn1FX5zEOmlk0iR4MYRrufhGuIsKtfSsN057JxrhXIQEtA6Q/IzrPmz5uQd18mqa5qEYSJW0aXUzrqsWuGPafKZZcC8Yy6uL6Y7sAa/SKE+NBA+L1ejGPSsBy6e37sRXqxQ6+dhXvXuZTv8eAFJwf1RLyjWvPLDUyqj3jZbUzMZaJeMRJkO2W635l8hTxyL5wxT+CSukAg8Kij4IZlBXvgcm6+wyRfLcKESvr7K2RPp1OE8xelmBcQQg+45QjF+cj2/XcASB7CYDgpyb6gHDPTPW66S/a1yTUfIONC92inlCLgWbZe4dGoNKQBvSJ/QVQ4G91kwInnzjv21CaZnXDT3YxxsgjZtku534JhrGviLztwHjzIMLMpKCX83IQkI+bsgF3qkor2gD1PAocpORJjQf9pWBrLAZPAtXklnJTtcb0QZer6L8vOk/1S3EG8NtMtxqBC8Fxsagr+uIB8hxQiKjcAZyzIx5jIGjtRvv0lKgz8VxbUCPQ5LolIkqVhaUgDEBIYd0ELTsqGKNFN4uINZak375DpbXZxBMJYW2+TbzwH9pcV0gm/2D+X47x2rs+Z2iIXT/n+IpU/h8SYSAfWwMHE/4oRQmNdxE1C8DDIFEVKp8Dwn8lIufU+J/a/rGybFBNBJkGv3HjW5TDWH+CPwLUdsrM9HN4Y/B259z5giPP79CRXqh8fkRXRqPSslUZlBXvAXFeg9Rmwj2cwctYJSN784KVS3C6lbSqdcJlVXf+5MM82yCVUocNMD0qqXWU2ysev0HM8ahA6ploYqNFrg3sNSkMa0BRzTIFrh2ripGz9l2sovPnHgthvSqYnOHfIS8dUbkt9E3/ZwSttk/QQ3EJmqCb/MKjaIcY0+3M4EkgywyXGmjYrlBXkoEHhEgHU5coX/0Z2ny1Gu5nWTmpdK/UYYTPHpwz9TH0dDrwsD0DWveXX8OXw+qlDg44EuREGBJk+e+cG9a9ftqiwQydm1WX1NNC2OlBMzcvuNifZ5nKtzrF802M1fe1wePy9NhyvB4SlGNcDOLXoBB/ViKFHjJsDjXrBARVwRpt97gCVNLiSW9WEOFpdWT0NfERu2jZ4Fe8nN8mulwa5dq47q2tiCM2jQZDrV1xuFwd+Q6Qvo/6Jt0A9SJLlKHT4UROgURcKnUF6zJ34Xbn9NhXYjAeYql4pDmhUVk2DeaDf4doMaDrOCLusINlNnFFb18RmQ1CIPIFZzZvg92UI79S+mdMLqg//cL3gQET2bZG//TMYywp3RwkX062s+Y9dVi8HQL6ekcc9WRCSP/K4DP0aB7PqmthsYFxajFERAeOFGLieYjE7AMAFhaAQw0f8Ar6m5yatK3DgaOJUrjBR88C+haAAuoH+0KrLqmnAbLZnzqFaXHBRr8jVV8q+bWTGoxraRKjtFQBdpHEdMrtldANqIqJpo5VVZL3lgJ3dfba6/vPhBDk4QiYHSTnNbA1l1TRgIpYBw5y+4q6PYlXt6Y6aTjiquU2DcoI8znR/H9FdTjj5PrvYD8AFt7HBTXxU0LKCt3U/bx6EPX28ENeKR2/cCAlQFieTrUUVrYEGSjzl0zXitGEtfaj4U+8JW7Z+ZABmAyqifmeKa8esVOeje7fKX50HwAXe4iY/MvrxNZLhqCc0BZ7o5ueutoMKYgLutuB580CFWuP+favXRcsQZpIYShOWJk7RiaOYNo8JhO9eYU304OqPaKhqOLsL/l9Je5+5uG+0ct8IfCfZt7T79XLwRppBwMEb+TbJ6vAFfA1f5k/wQ/2EmrKC17SGuKEw6JeiyohJfpCilo4E2fjC5Glh95dLDTtrKmunAa+PoIH35klJbUfnOXaYjWskah1d16VfCOHct9C/RORRoCeqUt3VfKsYY1wol47L0MnewZ9BFzoacIG3uImP+AVjDF/GT7Sh5hPwKD4QjWnkaK4EUa/Q7zNC1OrOiHIboT+bCVEfFo2MtZc10iAstRaEZLj2I7LvDK6iyXSBBnqIA3y3Fhpo3yb+xAWNcL9kejzgd3rMHT/RfOBWRIrMDehsFi7wFjfxEb7Ar2WotUITzYcA9csXddX9QjA42zXIkrEkB2csIlOny5c+HfY9LCE21lxWTYO6UmsF2nHbLbL7ZB9NzHT4WWikLt3htaijJyELeEz3unv1OnojLqMnqTvv1ikYHagvA+c22vxo9CR+LdvPn6S1wxo+Z3m++2qBM4JjUuhhpzIdHuzN5Eny87tq3X7KBEB5qjQIC5riL1hq9x+RBtkesowB84jWr5oGWvUfXhgTYjAUplRERk50772FFsDT82aVLEgAoDTgLecxuPzCyIl6UdjhH+qHPOmxq4K83o6r0IWu+cl2vAa7X6sWvKZgPyyrp0HId0eU8IbjBl5S7ygDrsnHgkwrzdfq/fQn0KQ5l1ZhdsBMdlR3nib336b3d7Wg+aD9TEiDrpsXituR4SPuTXz/bfgyfoIf4udHStUaaADGlyRCkw7EfU6qizo217am1FzDslYaAJ78zg88dS5nxnPrATg22U5JxbxigzzSigCshciiIS1E4P7TDX3wh444TAWj/9xD110KuOMRABfcTBeioFPG3JnswR/iJ/ghnSutD/HAteki24igI8yJ5XENHdsrF+wI+96s0jQaMEq8OMs1/saItqhdkow5jff9agT0Xkr8FckwO2BnexCFMQ4IszHg9kDm9eaX9Mu1EsIF3uIm20EZ0ambvzqPEVy2h8mMkP1L3J54uaL/IriIxbJDgR49dnIDku6SN2f1Ir6mlebYAxZlu5fk/EynMgYgB9wRuMAdOeq69AthRRq4RP4yDaxwmEpw8QQNOBOHoxvNogHZKKldDHhWYC9IFVhNuPdiCLVS/34VpYk0CPwLdgS5vnAfWu7Bw42HV20PAMfWRQ/d4OiNv4l1N9RFOmnoKlxQFwHvetNKpnQfuqFZuojqFLqIe9JBwXL5BVQuFG89zuvfr6I0jQaeKyrXjhDJTXaR3YpwDTVTH9WrlaHGs4B6m/w6bZMd2/e0TQYZgHAGCNomUwnhIw6/0ia/rlk2mW4FnAu4GEwBkL3gesABOQbCn1kawFGDu6b2vNYF4pLtemOmLvqmqx/PIpoa+qavcu+5o6buIQ11vimVlccvjLyqmb4p3Gt0xGijw51FlBChC75gPaO+6ZMLmhIWueveYPJkj80NY7Ru4esaddETPwQGnxSjnazuOKjJoLOVy8ANUDx+NHpyk2M0qDI0Jof4gDEaA6DdJyMgrXX7GY/Raq3QRb5yjezZwD2h8r1sLtTI2pY8hshqlKvYN+GOvcq8n7uE6lwFtyzXuQoXN/ERvtDsXEUfky55+NwI1rqYjNl3BhMz0H1cTKz7HmJDwxpK02gQvD0j6W5uS4zm5hOSYo7MN9ZCAxLv6JxdYdtROTvX0YCL+pxdYVvTcnYGDLseH2Xwz/StpLYzQalpEJKBqHhGaKAR/0SZ2306/GhJ63HE4qCkdM+5Ec5RvVoZwL/HzF3nI76xjecu4DvMXZ8q932fNgBw3/f5tpa77sHX8GX+pCm5azyzAJ5gQp4kzMe8VO/SxClH0oDl6aQB/XHP4ZCFB/+M6xK4k80XPwMuC6GuA00D5s70WGaKKqWyZ/sjE2fLZWl5R+qhsTPNvW38AgxAGASsgd9XC9d8gH4Z04dQiVSMnjyythzG6uVAH9LFOWQMiZgmw8v87OD6EkA7Nnx+aGPxWoi56W4tJbwgbXCfyofD/cu/Wj9Ymtrga+eIO4F4FqeZcjUxWXS1ZfU0IKlN0/WUw1wBwlL/m18Idp65rgQA1GgckgFsDignnFQX82gIo5Zpox3Q9W4MYfoN3mc+xuF0DiN5XIePYPGwfV5VWYsccD8RsD9JvuTNB2ri1CCvN15bbwjH67WecWY6QzJA6QPj3AYEb2FIgP3m7sPSAOz8qB//TXng59xpiGjh/vFcKbP6smoa+AF3ZKqKt+CABQJOctq3RcrrLv7UMOG0Itpn4pqIhg0okgbhd0CJ2s0n/3Z9ICqpM/23TYMAeq6pI4Gqrskor14OqI0qevc7V+68wx17kUqNcsf/+iZq0DzbFAiRrt0b7eSETwbGQ8hHa+5s6BE9+bfrApk+G17f1Gu8H3yXiRq97Lm2N8kqy1powIwZp1eKPYuwpRXRvM9d9I5qJdDUVBpQ0QPLxRheqZR4X0+xrs3zjUAvIRo4cre09QNEo1UGbt0y+kpg3g03TubeSasuq6cBB6zoBwTf/oqzcwPcwSDTrjJDdU2sEaB5NOCevLC3WQQf0doULu6Q2iPpPrqkqKjIRWEkklZKyz9cJ/CL/ZLSPIGw+TN/Y4upN+iqIWlVpSENmA3mdvyqElS1GwpbzPXi4ut9japmMPYH+mieIUkNBweedfsarTvs74HMmbMdMpVQ/b/hPvo4cRbOeNNKAirb8njuC3x3KwwlGpSGNKDfoy0919mGaw50YoyrnhEVfPLdgbFJ0h22MewZrc3cg+l4AT3PhRuVJHvN9Ca5bHZB44bTO8JcFq7htWgUhv8blYY04K7kpKbiNo8qFDJXyRL3Tbj3oMSfz6lnZZ68oooDkl9bSvJ4htQwD7rJRPxswsx2OIMvkht/DNQH8NcDnoRGtNNUA2EhbRqWxvaAu/1A7YAChxeZ85iKwPGX5K1pmTqH62EzbUuFTu502cS9Z44XgB3KcMsRVUCQOKmMM7llt6sPr9ar9EkDqhLPAgOv6LM2poG2vXiiSXJq/xfxIJ51w/UydpJfiHHSRzbGM9HgG4Aj6pr4yw4q1WUyI4n4vNstjnLwfMer5UvX1iQADlLAqTfaOuhRt8alMQ1Q9GpPihEXh+tt4qveYq61un9AMjE3Nx6UEpKjbxp6I/+tgGvzz++RfREpDEAbc1yhOLq0Y4M88qBOooIOFRoDYC2AMKzkMDW2yXgKrQsuqdi4HxUI+w9/JdOtntFpZ3t4lDhMQpLToeva998BrOQW7pWUjtr5rZIZcY1ujiHOnCN/fYnYFY3ycKMV4I/LxHmjQWlsk/FfqzVPeJQ8t8J+7KC367WyD5qnm+vCU/1uLuIY2yU3yc2CjmrlLzlkOiU96HJ3a7Bgp8z0UDKybX7iJXL/LXpzYU69oVHmHqtAZcOyIg30DA7Ydeo4POeKt0hyc31T1goM9HMRHkaeb2d/PvwBxl97OsRAlNvPDZUBM4i/EjB9XGmT6oDSU8W4neIuNV6uS0ocI6t77DMPezZZb0x7YkOPUBrg2KxoDFBWsAd0SUFGO6jQzt96x9Lky/1i8/ZaNlqXEOjmJ9xCe7C3Xb76ZZH7D139l9wTNHO2N91LVVuMLh7o5X6SKXggE9wCmGOTvaoUkf0JHyTRc4eeVeAb/f7uTfK9r3DTZM60ASl+wUkyjWkQ7sHMn1dMXF0QDUqDx1iPv3bYxt3+ckPcFtPos9/7zkMQPt+U+x503/UnMnyiFDb7ByJ6u7q4ZDrMUj/nNMD9SEb0zk2A2LMwNtQzCvr89CaO6hD3dsDtq9eki7jauTZSZsl3/kUmXmUV9HyFo2pdI/BIYDyw3Sl0e+k27kYH8aXv5QaeKf/xI8+Iy+7XVYt9XhqhUFznhTTX6yypTtLxWNwnPfNZAC4PNY3K7g3y+ffRKBP5JrvVuDSkgarFxnNqwVvcs4EbIuQ6jr0nwtogE+dAudG+dC6w2a7iJ6iFe8g4aLTeKMZVpnzuw/7wy2RmCydMpEeddD/nP0N3FdqqhS6eI7XOa2DXAkCUAfuccMdOkccfRF9MWNW1xQcwKaSeU5VPfiTYe5Zd7OMODU3MCeeg1kfgXLv5bjG2Ozs3ONd/DjXq3fg8uti2duwemnMvL6npkyW3RSW3SXnQmellxjQczOG2jUc9+ZmFQr+dTfjgj73t7nvPAy/DqVlONRyzNKQBjYlry8MVd+QElR9XcEKMTU6meTa52EN7kB8WI8I9ksE+5+4F/j3fAuYD5aHpHlqODvi+ddMPrFynTMM495uFhFsakhnosQS3cat77DMNepozugavYSQYOUVu+bH4Syt7Ro1tslQWoRMuv4C8n9kSpDsBa5kv1AigWDLtkuzzMwlOp4XzM3iCe+etZBlfH67C+QKQhYooHnPL5O8XPr409EoxXsuoMD0uqahV3lT/2Gca/OkOJweM9ctsZzDT758breghrxVKi+3wQFVRPIKFkQX7uhRwuyhTbr4xmDxZCq2ybyLIn8Pjm5NN4zsOTIZjwnqch0M0MGVv3o36A5nzVRXt0VNHtFlSFEt4e/6hB/y/vNCKvlj2beIJMTmOmnGvezpInJHHIwfLcJygM3nnMNTXvn5gwchlYpLbLOnNzK3ueoP//e9w/S6jXW6Mhj+6jy4T29pYt1jCI61ELQSIhwNynMUxG7JhkO20pzq8/ECQ71AzMIAd3LnqqFrXDhr7VOvAfikBMjwycqbcfitTttA/IfvooQt9Vg9bzOk8aNpNt6rikIz/gTW7RVLdXnnQZtpqUPKjTim2iEiCvsMzQABCpp/HJxno3SSneua2L449l4vnlMyhM/A4OAg2p4+vF4falufG6iwrJ0swpAujigX/MfmXL8rYGVIcdpMJu9wGv9Avwzts2t77lABcaC+Tg8MgQz5qT3fIpVk0BR6BBWlAU3gCL2fzkVECcSzwkF0VhxHQN6/zR35fjE6zFGXuNtvKjQJSQ+SVwpba859+4Mb73XTYcn3wjhTi/KkN8qm/RXvBUBaxjO4toWfoUaikWritO7GPTxaZk8B9hAZWYI6e6uYm9fSp3tANB3l5wGtdlWuG5SOBipxiHd6R8oBMvk6+dJ0T0Ldm+l1vGIaGodVaKfEubsB5ZX4YevSqt/mRPxDjHO7vWm5nVmMm6pSHuKo71HVHVvo0QF6rIzDr9Db/gl2wc1YxWo22yKMPaB/DrKIPet4+Xhch36SBcn3FI5UD12JiztcDDp+9UqZe48+Owov34L/PAFmwnEN2s+dy1dAUzrWGUgIxzh2UsVequx4kXyh3Dk2Cr4RrpmB05kqbLTYYKgpNdW1178PB+TvV+KutYpz7iiCY39OlV9bX4Iga1101+czkj9AvynfTOOWGKJq7et0PXMC2u9D0PmM2bQlsxEBaDqiL2De9+w5N8+OPLo3/jiq28igmIAiaFw4vd7OHumiaLgqnPgDv4VQUqCMSowTPus2HQKS2ydzjWmzFAvuoCpopHjxWmCmgn5Nr6T04Fc44dhfJN//6bX9qs8xs9YwdMkvtpOFIGjwd5sGD3jYSkm6vzA7ybL8MnNT2IJOojp8gt9/p6FEdmriA42Oal6SFQhHoM1i5OxQz3daH/1z2bazmejiLZGY7RNsrD0uxl5PaU83rw/JsODDLkfNES30yDb3UKfsTUlli1pws44q9iBewC7TQYhj96yXi6AWkxBHbhLqqeHLV+7zRl/mZdjgUT5ChppGeDhqIMaiPyexBlKBmUV2fn9IjPMnTgj/ZD1QT65btcpiSyQiUFi0TnERBC43bB293R58rhUG7NC7TPdBrXq6LXoeB58YVtG1dlWuG0AZQWvX0UFzkozTOSdjnmJnvl+kti7NDlt7KUyOaOURe+9Cm3DqUdg2XPJsBnQldDo8D6PffWbk0o2kQkkFrJJLhaaEBtylo93KDTrq3dlRwqh06XEE4xk+SH3wdho5uDylAaUZpQbdgj9EHzhyGeF+2S6Y2eoWjHt10SEGquiwjrqC+c+NUeskeP3uOJOMWxDkJOWiXXV0ysVkO/pSoX2357tfmkxCps9xsp1XayudnJ9ziaFDsDY+koDI02mSmjYlxqO+65jUbbNAj2S3nxYH82kn6oWUGDVzXhp6tJQXuvuPx8VMksy1ciLu+YIy55aiU++XcUfqURtTJdQVGTBVGxehxswOm0S07XyRfuFYtPSJOyDGrKIjyOKHhur+vJF4gU92Sj6vsdpVsl9II6LGY6/dL8CDjNJv57e7TcM7PbEJSPfO7NsitP6XiYRPF0ps/hPaA+RloVe/TH5IpxJ9aoOoe0WxwEX5nBhCEe8mYMrqg6GC4/AODKtdZzcb8yRe7l1+oFh+nbDKI1I1eVeHaCEXhXvLk8lkZeYWbapdsB1dT5UYlFXFyQxzLg7dtIMDeWNe85gMcy1RvNXmOfPTd9O8gBMB4aA9AAD1lAv9tuXCflGBMBp+G8eHFHHgTHhGMFYxBK49T4pHZ3WZ6kzl1qvzoVqnSUeAcv3C22ioLBUdPkSIx8HrTzXBbH5/cwEMCs1tpftJ9aIBf0luO8WZ9C5sNg5LpU+UentIDVBP7mgKaBq7n6KOjYLFTXW5+E4cMEd3VP6LZkG7jNgT5USsfswrDLhyhUqvEnydf+gS3ZwHf613sOYGw6qw8X/PYxXPIZSYeVIHdxhMYHH3zWhn6PZnZ5B4YCPbHGEnld3C1ZRNz8o1ALyl0M/oQTXSKVrnGWpQDsMwSrASMQmHEne3idJXazPJ1BDvHiAyGUU9gbjOj/1M+eGkwf4iNQvv0key+j9AeDV3SKa3VFf5UED3g5wy59dxbxt0u/PBP/oXqf77se4MLFz7bZRuRpfW3yb7Ry/gR0n/ebuFuS06Y/0KhX6R5zDThGb33bX46IjMRO7et7hFNB2X0OMV2VZyQnSd7F4zIrfcASRbVDjhXLQLrjg9tzmgm8H/RSXvHKHS/8WOfkSc0ElUT1JLnaPUUyP0Py5/nueOXEXfS/c6s3gdgPQHuH9dvpdvtK9+lWwAJhRVmUzl+oAd60FzlfPsaGW8LChG/uP6yCQ2wp9PZt1G+8RWwakVveiM8xkcnD3lwwBIIQkZ2acFWW/ALWx8KZIlbZejAPpIoiO/Qc6XJ8qN/WzxvkG7I9LrP3VdlvcHf5Nnyra+jET5dBTYDpYV/dNyM9sn98xL9H5Id8Kc7OJsxHedpezm47Vz9W8kO8BCio55eg+SggM5luDoDksTPcXMkyA96xS4pQe0mYGb8VCwojiB+kakzneE/dD71rmBJ41frDUoAG7HOhWt7IQwMS1EzdwT79qeDPe0ytdk+MIrOigH/tY/n4EN7ZBLcPSo/LFNRHoIKi0rT1S+N98YyuZC/jRsIZdosrmiHg7PDTEWlGGGYNvJ8b+F+ijrqJubZIsgB51ZDcvWCD9u/4h3clYERTQdn8ibbOLM1k+DsYqjOQsO4gYM8aDqc2mLUzg9bxXa23hjmDha5NtPYJrPtCLMV6LTzdHnHBfIYlI/mBTTIRuyLMBh4Wb3tXW0hDWyema7YY6CCLuLSg/LZq2THmQHCqOIozKafH2LcXmj1UwPouFne6hmdQZonlzPUSjX23RH3FQZUrtsrDOk163E3zW3+4HpI+ix5/1sR4M8D+dwvmRvQoUWIDx5HU3CJ946YwT13msMvZB640IWgyWFqE/W1S2ZCENQ09lmdbNTfH9dT5LaD2QUAMSpv5nSg0gCDYYQdu14n5V7rB99TUgWyyfScfKMTc1QaT0thbeixWxUbl9BLUAKaFWzr0H1y5Zv8yVfZM636lOIejt2m+8i/sxFuCcZZ1lAJA06hsT5Id/mlATelJ0BCgPKDECmv2Gbme72h58gD9+ptD1HjnLYKLC3MO6IJcKLxSh9JybvfJPu6LVjLbMxDdJfrtY1xbiYG3dLYj1apYT8T50ZqmVboJVgUfUwol4+52SGZ3lrd+Rr5+rVwvmBj2WfyP4GZElRLg8RmrHuBBtD9hegzb0OaaMBNbg1VkTtuVhfNeGOncm0Lh4Zi1dkIT1LPDTH7lu2uQlk13vcC1tTk/Aegay/8Dr+8tQrlnB6XHdvlyvcxIaG1EPnPh6Fjh1us8D0DBJBnjjZw4ZHF3S+TJESB20rOGXHoMifZ50DXlxvLICRgBt7UiFMA2fUelMYOC03Zs1ENn+D/9TtkwYbCUbLIbDnUQFBBvx3ujAn8h7P1XWfFOSBNKbDJNPtAvlbHvmc6gQU1CB8MVgkoAIrIEN/9Nx58uvtsgeuc6wxSET+zQWa3e9lJMBY3pqnr/mFgXijVt5Tf6WW3gh7MXaeAxm3zM1vFOUQ/TenDR8kHOocKGsAH19MXoCJhqRgcefClf/IdGfh1JzMqhW2SibvlOOcKAKGw7EfVGoLJkKKbA23FIVhmx2hz0ttk/Cx580658+ec3xGYXNUMwacF5n/dDqIfTBm6j2jHehfUAhSgIuCZGRrgAbe4wEVRPHmehzcf2iU1J1/6rJr8XW9qi1XotTIjKt+qcu00DKXG+TQYEo6QA116G5NC3ITQRH5D7nkA9g8SD68b9Fb2IrGtfRCOo4E7q7KAlulRBHxtgZHS16+xh1uczLgYHUGqjwodqhAuTV2Vy5CPWrkxKbZ76fgiCLb7Deaek+SG77Ez/tJiEHCSjefRA0VXiQDcR7etQGMf79gg3aZ1LS48j1AhwCr6iARxdVhB8YMFXrBB2krAWjvV4OoPzEdbOFhf6uFp1/kYj2is6/4ypAYlD0PSvgiXMt3qGmPS2hLcc7sl86ilwprgCwrPpA4ZkTSAr4r6IA1AgwNfQS0SWXqQ7WufkcSvyXSHWQjtQSdPBayr8jAExU5oTO71vmeLPfZc+ae/VRz1Yi2oTfc5xDxMIHgPYudqyav130cJXcZ1L+w8FDBqZ8N0wbVuG/OzWjGyVXjhQU9agcpjd8n7L1WD/1v2QRtv8jPcTfeYEBijnDtb6FHZYUn1BInnyMG7+CwwHC2QfrgPqSMzhA1oOMcLVXN4+V8/7ww+T/b0Hyr02qUEF+GU26DueYqyAWWnNzqbTUBTMfuWPmd++IXexy6Hx1HL8OgFisd10cba9ZReCnbwHvWugjl6smQQNIRTmOJwOhkxQPTheZciCg56KsL9+XecMffHe+ThB/AIWqDGpSENiELP5ezrh++Wt2Rk6GWe0W/zVDYO9MMo+cUhDtEhIICR2LtZRn7LvOKN8uB9pDNqBL1peilOx3VBbxBma3k1hVMMlPzsh/7Fe2XsdJgHTsOdjsreQciHzdgCCnmX7Hu1GnmZfO1qnY8GJrQL0Lg0nuuobPos8Bx5HHxFbrpdLrogGH2u7NpIlx8+w0xrUO6vpjbOTb5aLp7wfvo91EUdW1mQoAJhO+5FICyKaVfyIngKzpsbetZKfvAt8+KUlzhRdv3RktHpIp6Y3uoPv4gT1P/pE7J4CGEAc+YMfsOXhqUhDZixATsDp8oy5RDXM8B3vu/h4Mufd99zgcWzw7ukPCR//T65k7xPhc+cB8+EQYU68azHeI/3go5xNgT1uO4SWMvUSgL9dayDt6gvfFo+9Bfux99nf+sLctdPffg3juPAzwCpPFkExXhODvV6o9KQBvwp/9KSW3glQRZot0GSqsesn1uBc60jC26BrJvlo7loM3x/sRdg5/H1471os8n9QKrAuVZN5KwAOEVAww/Bc/zD3AP+0swCI9RdcHB5aBETuERe49JYF8Ev00l3VgQ/TTEF78Kgs8aK5WtegIzp+aBskHZ7NDH0kgfKkCXBIj88nst8yP3oNBgMKAZnondUTfyUw0SH36oAXhX3Iud7+H2hBvNdO/ARFzQsIv8JAoQ6B6z4xqAAAAAASUVORK5CYII=;fontSize=16;fontStyle=1" parent="1" vertex="1">
                    <mxGeometry x="522" y="182.5" width="100" height="100" as="geometry"/>
                </mxCell>
                <mxCell id="47" value="&lt;b&gt;Develop&lt;/b&gt;" style="rounded=0;whiteSpace=wrap;html=1;fontSize=14;strokeWidth=0;fillColor=#cce5ff;strokeColor=#36393d;gradientColor=#ffffff;" parent="1" vertex="1">
                    <mxGeometry x="504" y="104" width="157" height="31" as="geometry"/>
                </mxCell>
                <mxCell id="48" value="&lt;b&gt;Test &amp;amp; Document&lt;/b&gt;" style="rounded=0;whiteSpace=wrap;html=1;fontSize=14;strokeWidth=0;fillColor=#ffcccc;strokeColor=#36393d;gradientColor=#ffffff;" parent="1" vertex="1">
                    <mxGeometry x="661" y="104" width="156" height="31" as="geometry"/>
                </mxCell>
                <mxCell id="49" value="&lt;b&gt;Deploy&lt;/b&gt;" style="rounded=0;whiteSpace=wrap;html=1;fontSize=14;strokeWidth=0;fillColor=#cdeb8b;strokeColor=#36393d;gradientColor=#ffffff;" parent="1" vertex="1">
                    <mxGeometry x="818" y="104" width="157" height="31" as="geometry"/>
                </mxCell>
                <mxCell id="50" value="PostgreSQL" style="shape=image;verticalLabelPosition=bottom;labelBackgroundColor=default;verticalAlign=top;imageAspect=0;image=data:image/png,iVBORw0KGgoAAAANSUhEUgAAAn8AAAKTCAIAAADnqvlVAAAAAXNSR0IArs4c6QAAAARnQU1BAACxjwv8YQUAAAAJcEhZcwAADsMAAA7DAcdvqGQAAAASdEVYdFNvZnR3YXJlAEdyZWVuc2hvdF5VCAUAANaWSURBVHhe7J0HXBXH2v8vWGJiYkw018TkTUyPaTf2cu01xR7b35ZYYkDRq2DviqiosdA70hSQoiCKNAERBOm9d6QpTUDa4f7H8FxjRsUzs3vO2T1nvp/f+35u8JznzM7szm9nd+aZf9xlMBgM1SYnJ+fGjRuOjo6nT5/etm3bypUrv//++yFDhvTv379bt27/EAbdu3f/4IMPRowYMW/evHXr1unq6trY2Pj4+MTFxRUXF8ORMMQDc18Gg6EqIJeKjIy8cOGCvr6+lpbWrFmzBg8e/NZbb4G/iRZ0i/DZZ5/9+OOP6KDOnDlz5cqVtLQ0OGaGUGHuy2AwlJO8vDxfX19jY+NNmzYho/3yyy979OgBfqUC9O3bd9SoUcuWLTt48KCHh0dmZibUC0MYMPdlMBhKQkZGxqVLlw4dOoQsZ9iwYd27dwcjYvxJv379pk6dqqOjY2dnxwbHCoe5L4PBECvR0dHnzp3bsmXLDz/88H//939gMgwp6NKly+eff75w4UI9Pb2goKCSkhKoU4a8YO7LYDBEQ3Z2tqurK7LbCRMmvPHGG+AkDM706dNn5syZR44cCQkJgbpmyBjmvgyGaEhISEDDFDc3NwsLi6NHj27dunXNmjU///zzjz/+OHbs2OHDh3/77bcffvghGgW+/nzQvw4YMAB9csiQIehb06ZNQ93u4sWLly1btn79+v/85z+7d+8+dOjQ8ePHra2tPT09UXeclJQEJVAE6KitrKzWrl07aNCgrl27gl0wZMY///nPOXPmoBPg1q1b0AYMGcDcVzQUFxenPcHt27cj/iQyMrLjLwUFBfBRhshBbufh4XH69GkdHR3ki8gjP/roo5deegl6R0XQpUuXt9566/PPPx89evSsWbNWrlyJyqanp2dmZubu7o7OQ35PP3R6nzp1atGiRejAoQQMRfDOO+8sX77cyckpPz8f2obBE8x9FUleXh7qZS5fvmxubn7kyJHt27f//vvvqMeZPn36iBEjvv766w8++KBfv35ovCL9LT/qJTuGOOiyQV9HIyE0ykHRvv/+e9SPr1u3Do1s/vjjDzSsQf07GkjFxcWx60qxoCZwdHTct2/fkiVL0PhVpA9U0SmKRtX//ve/0Wm2bds2IyMjb2/v+Ph4OEgpyM7OtrOzQ76OTloIyhAMr776KrrrMjY2Tk9PhwZjcIO5rzzIzMz09/e3srLas2fPihUrJkyYgMYQvXv3hvNaAPTs2fPjjz9GYyzk/WhMg4Ydzs7OoaGhubm5cAwM/kBDW2S3W7duRbdZb7/9NrSBktKjR4/PPvtsypQpq1atQmNlNFB+svsuKSlBlwa6I0S2LZy8FoxOQM2EOgrUlHfu3IFWZFDB3Jd/0tLS0LDy6NGjv/zyy8iRI/v06QOnrTh588030Sh82rRpq1evRpeci4sLuurYDElSIiMjz549i25uBgwYADWrwrz77rtTp05FtdGvXz/4E0OEfPPNN2hEERcXB2c5gwTmvjyQnJzs4OCAhoyTJ09W+qFMBy+//PJXX301a9aszZs3GxsbX7t2ja3lf5r4+PjTp08vWLDgvffeg4pjMJSOLl26TJw40cTEhD0qI4K5Lw3FxcXXr18/ePDg7NmzP/jgAzgHVR505zFp0iQtLS0zM7OwsDDVzD2Ljvrq1avoVuxf//qXmpoaVA2DoQL06tVr6dKlly9fZs/GpIG5r7Sg8ykwMFBXV/f7779//fXX4XRjPJ9XXnllyJAhK1as0NfXv3LlSk5ODlSlMlJQUODk5LR48WIlSBrMYHDkww8/3Lp1a1RUFFwejGfB3PcFpKeno5Hc3Llzxf76VuF06dLls88+W7Ro0fHjx9F9TFFREVSxmEFH4eLigu73WeYHBgNDXV193LhxDg4OqvkY7IUw93024eHhBw4cGDNmDJuHKSN69uw5evRoLS0tW1tbonUpAsHX1/fXX3/t27cvHA+DwXgOH3/88dGjR7Ozs+HiYfwJc9+/ERERsW3bts8//xzOGoa8eO+99+bOnauvry/wRHdpaWl6enpfffUVlJuhwnTp0qVPnz6ffvrpsGHDJv3J7Nmz58+fv3DhwrV/8p9Nm3b8Scd/YixYsOCnn36aMGHCd99999FHH/Xr1+/ll1+G0MrI66+/vn79+ujoaLiWVB7mvo9ISEjQ1dUdMmQInCYMhfLWW2/NnDkTmZygkr97eHig+wPFJpxiyAc1NTV0Eg4aNOjHH39cuXLl7t27z549e/7CBXRCxsTE5Obm3r9/v7W19b+y4eHDh+h8i4+P9/X1tbe3/+OPP7Zs2bJixYrp06d//fXXgsoTQEG3bt3QPcqVK1c6LitVRqXdt6CgwMLCAt17ontYODUYAuONN974/vvvDx06dOPGDWg2+YJOEgMDg2+++QYKxFAi1NXVP//8c2Sx69at09fXd3ZxCQ8PR43e3t4OTihI6uvrk5KSLnt5nTlzZsOGDaj8n3zyCToWOCqRgEY75ubmqvxKWEXdNzY2Ft3P9u/fH04Ehhjo27cvGhMfP34cjT+gIWVJeno6cv133nkHfp4hcj788ENkVDo6OmZmZoGBgYWFhQJ3WSLQsSAnQ8NldIEsXbr0yy+/FMWCt08//fTs2bOoLeCqUyVUy32LiopsbW0nTZokuvtExpOgbgV1LpqamhcuXJDFAn90c7Zq1aoePXrA7zFEyNtvvz19+vTt27c7ODjExcU1NTWBTakMzc3NCQkJjo5O27ZtmzJlyquvvgpVIzw+/vhjAwMD5VgHIT2q4r55eXnHjh1jSf6Uj5dffnnq1Kn6+vq8DIijo6NXrlzZvXt3iM4QD2+88cbMmTMPHz7s5+dXXV0NFsT4H2hwnJ6ebm1t/euvvwpzHwtUKlNTU9XJ1KH87otOuB07drAcCKrAV199tXHjRm9vb4qbaOS7v/zyC/NdEdG1a9dRo0b9Z9MmNLpNTU0Fk2FIR0VFxZUrPqhvRHUoqGfU33zzzYULF+CyVGqU2X3j4+M1NTWF/LyFISPefPPNxYsXo05Zmk1n0f3Z+vXrRfqcuWN27gcffPDdd9+NHj168uTJ8+fPX7FiBSxqeQr0T+gDs2fPnjRpUsdal88//7xv375imXj43nvvrVq16ty5c8huJRIJOAmDGw0NDT4+PuvWrXv33XehohXNmDFjrl69CpeokqKc7puVlbV7927mu4yO59Jnz55FpwScHE+AvPn48ePCz5jRv3//8ePHI9c5dOiQlZXVZS+v8PBwdER1dXXQffJBS0sLGg9lZmZGRUWhvtjGxkZXV1dLS2vu3LkjR45E/bKiRkhvvPEGumOwsLDIy8uDsjJkRm5uLqrqGTNmKHxAjAowc+bMyMhIuFyVDmVzX3Tq7NmzR3RL4lD/8u23306bNm3JkiWovztw4ICBgYGjo5PnpUsBAQERERFxcXHo0EpLS6sfU1ODLhV0+9/xX+Xl5egDiOTk5Jg/uXHjBvouun9EcVC0gwcPbty4cdmyZT/88MOwYcM+/PDD1157DX5eBejZs+esWbPMzc0fJ9wxMzMT4A4ZL7300qhRo37//XdjY+PAwEDkN7JbV0pKW1sbul8JCQlBQ8/9+/cvX758+PDhMkoQ0atXL3QtoFuNnJwc+HmGfEH3dqj/WbNmzZtvvgmtogjQCbZlyxbUs3VctsqE8rhvYWEhGscIfIO/9957b/LkyRoaGidPnnT38EAjmKKiIjTmgPNdESDnTklJ8fX1tba2Rq6/cuVKVMJPPvlEWddA9+jRA91/jBkzBv5b0aB7IDTO0NPTu379enFxMbSKqCgrKwsKCjI1NV2/fv3EiRNfeeUVODZy0AXyn02b0F2jcO45GOgW/9atW6hdFHi//u6776LbZejrlQUlcV83N7fPPvsMGkowfPzxx/Pnz9fV1UW3kFlZWYp1WQqQMaORtI+Pz5kzZzQ1NVHHyvZC54WBAwdqaWk5OjqhgTjUtXKBhsjonN+7d++PP/74wpGTmpratGnTkHmjG2j4PkOQNDU1XfbyWrBggaJWbKKb5ps3b0KnL35E777x8fHz5s1T+CuKDpDdrlixwsTEJDo6+uHDh3DOKhcNDQ2ozi+6uaHh2vLly4cOHcrmCUtD7969O15eFhUVQVWqDKWlpc+cXjtp0iQrK6uqqir4HEMk1NXVOTg4oHsmaEg5gnobbW3tvLw8MAAxI2L3LS4uPnv2rGJ3dkNdCepQ9u/f/2iJ4Z8vYlWQ9vb23NxcNNY5ePDgnDlz3nvvPagdxj/+MWzYsOPHj6enp0NlqTz19fXBwcHuHh5lZWXwJ4ZoqaioOH36NBp1wOkuLwYMGODk5AROIFrE6r5Xr15V4D4z33333fbt2319fVFXAqch4wlqa2tv3bplYmKydu3aQYMGCeTJhNxAx4tGdaampuhEhRphMJSakJCQJUuWyPlKX7RoEbqv7XAEMSI+9y0oKNi8eXPXrl2hBeSFuro66lINDAxKSkrgjGNIR0tLS2pqqoWFxYoVK5R790Z0dPr6+mhAAEfOYKgS9+7dO3bsmDyX8L399tv29vbgDWJDZO4bHBz87bffQsXLhe7duyPPuOzl1dDQAKcYgxuVlZU+Pj779u2bMmVKt27doKLFTL9+/Xbt2sUeLzMYCHS3fcHZWZ4bts6cOTMlJQVMQjyIxn2Li4v37Nkjz91V0UjXwcHhwYMHcE4xZEBbW1vHsHj+/PlizI6CTpKLbm7oKOB4GAzG/wgPD0e+CJeKjEF3wKLLTykO942Kiho+fDhUs4z57rvvzMzM2DxM+SORSJKSkoyMjBYsWKDYyXQvpHv37v/ZtCkzMxOKzmAwnkNycvKKFSvgypElampqa9euzc/PB9sQPCJw3/Pnz8uhL1ZXV0fDr4CAADhlGIom98+Md6hRBLWiCd1iGxgYsCciqkZzS1tZVV1SXlloYt6ViDTnoAQrn6gzHmGHHQN3WF7TPHtp+THXZUdc5u53mLnHbsbuc+O1zZGGaxn/63cDpEEaBh1/eayJWyzRJxcfvrDyuBv6+naLq/vP+R9zvmF46Zajf+zVyPTwlILM4nuVNfWtbcqQzhpdzsga5TAt68svvwwODgbzEDaCdt/i4uItW7bIemX3hx9+iPpTlV0vJHyam5tDQ0P37ds3bNgwaDNFMGDAAGtra1QYKBZD6ahraMoquYf81eVGAnLWnZbX1px0R4Y6ZpNZh4kqShN0LH4+4IhMWs8x6JxvtH9MVmpBRU29+DIK5OXl/fLLL3BFyYwePXocOXIEXETACNd9U1NTJ0+eDNUpGwYNGuTm7s52ShER6Cbpopvbr7/+2qtXL2hF2fP55587u7iwl7vKRPWDxsTcUu+INBOvCDR4RWPQsZsVbLEUQmVeoue8zfyqufftoLjsosoaSXs7HKGAycjIWLRoEVxdMmPmzJmZmZlgJ4JEoO57/fr1999/H2pRBowaNerKFZ92MZypjOeB7s/09fVRU0KjyoB+/frZ2toy3xU7tfUPYzNLLoYkHnEKWnXCbby2OWZjSqNRG01/0b+IhsiuwQmxWSUPGoX7qCY+Pn7ixIlwpcmGjz/+ODAwEExFeAjRfW1sbGS0cQpiwoQJkZGR0P4MpaC8vNzKymr69Ok8vlVCZyCy9sbGRvgNhqioqX8YnlJg6RO12dh7+g4bzKJUR4M1DBfqOh1zvnE1Mv3u/VqoHSHh4+Pz6aefwlUnA1566aWTJ0+CtQgMwbnv4cOHZbS7zhdffHHRzQ3anKGMNDQ0XLnis2LFCo7JWP6zaVN1dTUEZYiN6rpGU++ISVstMStiQjciu6x8nYMS0gsrJBKhPPlrbW01MzOT6QZKS5cuFeBcaAG5b0lJiY6ODtQWr7zzzjsWFhbs/a7qgMasHTZMOl967NixSUlJEIUhZppb2txCkmbsOYc5EFOHJuhY7Lb2RWPi6geCeMCD7nc1NTXhOpQBQ4cOjY+PB7MRBkJxX3RjMmfOHKgn/lBXVz948GBTUxO0MEPFQLfVHVuT9u7dG86J59CnT5/zFy4IfyoAMpX8surYrJLA2GzX4ESLK5HHXYJ3Wl7bYOj12ymPZUdc5uy3/3GX7ZOLW54UGv3M3GP38wFH9Mlf9S92rHXRcwwy8AyzuXbnYkji9TuZMZnFeWVVdQ3KcNW0SSTIYOYfdMS8h+mxBmsY/qJ/0dInKrWgQuGTtmJjY2W3tOHtt9++evUqWI4AEIT7pqamyiKZxqxZswoKCqBVxcaDxua792rTCivuZBTfSs4PiMm6fCvFNTjB7npMh9DVYnjpFpKtbzT6T3u/GI+byUhe4anow0g3k/Ki0opS8suLKmtqRbg4gV+QDfv5+S1fvvyZD6V///332lrBvRVDRptRVInMw9Q7Yq/N9VUn3KZtt8a6TplquJbxjN3nVp5wQ4MkE6+IS2EpUelFJfdqRLcCFZnKjficpUdcsANkwjR5m9VBO3/U4SiwiSUSibW1tYym/qCwwtmlX/Hum5KS8vXXX0Pd8MS777575YoPNKZQaXjYnFlUiToF56AEo8vh+2z9NE57okHJpK2WgzUNsauCux6t99exmL3XfsUxVzRO2mNz/bhLiJVPlM/tNGTwheU1TS2tUDKlpqGhwcnp/PTp0ztOlf79+wcGBsK/KRo03OyYK7TN/CoawsriNOBFQzSNUPG2mvkYXw5HNwdozNTQ1ALHIGDQuC4oLmfBISfscJie1sQtlvrOwfHZdxU1GC4rK5s3b17HRcovampq2traJSUl4ECKQ8Hum5aW9q9//QtqhSc2bNggwB0Ryqrq0B0lGqTuP+ePBhOTBTklBBn/Yj1nbRPv4y7B53yj/aIz0wvF0bFSUF5eHhwcrPBTpbiyxjMs+ZB9ALrxQndIWIuIRYM1DOfud9hl5WvvFxuVViTkZy1oHHz9TiYqLXYITM/UT7ts0dggu+Q+VJ988fD0fPPNN6Fn55X58+cXFBSADykIRbov79bbr18/4aSKvHuvFl3kp9xC15x0Hyfy9YXTd9j8ftrziFOQU0BcWFJ+YUVNG5vCxoHqB43+MVl6jkFKPCdo1l67fbZ+7qFJqOMWYAoIiaT98q0UOT/JF7UWHHJCg4eqWnnfrVZXV8soPdaYMWMUuz2wwtwXWS+/ewUuX75csdkiUReTVljh4B+72dhb6Vc7DF1nNP+Q0x6b6/Z+MRGpBfdq6qEWGM/n7v3a84Hxv/3hIdhHyjLSmE1mWgZeqO9+NK9HMAtdEI1NLVY+UaM3mmIFZnqe0IW/w/JaVFqRnG+o0CBYFnugff7553fu3AFPkjuKcd/k5OSBAwdCBXCme/fu7h4e0EpyB41xXYMTtpj5jFfeBDrSaPJWy3VnL5/1CLsamf5ouCOkTlaxlFbV2Vy7w6b8dAhdJtvMfS6GJBZVCiWz+v3ahiNOQUM0jbCiMnWi2XvtLwTF1z+UXy6tsrKyx9M1eOTtt99WVD4sBbhvTk4Ojxsvf/nll1lZWdA+8gINc5Pyyowvh7MZHM8TGk/8dsrDwPNWUFxORbUq7giEOiav8FRUCYM1VGukK73m7nc44xEWnVEshEnUWSX3UGNhJWTqXGM2mZ1yCy25J6cbqfb2dlNTU9733Xn99de9vb3Bn+SIvN23qKiIx/uXZcuWyXnWTGp+OTrbprLXRYSavsNmq5mP3fWY2MwSpZ9cnVZYcdDOf4SWCVYJTM/T2M1mu6x8A2OzHzYr+Nzwi86cvlN1M1PSCd1f7rC8llFUCZUoY5KSkj7++GPwAJ545ZVXnJ2dwaXkhVzdt6SkZPHixXC43FBTUzM2NobWkD1379VaXImcs98eO+2YKDRsvfHqk+4mXhHhKQUNcnxyJWtaWtt8ozJ+1b+IHS+T9Bq5wQT14wExWY2Km2mPfhqdnOgsxcrG9EKh6/pmUh7UoyxpbGxcs2YNmAFPdO/e3crKCrxKLsjVfTdv3gwHyg10nxIWFgbtIEskkvaQhNwNhl7s4aGMNETTaPkx19PuN0MTc8WbXKmhqcXBP5Y9EeFRozaa7rP1i0wrVNQEgryyqjUn3bFSMUmj3/7wiM0qgXqUJdbW1vw+he7atauhoSHYleyRn/ueOHECDpEb7777bnp6OlS/zKh+0GjlE8WeQclTgzUfZbxDw47YzBI0joSWEDa19Q8trkSO17HAjoWJL03fYWPgeSv3rgLWm7a3/9czLFnFZ1NSa93Zy8l5ZVCVMiMxMfG9994Db+ADNTU1fX19MC0ZIyf3tbe352XnokGDBpWVybZFy6rqTl4MGbmBvbRTpNDQZ4ORl1NAXFbJPWgYgYHGu8h3R28S35bsItWqE25XI9ObW+R9W1ZV27DT8hpWGCYppW3ik1dWBVUpG+7fvz9p0iRwCD5A4+nTp0+DdckSebhveHh4r1694Mg48MMPPzx4IMPZswXl1fvP+Q9dxxYeCEvTd9occQoKSchV4LvAJ0HjctfgBGFmK1N6jdexOOV2E12q0Bjywi86kz3hoNNgDUPUr96XZZqOtra2HTt2gE/wATLgs2fPgoHJDJm7b3Z2Ni9Le5cuXdraKqv5kBXVDw47BrIFfwLX8PXG6w0uXwiKV+BS0eD4nFl77bCCMclZgzQMNhh63U4tlGfOh8qaevSjWEmYpNSYTWa2vtEyfXTh6OjE42vgLl26GBgYgI3JBpm779y5c+FoOLBw4UIZWW9t/UPDS7fY4hDRaeYeuz8uhibklMqt/y2sqGGdr9A0/5CTZ1iy3NawoZPNPTRpFMuNRSt05xqWlA+1KQMiIyN5ec7aATJgY2NjcDIZIFv31dXVhePgwLJly9ra+L9jkrS3e9xMZk+TxK7Ze+0NPG+l5JfLzoZR527iFYFG3thPMwlEk7daonGV3PIuFVXWrDzuhpWBSXppm3jfvSerDT1zc3N5XA3crVs3Ozs78DO+kaH7Xrp0CRUdDoIWGVlvemHFL2xdpnLptHuYLPbGR8Nrts5bFBqnbY5ukqrrGqHlZIlE0o78nq0JptbIDSYO/rEyWk5WVVU1evRosBDO9OjRw8PDA1yNV2TlvomJif369YPi07JkyRLerbexqeWEa4iqpblXeu2z9eN9I52Hza2n3ELZUm9xCXXrZz3C5OPBmUWV81muWQ5aftRFRosampqaFi1aBEbCmV69evn5+YG38Yes3Pf777+HgtMyefLklhae57gm5pSyKTPKp11WvrzfRKcWVMzZx4a8YtXojaZoHFwr+/wt6BYN3flhv84kvYauMzLzvt0sg/X9Eolk/fr1YCec6du3b1hYGNgbT8jEfU+fPg1FpuWbb76pq6uDWuQD1LqGl26xIa/yaZv5Vd43G3b0j2UPFZVA47TNra/ekcNCNffQJDYtgIvmH3LKlE2aaH19fTAVzrz33ntxcXFgcnzAv/tGRUVxnHXWv3//0tJSqDw+KCyvWXz4AtbeTEqg9QaX+d0e50Fjs5YBm9isVJq23fryrRRZZ6xMLaj4aZct9tNM0gvdvthdj+H9/RHCyMgIrIUzaFiYlZUFVscZnt23uLj43//+N5SUip49e/KbSDI4PmfsZpaQSAm1/KhLA6/DGtSBstyiyqqFuk7hKQXQ0rKhtv7hRiNv7HeZiPT7ac/yaj6fenZgZ2cHBsOZKVOmFBUVgeFxg2f3PXjwIJSRCjU1tZs3b0KFcQbd7RpdDh+kgTcwkxJo1l67Kl6z51yNTGfLvpVemmcu5ZbKMPEhGrmhARx7w8VFE3QsZLEm2PXiRbAZzvz6669geNzg031DQkJ69OgBBaTCwMAAqoozdQ1NmmcvYe3KpByass2Kxw292yQSfedg7CeYlFXD1hsbXrrF71MTjKi0okksESkHoSHTHxdD+X2phODRgPft2we2xwHe3LekpGTEiBFQNCoWL14MlcSZypr6xXrOWIsyKYfQCJXHvVPqH7IXvaqo6Tts/KIz4SSQAWVVdYt02VwTTlp1wq2imufE/ucvXAC/4Ya6urq1tTWYHy28uS8atkK5qBg4cGB9fT3UEDeyS+7/sJNNf1BOoZvia1EZ0NKcQXdpS9hdmgprg5HX3fuySrqEhtfaJuw1MCdN3mYVn30XKpQnLjg7g+two2fPnkFBQeB/VPDjvhkZGVxya7z00kvZ2dlQN9yISisawzZ9U16Ze9+GluZMVsk9NAB6MjiTCmrURlNH/1jeF611wF5qcNcQTSO76zFQoTzh4OAA3sON//u//0tOTgYXJIcf912zZg0Uh4pLly9DrXAjIrVguBZbdae02mF5ja/1CMl5ZSzFN9NjLT/qIrvZWOcD49k8LI7Scwxq4TUjx9mzZ8F+uDFu3LjCwkIwQkJ4cN/AwMCuXbtCWchZvXo11Ac3bqcWsjmrSqy5+x0aeEqjH5tVwh6QMGFCN+4yWm+KCE8pYKccR6084cZvAlGOK3Qes3btWvBCQri6L8fJVv3796+t5eG9C7Ne5dboTWZ8bagenlzAThWm5+n3056lVfyvN0WkF1awNx0cNXuvfWE5n3t7b9myBayIG4aGhuCIJHB1X45pRIKDg6EaOBCTWcweOCuxBmkYBMXxMy0A3aWxU4Wpc6FBqld4KpwxvFJR/YAl3eOoSVstk/hb8tDe3r58+XJwIw707NmTIgs0J/ctKCh4//334ffJ0dHRgTrgQO7d++O1zbEWYlImnfEIg8bmxp2MYjbqZZJSOqY+VTLYKOlBY/Pqk+7YbzERCV3FwfE5UKGcaW5unjBhAngSB7799ltkiGCN0sHJffX09OCXyfnkk08ePnwIFUALupdkqQGVW8uPufKy6D4u++6ojaZYcCamTjR5q2VoYi6cQPzR2NSy3uAy9ltMRBqsaXj5VgpUKGdqa2u//PJLcCYOaGpqgjVKB7375uTkcFllxP2Zc/3DZvYYR7k1eqMpL695ctgDEiYqySjpUktr23aLq9hvMREJNY2DfyxUKGdKSkreeustMCda1NXVL1++DAYpBfTuu2fPHvhNcpYtWwYHTYtE0r7uLLt/VHJdjeRhv42K6gcs+woTF/32h8e9Gn5yAT0G9WCH7AOwH2IileGlW1ChnImNjeWyeKeDgQMHSv/8mdJ909PTe/fuDT9ISPfu3VEEOGJajC+HY83ApGTaa3MdGpsDNfUP5x1wwCIzMZFq6nbr2KwSOKt4QtLeftyF5eLgKr7mhSC8vL3BpTiAxqUdLvlCKN138+bN8FPknD17Fo6VltDE3EFs5yKl1rTt1rUNTdDetLS2SX4/7YlFZmKi0xBNI4srkbwvCLa7HoP9EBOpTrnxtjOerq4uGBUtr7zyyp07d8ApO4XGfZOSkl599VX4KUI+//zzlhZOu4sUVtSw/XqVXuHJPGzFetDOHwvLxMRRW818HjTyk/XlMed8o7FfYSIVXwbc3t6+YMECsCtaFi5cCGbZKTTuq6OjAz9CTkhICBwlFc2tbQt1nbB6Z1IyHbIPgPbmgL0fG1IwyURz9tnznpbS5tod7FeYSHXanR8DfvDgwcCBA8GxqOjSpcuNGzfAL58Psfvm5ub27dsXfoSQn376CY6PlrMeYViNMymZfthpy31sEZaUP1iDZdZlkpXGaZtHpRXB2cYTZt63sV9hIhVfu7AUFBS89tpr4FtU/PDDD2CZz4fYfY8fPw7hyYmLi4ODoyIhp5QlK1d6hSRwXWFZWlU3ge2gwCRjDdE0uhiSCOccTxixyaSc5RTAyWUe4+vrC75FhZqaGooArvkcyNy3pKTkk08+gfCELFq0CA6Lisamltl77bGKZlIybTD0gvampbmlbdkRFywsE5OM9MfFUH7nYbHHexw1SMPAMywZapMb2tra4F5UzJ49G4zzOZC5r52dHQQmJyOD06bohx0DsVpmUjKN0DIpucc1twZbQ8kkZ223uNrU0grnH2eQles5BmE/wUSkwZqGvGSGb2pq4vICuEuXLhEREeCdz4LMfUePHg2BCeG4jWB89l22xEjpZeUTBe1Ni39MFhaTiUkOWnHM9X5tA5yFnEEGzAYbHDVsvXF0RjFUKAciIyPBw6jofPNBAvelfg6upqZWWFgIR0NOm0SySJdllFRyzdln38xt9+ziyhq2hSqTojRj97m8Mt4mQksk7Tstr2E/wUSkCToWvOSpXbNmDTgZOb169crNzQUHfQoC9124cCGEJGTVqlVwHFRcCIrHqpVJ+XQrOR/amwp0i7byuBsWk4lJnhqvY5GSXw5nJGda2yQsmS5Hzdprx31D/vLyci4ZKM3NzcFBn0Ja983IyHjllVcgHiGJifQzA6tqG8ax/PjKru0WV6G9aTHxisBiMjHJX2M3myXklMJJyZkHjc3ssR9HLT/m2tjEKb8TgsumBtOmTQMTfQpp3ffEiRMQjJCpU6fCEVBxgKUrUnaN3GBSWlUH7U1FemHF0HVGWFgmJoUInc8RqTxkauugsqb+p11sjxBO2mXly3Faek1NzUsvvQSWRki3bt1SUlLAR/+OtO47ZMgQCEZIQAB93qKcu/dZzgSll61vNLQ3Fc2tbfMPsfRnTALS8PXGQXG8bf+ee/c+e/7HURw7GcSOHTvA0sg5duwY+Ojfkcp9g4ODIQwhAwcObOdw16Ft4oNVIpOSaep2a47PhQwv3cJiMjEpXEM0jXxup8E5ypnYzBLk6NhPMEkvNIq7mZQHtUkF8kE1NTUwNkKGDRvW4aQYUrmvhoYGhCHE3t4eyk5Oan45W2Wk9OKYLSir5B7q5rCYTExCEOq+XIN5S4blF53JHgRy0djNZvll1VCbVCxevBiMjRBk27dv3wY3fYIXu29BQQFdYudevXo1N9Mn7NVge8Mpu2busWttk0B7k9Pe/t9VJ9g8Zybhil8DdgqIw+IzEWnufocGDk/arl69Ct5Gzo4dO8BQn+DF7mttbQ0BCNHR0YFSkxOVXoRVHJPy6VoUp/RnXuGpWEAmJqEJGbDHTX4SHyKOOLE0WJzEZf+01tZWNKQEeyNkxIgRYKhP8GL3/emnnyAAIVwWGrFN0ZVeC3WduCTIrW1omrTVEovJxCRADdYwvBqZDicuN1rbJL+d8sDiMxEJDe2gNsnR0tICeyOkW7du2dnZ4Kn/4wXum5OTQ7fMd+jQoVBecrJK7rE3vkovjpMg2CCASUQarGnoF50J5y43auofzthzDovPJL0WHHKSSCjv+7kknjx//jzY6v94gftaWVnBVwmxsLCA8pKzz9YPqy8mJdOKY65cVuClFlSwGShM4tLQdUahiVx3z+wgs6hy1EZTLD6T9OLyKGLAgAFgcoSsX78ebPV/vMB9582bB18lQV1dvbqGMsFmRc2DYWxuvbIrNrME2pscdN/K9hBkEqOGrzfmKxEHGkmzB4TUQsNf6rv/bdu2gc8R8q9//Qts9X905r4FBQV0L5lXrFgBJSXHwJMt31RyrTnpDo1NhcfNZCwgE5NYNELLJD77LpzK3DBmW/FzEPXbX+rdhrp06ZKWlgbm+iedua+DgwN8jxB/f38oKSFNLa3jWVYXZVdYEv2GCugMmb7TBgvIxCQijd1sll1yH05oDkja27VNvLHgTFLqgB2lSTU0NFCn3bCxsQFz/ZPO3HfJkiXwJRJ69uzZ2kq51/TVyHSsjpiUTPM5PPNB2F2PwQIyMYlOP+2yvVdTD+c0Bx40Ns/aa4cFZ5JGozeZPWym9KlRo0aB2xGCbff7XPctKirq06cPfImElStXQhnJYQuNlF5c0u+hvma8jgUWkIlJjFqo61TX0ARnNgeySu6N0DLBgjNJI+pZ6Pv37we3I+Tf//43+OufPNd9L126BN8g5MoVHygjIXfv1bKJrMqt6TttWjhsoc+2EWRSJqHBRjOHy+ExrsGJWGQmaaRjSmlVISEh4HaEvPnmm+Cvf/Jc99XR0YFvkNCtW7eHDx9CGQkx9WZ9q5LLKSAOGpucqrrG0ZvMsIBMTKLWbmuum991sNfmOhaZ6YUas8msTUKT6bapqYn61W9cXBxYbCfuO2zYMPg4CYsXL4YCEiJpb/+RbWOp1Bqnbd7wkD7v9wnXECwgE5MSyMQrAk5xDtQ/bJ691x6LzPRCpeSXQw0SMnDgQPA8Qi5cuAAW+zz3zcjI6Nq1K3ychItublA6QqLSWGJnJReXXubu/Vq2wxqTssorPBVOdA6wF8AUOke77y/dlGTEvn37wGWf577nzp2Dz5KABuMPHjyA0hFy9MINrF6YlEnIO+/XNkBjk6PnyPJKMimthmsZUw/CnsQ9NAmLzNS51htchroj5NixY2B7hCxcuBBc9nnuu2rVKvgsCePHj4eiESJpb5+63RqrFyZl0i4rX2hscpBto+4JC8jEpEyavsOGlzVI2y2uYpGZOtGojaZ0e734+PiA7RHyzTffgMs+z30//fRT+CwJR44cgaIREpd9F6sUJiUTl9SSRiynD5MKaNkRl6YWyhWoj6ltaGLpaIhUVEmTFLmwsBBsj5AePXqUlJR0+Owz3Dc2NhY+SEhUVBQUjZBTbqFYjTApk+bud6Ce2NnwsHkcS3/GpBraZ+sH5z0HItMKWQpo6RUUlwMVR0J7e/tLL70EzkdIQkJCh9U+w33PnDkDnyIBFaWtjWbtGuqXf2KznZVa5wPpFxo5+Mdi0ZiYlFjnA+Ph1OfAMWc2jUZaWVyJhFojZMiQIWB+hPj6+nZY7TPcd+nSpfApEubOnQuFIiStsAKrDiZl0nAt49p6yiXgLa1t7DEak0ppiKbRnYxiuABoaWxqmbOfLUCSStvMr0KtEYIsD8yPkMfZnp/hvl9++SV8igRTU1MoFCE21+5g1cGkTOLyMM0rPBWLxsSk9Jq81ZL7DCw0qhm6zgiLzPS05u53gCojZOPGjWB+hOjp6XVYLe6+2dnZdCt9s7KyoFCErD3FcjsrsxJySqGlCWlv/+/8Q05YNCYmVdDvpz0lEq5JsMy9b2NhmZ7W8PXGdLNSTpw4AeZHyONt9nH3dXd3h4+Q8Oabb0KJCHnY3MqyKCixFhxygpYmJyqdJWBhUl0h74QrgZY2iWTpEZcnYzI9U1V1jVBlJDi7uID/ETJv3rwOt8Xdd8+ePfAREubMmQMlIiQ8pQCrCCZl0oUg+ikkOyyvYdGYmFRHgzUMo9Iod4B/TGZR5RBN9vz5BUovrID6IiEsLAz8j5CRI0d2uC3uvj/99BN8hIRjx45BiQg57X4TqwgmpdFgTUPq/FZVtQ3srRWTimvyVstKzi+ADS/dwsIyYQpNzIXKIiE/Px/8j5ABAwZ0uC3uvv3794ePkHDjxg0oESGLdC9gFcGkNNIy8IJmJsfWNxqLxsSkgvrtlAfHF8DNrW0/H3DEwjI9qYshiVBZJDQ1NYH/EfL66693uO3f3DcuLg7+nZDa2looEQnVDxrZqnAl1pUIyo30Je3tM/acw6IxMammrK/egQuDltjMEtbTdiLjy+FQU4Soq6uDBZLQtWvXDsP9m/va2NjAv5PwxRdfQFkICUvKx2qBSWk0XMv4QSPlfoJsNgAT02MN0TTivgfDESe2T8lzdfQC5bPb1157DVyQkOzsbGS4f3PfrVu3wj+SsGrVKigLIWZsQrzyaqflNWhmcraY+WDRmJhUWfMOODxs5pQCuv5hM0tc8zztsbkO1UTI+++/Dy5ISHx8PDLcv7nvnDlz4B9JsLCwgLIQst7gMlYLTEqjkASaiQyIypp6NkuTiQnTCdcQuEJoCYrLwWIydWizsTfUESHffPMNuCAhYWFhyHD/5r50+/XTba7Q3v7f8ToWWC0wKYfGa5s3t9Ik/UbY+8Vg0ZiYmAZpGIQnF8BFQssGIy8sLBPSb394QAURMnbsWHBBQq5du4YM9y/3LSws7N69O/wjCXV1dVAWEgrLa7AqYFIaHXEKgmYmZ/FhNg2eiekZmrbduoY2ZXoHRZU1LLvR01qi5wwVRAjdAl2Eq6sr8ty/3PfmzZvwLyT0798fCkLI1ch0rAqYlEbUWQJy797HQjExMT3WLitfuFRoYbtlP61Ze+2gdghZsmQJGCEhtra2yHP/cl9ra2v4FxJ++OEHKAghJy+GYFXApBwau9mshfaxs4lXBBaNiYnpSQXH0+xH+5iHza1sR1dMk7dZQe0QsnLlSjBCQoyNjZHn/uW+27dvh38hYdu2bVAQQn4/zTZXUE5RTyBsb/8vW+bLxNS5pm63rmtogmuGCv+YLCymimviFkuoGkJWrVoFRkiIgYEB8ty/3JduwvO5c+egIISg2w2sCpiUQ+jahjYmJCGnFAvFxMT0tKjXpz5Gy4BNv/pL43Uol+2sWbMGjJCQs2fPIs/9y33ptvW9c4cmD0tN/UPs+JmUQ8PW0yfZOO4SjEVjYmJ6WoM0DGKzSuCyoSL37v3BmoZYWJXVOG1zqBdC1q5dC0ZIyOnTp5Hn/uW+r776KvwLCXQTntGpgx0/k3JovcFlaGNCWtskk7ZaYtGYmJieqTn77ZtbKGdXdKDnyLJfgcZuNoNKIeT3338HIyTk1KlTyHPBfVNTU+HPJPTr1w9KQYh7aBJ2/EzKIbp85Qi2my8TE5FMvCLg4qGiqq5x9CYzLKZqCtUDVAohmpqa4IWEnDx58i/39fPzgz+TMGbMGCgFISdc2YRnJdQgDYPyappnIQg2B56JiUhD1xnl3r0P1w8VFlcisZiqqVEbTaFGCFm/fj14ISHHjx//y33p9ldYtmwZlIIQDTbhWRm19IgLNDA5M3az2c5MTGT6/bQnXD9UNDa1TN1ujcVUQY3QMoEaIWTDhg3ghYQcO3bsL/c9dOgQ/JmEPXv2QCkI+WEnW3CmhKJ+FJZZVImFYmJikkZ+0ZlwFVHhGZaMBVRBjaeddUX93vfIkSN/uS9dFEtLmmVSrW0SNt1OKRWdUQxtTIilTxQWiomJSRpN32nT0NQCFxI5Ekn7/ENOWExV07Tt1lAdhKxYsQK8kBB9ff2/3PfHH3+EP5Nw/TpNXoW792uxg2dSAo3cYEK9s8ISPWcsGhMTk5QyvHQLLiQq2N5Hs/faQ10QMn/+fPBCQv6WbeNf//oX/JmE9PR0KAUJsZlsuZESaoOhFzQwIRU1DwZp4NGYmJik1LD1xvll1XA5kdPe/t/lx1yxmCqlhbpOUBeE0I1aERYWFn+5b58+feDPJNTX10MpSPC5nYYdPJMSyNE/FhqYENfgRCwUExMTkajvfTsIS8rHAqqUVhxzhYogZMKECeCFhDg4OID75uXlqampwZ+l5rXXXoMiEGLFXvIpo7JLKBc/bDb2xkIxMTGR6nZqIVxRVPyqfxELqDpae4py6vjw4cPBDgn5a4fB6Oho+BsJ33zzDRSBkMOOgdjBM4ldk7dZtbdD+xLRJpGMYUv+mZg4a5HuBYmE6iL8E2TeWEDV0QYjyicHX3/9NdghId7e3uC+/v7+8DcSpkyZAkUgZN3Zy9jBM4lde2n3NYrLvouFYmJiopN3RBpcV1T8dsoDC6gi2mF5DaqAkI8++gjskJCAgABwX2dnZ/gbCYsXL4YiEMImuCufvMJToXUJMfe+jYViYmKi0/SdNg+bW+HSIkdls70ecQqCKiCkb9++YIeE3Lp1C9zXxMQE/kbCfzZtgiIQMpkl01c6FZbXQOsSsvK4GxaKiYmJWjbXaDade4xqXo/UaYLU1dXBDgmJiYkB99XT04O/kaCrqwtFIKG9/b9DNI2wg2cStSZttaR76fugsZmdDExMPGr0JrPquka4wMi5Ea+Ka3/PB8bB8ZNQX18PXkhOeno6uK+2tjb8jQRTU5rM1LVsZ1+l0xYzH2hdQoJV8lJnYpKpDDzD4AIjB91Gq+CbQZ/bNO/LCwsLwQsJ6dq1a0lJCbjvr7/+Cn8mwc3dHUpBQmF5DXbkTGKXvR/lSt/jLmxfIyYmnjVyg8n92ga4xshRwXwMYUn5cPAkxMfHgxcS0qdPH2S74L6zZs2CP5MQHBwMpSAhMacUO3ImsSsxtxRal5CFumz+HRMT/zp5MQSuMXJa2yQ/7VKtXXDoerDAwEDwQkI++eSTv9x3zJgx8GcSkpOToRQkhCbmYkfOJGoN1zKmS+/8oLF5sAbbbIOJiX+hq7Ki+gFcaeScD4zHAiq36CaNul68CF5IyNChQ/9yX7olw+iLUAoSvMJTsSNnErXWnKR5AYEITy7AQjExMfGloxduwJVGTsPD5rGbVSgHTm39QzhyEszMzMALCZk6deqf5vun+9ItGa6poblfcPCPxY6cSdQy8KTcX8XUOwILxcTExJeGrTcuq6qDi42cPy6GYgGVVdRb6x8+fBi8kJBFixb95b7vvPMO/JmElhaaTSUtrkRiB88kagXGZkPTErL2lCcWiomJiUdxeft7916tiuzCPmcf5faCGzZsAC8kREND4y/3feONN+DPUqOmpgZFIMTAMww7eCZRC12l0LQktLZJRm4wwUIxMTHxKHSJcVn7q23igwVUSv1+mnKLhTlz5oAdErJjx46/3LdHjx7wZ6np3r07FIGQ4y7B2MEziVfjdSzo8myk5JdjoZiYmHgXdRYnxJ2MYiyaUmqfrR8cMCFDhgwBOyTk+PHj4L7FxcUU2wu++eabUARCDtkHYAfPJF5pnr0E7UrIhSDVmlTJxKQQjdM2r3/YDFcdIejGeu5+Byyg8snocjgcMCF0m+Ij7OzswH2zs7PhbyS8//77UARCdln5YgfPJF4ZXqKccoXuN7FQTExMspC9XwxcdeSowiRZ1+AEOFoS2trawAvJ8ff3B/dNTk6Gv5HwxRdfQCkI0TZhW6krj6inXM07oPz31ExMQtC07datbRK48AipftA4fL0xFlDJFByfA0dLQlFREXghOYmJieC+UVFR8DcShgwZAqUgRPPMJezgmcSru/dpplw1NLWwPBtMTHKTX3QmXHvk7LS8hkVTMqXkl8OhkhAZGQleSEj37t07kjw/ct+QkBD4Mwnjxo2DUhDCdpRTGo3XNqebcsV21Gdikqd+1b8I1x45Sr/pL920cDd3d/BCQj744IMO60X8w8/PD/5MwpQpU6AUhCzRc8YOnkmkos5ypWp57JiYFK7kvDK4/AhBd9hKnPZ5zCYzOE5Czpw5A15IyIgRI8B7kfteu3YN/kzC1KlToRSELD58ATt+JpGKOpUdm3LFxCRn7bb2hcuPHBMvpU1Lh0aDcJCE6OjogBcSMnv2bPBe5L5Xr16FP5NA7b6LdJn7KolcgxOhUQn5+YAjFoqJiUmmGrbeuIo280ZuaRUWTWm0w/IaHCQhdBsDItatWwfeS+2+06ZNg1IQwtxXaRSTWQyNSkJzS5uKZLBjYhKUuCw9WnrEBYumHDKmXez7+eefgxcScujQIfBe5r5M1KKbrZBZVInFYWJikoPm7LOnmyaJOB8Yh0VTDl2+lQJHSEJ7e3uXLl3ACwmxtLQE70Xu6+PjA38mgdp92YbqyqHJ26ygRQm5GpmOhWJiYpKPojNonlchKmoeDNLAoymB6B7glZSUgBGSExAQAN5L7b7Tp0+HghDC3Fc5pEGbmtzocjgWiomJST7iMvdq+TFXLJoSqKL6ARweCXTLdDvIzMwE70Xue+XKFfgzCdTuu+AQc19l0HGXYGhRQliyMyYmRWmElgl12mdb32gsmtg1XMtYQvUs3sbGBoyQkLfeeguM908o3feHH36AghDC3Fc5dCEoHlqUkBl7zmGhmJiY5CbviDS4FAkpLK/BQoldiw9fgGMjZPfu3WCEhAwbNgyM90/+4e3tDf9CAnNfFVdYUj60KAmNLMckE5NCpXmGcl8yxJx99lg0UWuvzXU4MEIWLFgARkgI+iIY759Qui/1el+W60o5hG6EoUVJSC+swOIwMTFhQneoU7dbLzviom3iffTCDUufKI+byb5RGaGJuXcyitMKKworakruPUNZJffQv0alF0WkFgTEZKFhrqN/rOGlW4fsA3RMfVafdJ93wGHsZrPKmnq4IAnRd1aq3dltrt2BAyPku+++AyMkZMuWLWC8f0I562rs2LFQEEJYnmcl0BBNI7pdU/yiM7FQTEwqrkEaBnP222+3uGrmfRtdIJlFlc0tbXDByAbqdUchCblY4UUtdDcDB0aCRCKhXm5kZGQExvsnjyZAw7+QMHToUCgLIRqnPbEqYBKdZu+1h+YkBN1sYqGYmFRQI7RMUE9o4hURlpRfU/8QLg/BU/+wGd15Y8ciXhVX0jzAy83NBRck58qVK2C8f/KPsLAw+BcSvvzySygLIf8xZlNeRa8NRl7QnITsP+ePhVKIhq83RqONNSfdd1n5/nEx1O56zKWwlICYrKC47Ki0oo6He7FZJeh/34jPQX/3DEu294vRdw7ebOy94JDTmE1mWEAmJmk0easlugTQGdVAO/FY4SxTlqRXIzeY0E149vammafcQUpKChjvn/wjOjoa/oWEAQMGQFkI2WZ+FasFJtHpuEsINCchK08o4L3DqI2mq0+6H3EKcgqIC08uQDe8Egnto7f/UVXXeDMpz9Q7Yr3B5XHa5tgvMjE9qYlbLNFNXnphBZw9YuaY8w3s6EQqdBsBh0TIsWPHwAUJef3118F1/8c/kpKS4B9J6NevH5SFELa/jRLI3i8WmpOQSVstsVCy0GBNwyV6zqib8ApPzS65z91rOwfdQOfevW9z7Y6y5sJlotNgDcPNxt5BcTktrbJ9jytP0DWFHaZItf+cPxwSIcuWLQMXJGT48OHguv/jH1lZWfCPJLz66qtQFkL0HIOwWmASnfyiM6E5SahraMLi8CjU0y3Wcz7lFhqamId+CH5S7ty9V+vgH7tCGbMCMUmvoeuMDtr555dVw2mhRChNnnbqPSe++eYbcEFCli9fDq77P/5RVFQE/0hC165doSyEnHANwWqBSXRKzC2F5iRBFtfteG3zXVa+vlEZQpu6kpxXtt3iKtvNSdU0bL0x6uLKqurgPFA6ZHoPLU+FJxfAIZHQ1tamrq4OLkjI4cOHwXX/xz/Q/yErhX8nAYpDiIHnLawWmEQnuvWCoYm8LVf4aZftafebMZnFbRKahU9yo7iy5rhL8MgNJlj5mZRSmmcv5ZZWQdsrL2M3K8Osw6raBjgeEugeFXfg6uraYbqPeeS+r732Gvw7Cc3NNNP2LK5EYrXAJC6hu3u6uYKuwQlYKFJN32lzyi00Ka+MesGiQkDX+T5bP6XcIoapQ3P229ONpcTI3P0O2OGLTqgngYMh5NLly+B/5MTHx3eY7mMeuW+fPn3g30moqaFZLHUhKB6rCCZxaeYeO2hLQqgfe4zeZHbIPiAu+y6d6wuE6IxiJei2mDChm6pjzjceNrdCM6sAU7ZZYZUgOm029oaDIeTw4cPgf4S8+eabHY77JI/c97333oOPkJCfT5Ppl23vKnatOekObUnILitfLNQLteyIi8fN5IamFgghclrbJM5BCaM2mmKHySRSTd5qeTMpD1pXZRi6TvQJNyyuRMLBEDJnzhzwP0JGjhzZ4bhP8sh9P/nkE/gICTExNHPGwlMKsIpgEpe2W1yFtiRE+iSjyJ/QeEIpp4wicu7en3eADYJFr1/0L96nencoatok7Vg9iFF0OSYR77zzDvgfIb/88kuH4z7JI/cdOnQofISE69dpNohIzS/HKoJJXNJ3ptzZ98ddtliop4U+Y+8XU6u4JUPyAY3mKZ4EMAlH6B60qUWFnjY/Bh01VhViFN2m+lVVVWB+5Ojp6XU47pM8ct9p06bBR0hwcjoPhSLh7v1arCKYxCXqhzbDtYyxUE9q2RGXq5HpAp/DzCPt7WwGolhl4HlL1FMQuFBT/xCrDdFp4hZLOBhC/P39wfzIcXd373DcJ3nkvosWLYKPkGBgYACFIqGltY3t8CpquYcmQVuS8KCxGYvToaHrjPbYXE/NL4fPqRiXwlLYmmBxydz7NjSeSlJR8+DJ2hCjtAwo09Tr6+uD+RGipqaWnp7e4bhP8sh9161bB58iYc+ePVAoQqZtt8aqg0lECorLgYYkobCiBouDbsJ2WF4rotpmRJnwi85Upn1jlFtnPMKg2VSVypp6rE5EJ6PL4XAwhNANUxEDBgzosFuMR+67e/du+BQJK1asgEIR8qv+Raw6mESkhByaRFfoW48jIN/dZeWrrJOqKPC5ncZWAwtfRy/cUNXnzX+hBGPfkATKKVfIRMH8CJk1a1aH3WI8ct+TJ0/Cp0gYP348FIoQNOLBqoNJREKjWGhIEm7E53R8XfPspYyiSvgr43/YXY95XMNMAhQ6b2W9XUcn1D9szi2tSskvj0orCorLvhKR5nEz+Wn5RWcGxj7aJTM2sySr5B5yyma+N3hQAvelm6leW1sLzkfOrl27OuwW45H72tnZwadIeP/996FchJzxCMOqg0lEetBIk+PMPTRpg5FXaoEybLImI5Rm7zbl04zd5+SWSLy0qi48pcDRP/awY+Bvpzzm7LfnmKl09EZTVP4Vx1y1Tbz1nYNtfaOvRqYje65rpFlZUFEtbvedseccHAkhISEh4HzknD9/vsNuMR65b0BAAHyKBDU1NQnVDFWW7kq8Gq5lDK1ICHu/+0LaJJI1J92xCmdSuEZomWTK8mkNGlIn5JSe843WNvGZLJctODvkFkIzfbK8ug6LIy7ttvaFIyHkzJkz4HzkJCUlddgtxiP3TUtLg08RUlZWBkUjgcds+0xy1o+7bKEVlQhJe/v92oasknvJeWVRaUXhyQUBMVmhiXnofyfmlmYW36t+0AgflTFoYCGfLZCZpJdTQBw0D680tbT6RWfutbk+QccC+0X5CI2AoSgk5JVVYXHEJZcbCXAkhCxYsABsj5B33323w2uf5pH7Il599VX4LAlRUVFQNBJyS8Xdfqqs5UddoBXFSXNLW3phBer1LK5E7rLyRYczbbu1NFOOR24wmX/QEY1OrK/euZ1aKLsthG8m5WE/zaRArTjmyvvrXnSTp+cYpPCdgujyPaWIPF0S9cuvfv36ge0R8v3333eY7NOA+3722WfwWRIuurlB0UhoZkt+Rav1BpehFUVCe/t/c+/e9wpPPXrhxtIjLnylqEUn8JqT7ucD42Wxk+v+c/7YzzEpRMPWG+fcvQ+twgcJOaXaJt7YryhK0RnFUCwSotKLsDgi0ggtkxaqaWiPnJIWHR2dDpN9GnDfiRMnwmdJOHr0KJSOEGmSDjIJUNvMfaAJhU1eWdXFkMQdltdk/SJtkIbBBkMv1CXBD/NBbUOTEmwjowQy8ORtdW96YYXQXurTjQKD/7d4QYyi3iHG3cMDPI8cOzu7DpN9GnDfpUuXwmdJWL16NZSOEM0zl7B6YRKFDtj5QxMKj+bWtojUguMuITN2n8OKLQct0XPm0YO9I9Kw+Exy1tjNZrV8zHNubGrRdw4W4NO+wnKaiZCi3qTOwPMWHAYhW7ZsAc8jJy4ursNknwbcd9u2bfBZEsaOHQulI+SIUxBWL0yi0HEXyi0WZEdTS2tQXPZOy2ujBbBz3x6b67zseyNpb19+1AULziRP2Vy7A43BATTkFeymzvdq6qGUJLgGJ2JxRCS6PH2IUaNGgecR8t5773U47DMB9zUxMYGPk9C3b18oHSH2frFYvTCJQtRJ2ninTSK5mZSH3E4IpvukxutY8LLna2xWCRaZSW6atNUSjVmhJWhBfT3FUt3J26w0z146ZB9g7n0bWZ3HzeSAmCy/6Ez30CR0Q3D0wo01J915mbFFt222eNPCDNIwqKqjWbzQ0tKirq4OnkfInDlzOhz2mYD7Xr16FT5OSEMDzZ1+SAJbdCRK8TIg4EhBebXFlUghTx1A1zn1TlBP8vtpTywyk3xkzPkuE5ml9E+bF+leOO1+81ZyfrV09oBuPaMzipETD1/f2b5hnWj0JjOIRYiJVwQWSiyaf9ARjoGQqKgocDtydHV1Oxz2mYD7pqenw8cJSUqiWbKNOlCsaphEIecgytVy3EE9DhoErBZPPgruGfljM9nwVwEarGnIcSr7lYg0aax3xp5z6C6NSyKa0qo6LQMvLKw0mnfAAUIQIt6MbKjkcAyEnD17FtyOHDSs7XDYZwLui3jjjTfgGyR4XroEZSQB9aTUd21MCpRXeCo0oRypbWiy94sV4zx5U+8IOAZaVp5ww2IyyVpbzThN7E/IKR32os4NmR9fu1m3tLZpm/hg8V8ozbM0/TZCOCumSOUXnQnHQMjixYvB7Qh56aWXCgoKwF+fxV/uO3jwYPgSCcePH4cyEjL/kBNWO0zCFxp9QvvJhYLyanTHOkoRb3ZRB8rL4mCO9yvX72RiAZlkLS6v7StqHnS+yA2NOqx8olrbePDdx5TcqyGdU029eGGJnjMWSiyqpJplhnj77bfB7QgZNmwYmOtz+Mt9582bB18iYeXKlVBGQrZbXMVqh0n44mU+kTTEZpZsMPKS2757U7dbH7IPuBiSGJtVUl5d9+SElPb2/96vbcgsqgxLyncKiDto57/0iIv0O/I+yhJcfA9ikYNGNmztrzw1drMZl32BNht3NjQcs8ksLvsufJRXVh4ne0Zi4kX5VEaemah51Jz99nAAhOTm5oLVkaOpqQnm+hz+cl8dHR34EglDhw6FYhJi5n0bqyAm4SsitQDaT2Yk5pbKczm4jqkP+kUJ4catDQ+b0Y3ICdeQ6TtssIBPa8EhJy4dutHlcCwgk+y0z9YP6p2cgJgsLNqTQsPTeNlYL2LZEbL1aXRbLKB7QQEuXJZGeo5BcAyE2NragtWRY2lpCeb6HP5yXwMDA/gSCd27d2+n2nKaPVITo/hN6oSRXljxn06HDvxq8jYr7r0hsu2otKJdVr6DNTvrlbhMgc65ex+LxiQ70WU/RrS2SWbvtceiPanDjoHwUb6RSNonbiEbktId5t37tVgcsYhuSwnEL7/8AlZHTmxsLJjrc/jLfX18fOBLhJSUlEBJScgsqsQqiEn4is2kaesXknv3/jbzq3J7zow0bbt1flk1/DwfFFbUHLDzf94hjNAy4TKNdvHhC1hAJlloiKZRw0Oa7asRl8JSsGiY0F0afJRvQhOJd+agexuSkFOKxRGLqK++/v37g88Rgr4Izvp8/nLfjIwMNTU1+CoJAQEBUFISmlvaOh8uMAlQqfnl0H48UVP/UM8xSP6Ps4LjKbPedE50RvHMPXbYb3XokD3NZdLBOd9oLBqTLPSL/kWocXIW6b7gDim3tAo+yjcUb2robjL8O320LlhR76hfWFgIJkdO53k2OvjLfRHvvPMOfJUEAwMDKCwhs/Y+u59iEqzocsM+E0l7u8fN5PGK2Nx0yjYrfiedPkldQ9Mzp8AMXWdUco+y9tjDZ/mIeluF+Oy7WKinhawLPs0rftHEr/CmbreGLxPi6C/KHIXUz/wdHBzA5MjR19cHW30+f3PfcePGwVdJ0NTUhMISomNKvEyNSbEqr34AjceN9MKKX/UvYsHlJup191KCBhbPnAVz8mIIfIIcdP+ORWPiXaGJlFP6j7sEY6GelraJN3yaP6rqGpGVYj/0QlFv9SPSVBvU9z1r1qwBkyMnNDQUbPX5/M19V69eDV8lgXqvBTbtWXSqquO6hUD9w+YjTgp41PykuDwElpLU/PKnj3HMJjO65LoIafp3Jo6iezsoaW+XclUYtbs/k+bWtlVUyVioz/91Zy9joYQvdBlWP6BJ74wYMGAAmBwhffv2LSkpAVt9Pn9z32PHjsG3SXjttdegsISI9C2CKutBI+WclA5iMosVsv0fJm0TeexSvMvKF/tdpCsRafDPhATGZmOhmPjVOG1zqtUb/82QegIpMum792vha9yQSNr32fph8aUUdbZ2MT6AWX7MFUpPSGlpKTgcOTNnzgRP7ZS/ua8H7R7C5eU0k3Hyy1i2Z5GJeuyL+jW76zECmWc3WZbvfR/j8KyXZGj0AP9MSFVdozznhKugVtM+jz0fGI+F6kSz9tpRJ116DBr1cslWRPck9tFiXxHOk6XeMOOCszPYGzl6enrgqZ3yN/dNSkqCbxNCN+0Z3b6N0CLegYtJgcovo5m3iToLulzwslNQXDYUTmY8czrMEE0j6j3b5x0Q6E6xyiHquTmkRjhj97n0wgr4MjnoPkyD2+ZXdL8u0q1xYjKL4QAIWbVqFdgbOUFBQeCpnfI390W8+eabEICE06dPQ5EJEW/WUNVURApNrqus4ntYHIVr5Qk3useM0nM1Mh370Q75RmXAJwg5ZB+AhWLiUZY+UVDRhFDsnz9cy9gtJIk0wxoiJCGXY67HQRqUO/veTCJeVaxwjdpoSp1mrl+/fmBvhLzxxhvFxcVgqJ2Cu+/IkSMhBgnU2Z73n/PH6otJyKJLGZNXVoXFEYIu30qB8smG5+08Q53L8GJIIhaKiUfRnQ9c8hagsYf0I7PMosodltewCBT6YactRCSE6AG7QLTRiHKeOfWWu4jvv/8e3PRF4O7766+/QgwSBg0aBKUm5JnvxpgEK4+bydByJFTW1GNxhKAJOhbc38A9DxT5eXtoUnd/KfnlWCgmHhVO9VyH+/PYxXrOzkEJz9tXH7k7GnRuMORtxxHNM5R7C4px1j26Y4DSE0KXd7mDgwcPgpu+CNx96aY9q6urt7XRDPBvpxZi9cUkZNn7xUDLkdDY1ILFEYiWH3VpammFUvJK59ug0qXdaG5te+HGsUzUyiiqhIomISq9CItDrRl7zumY+hh4htldj7G4Enn0wo3VJ91HbuB5ZgwyUSg6IfLc+4QvUecX++mnn8DbyPHz8wM3fRG4+16+fBliEJKVRTOP7p4gR0VMzxP1xmTSb8knZ+2wvEbx+q1zPG4mY7+CifrVL+lWNkzSq7iS5pboeW/3BSuXGwlQdEKm73zxdl6CEiow3ZXd0tLSrVs3MDZCpH/pi8DdNz09nS7bs4enJ5SdELZ9qYh0wpUyW5NCMkpKqV1Wvi0cdgDE8I/JeuGLwFNuN+HThBxxCsJCMfGlquc8++0cZGZYHIHrdmohFJ2ExqYW0S14QxcLlJ6Q0NBQcDVyZs2aBVYqBbj7It59912IRMLBgweh7IRsMBTWWhSmTrT/nD80GyECX6evZeBFnYXqSbwj0oaue/EonzrV3ws30mGiVnMLzR2YzbU7WByBiy6fV3phBRZH+KLOLLZ3715wNXJOnjwJPioFz3DfqVOnQiQS5s2bB2UnxJhtHi4e6ZhSZolaLPilZTP32MVx2O63TSIxvHQLi/k8jdxggj4P3ySB7cspO9E9pTQSVfc1XMuY7j2L6LZjH77emPp+eujQoeBq5Ny+fRt8VAqe4b4bNmyASCS8//77UHZCAli+SfFo7SnK9wu/nfLAQglQQzSNTLwiHjYTz8MKTyn4+YAjFq1z5dy9D18mobVN8ryp1EwcRee+0t9yCUHzDzlBuQkxF1tO/g1GXlB0QqprasDSyPnoo4/ARKXjGe5rYmICwQipqaGZtlBYUYNVHJNgtfSICzQbIZuNO5sDLChN3GJp5RMlTUYqNIyITCtE1zkWQRp50yZ8Rk2AhWLiRargvtQZzp+ZtFzIop5c5ubuDn5GzsqVK8FEpeMZ7hsYGAjBCAkNDYUjIAGd9GM2mWF1xyRMzdlnD81GyG5rkV29ozea7j/nHxCTVfHUpoqVNfURqQVolPzjLlvsW9KLeuEHy3glI0kkNPaLTgMsjpB1xoNyA2PR3fPRzWBH/PLLL+Bn5Nja2oKJSscz3LegoIBuvvXZs2fhCAhZfdIdqzsmYWryNitoM0JEPVl3go7F/IOOy464IKGRMfavdFpBu/XKhSDxpRwShehWfotr1pVbSBKUm5Cxm8U0QEJXK5SbEIlE0rt3b/AzQrp27Zqeng4mKh3PcF/El19+CSFJQHcNcBCEnHANwaqPSZgaucEE2oyQsx5hWCgV1wgtE7rBVkxmMRaKiRc9L9tU5zgHiWnFUWQazXIjVDNYHIHLwJNyiB8VFQVmRs6wYcPAPqXm2e67aNEiCEkC8mw4CEK8wlOx6mMSrOgm61r6RGFxmPLLqqF2SKhraGJbDcpCdAnIvCPSsDhC1t17NLsLJ+aWYnEErtjMEig6Ifv37wczI0dHRwfsU2qe7b66uroQkpCHD2l2T2PrKESk2oYmaDYSzgfGYXGY/KIzoXYI+WEn/ftmpucps/ge1C8Jt5LzsTiC1bD1xnSPW8SVz2vsZjPq3bu/++47cDJyvL29wT6l5tnuS73NfkwMTR7gltY2to5CLKJbrc/SRDwt6n2/O08izUSnOxk0G8GmiScNxay9dlBoQiyuRGKhhKw9Nteh3ISUlpaCjZHTq1evwsJCsE+pebb7ZmRkqKurQ2ASrKwoZ+UsP+aKVSKTMEW3UNWfrep+StTbn7EENbIQXfLtipoHWBzBinqx/l6b61goISswNhvKTYi1tTXYGDmzZ88G7yTh2e6LGDBgAAQmYd26dXAohBxzvoFVIpMwlZhbCm1GQliSaB7QyU3Td9hA7RAiusz+opBTQBzULwmS9vbhWuJ4bkc9KFx53A0LJVg9SnH1sBnKTcicOXPAxsgxNDQE4yThue47c+ZMCEzC8OHD4VAIYROvxKKo9CJoMxLuZLCZus8QXWb/VLbRrwxk4HkL6peQBYecsFDClOElygNEt4lYKMFK24TyeVJzczP1vkbq6uqJiYlgnCQ813137twJsUno0qVLayvNsrmskntYPTIJU3S5y0U3bVI+iqZ619ggwg1nhK+dltegfgnZZn4VCyVM0aV/kkjaX7hnl3CERnFQbkICAgLAw8gZMmQIuCYhz3VfJycniE1IUhLNgm7UxqM2mmJVySRABcTQbOTMprU/U9TZD9i0Z961+PAFqFxCxJLu6kZ8DpSYhIpq0bzYRncJdIu2Ef/ZtAkMjJzt27eDaxLyXPeNj4+H2ITY2trCARGy6oRo3i6osnxu0yQoLiivxuIwIVHvl7ze4DIWiomjHuU/ocr1jK4ILJQwlZJfDiUmISmvDIsjWFFPK0PQ7avbgZ+fH7gmIc91X0S/fv0gPAnUE6/+uBiK1SaTAOVxMxkajITSqjosDhOS5plLUEGEsItFFqJbTZcsEn+qrKmHEpMQGJuNxRGsnIMod1aIjY0F9yIHuWRJSQlYJiGdue/kyZPhF0gYMmQIHBMhbCanKHQ+MB4ajIQqsSWrk4+mbbeGCiIE3QNhoZi4iy4Royiyjw3WNKRLtSGivOJ0mbwQXLbTX7p0KfglOZ25r7a2NvwCCWpqas3NNHO+88vYw0kRyNY3GhqMhIaHzVgcpg49aKS5WKLSi7A4TNzlGpwI9UvInH32WCihafJWSygrIQae4sjQvox281PEp59+Cu5Fjo2NDfglOZ25r52dHfwCIWggD4dFQnu7yHbSUE2Ze9+GBiOhTSJ5MgjTYyXnlUEdkXD3fi0Wh4m7qF/D77P1w0IJTbP3Uu4NKpZUG9ZX70CJCcnKygLfIqd79+7o6+CX5HTmvnFxcfAjhJibm8OREbL2lCdWp0xC01naLUKHrjPCQjEhXaHaZl8iaR/GkrPyrfUGl6F+CbkYkoiFEpqWH6UcGm4w8sJCCVN5ZVVQYkL09fXBt8gZP348mCUVnbkv4u2334bfIWHNmjVwZISI5SmHKot6W/gxm9iDjWfIjOpZAmLOfqE/7RSdptBuX50u+GzP1PP7VophKcpiPWcoLjlDhw4F3yLn2LFj4JRUvMB9v//+e/gdEr755hs4MkKC4nKwamUSmg47BkJrETJBxwILxYREnf9PLIMScenufZqZO20SicDTFWwz94GyEjJfDJm8zlFNRkEgjwPTIkddXT0uLq7DKOl4gftu27YNfooENTW1xkaaVc+VNfVYtTIJTYfsA6C1CJm4xRILxYT0i/5FqCBCjrsEY6GYuOv6HcptH3/7wwMLJShRX7aiyOtSVEmzNzPCxMQETIsc6hRXj3mB+54/fx5+ipDbtymfp7EkPgLXQTt/aCpCJm+zwkIxIaGbEqggQs4HimYpiIj0x8VQqF9CDC/dwkIJSqfcKI9L+C+MqF9pIyZNmgSORc6ePXvAJml5gfsmJyfDTxFiYGAAx0fIDstrWOUyCUoHaN13CnPf54hu0dGNePaahn9RP4qISC3AQglKFlcioaAkSNrbB2sIPcmzvR/NEhtEdXW1mpoaOBY5t27dApuk5QXui3j//ffh10hYsmQJHCIhjv6xWOUyCUr7bP2gqQiZtt0aC8XUoYyiSqgjEthOR7LQsPXGzS1tUMUkoG+N0DLBoglH5wNp9k9E94VYHKFpkAblq3oElw19Bw4cCAbJgRe7L91Wg++99x4cIiHx2Xex+mUSlKhnCbF3Cs9TUBxN+vv7tQ1YHCZeRLeDNULIybcvhaVAKUkoE3yC2JXH3aCs5EyZMgXsihxtbW0wSA682H337NkDP0hIeTlNUm90C8kWMgpZu619oakI+XEXc99n60IQTfLO9vb/DmdXigxEN0xECPm5Hd3We8LPP0h37SDu3bsHRkWFv78/GCQHXuy+Fy9ehB8kxNv7ChwoIcuOuGBVzCQc7bKidN8Zu89hoZg6RJ3AZMYeVqX8i3pxTs7d+1go4cibKqlLXlkVFkdQGqxhWFHzAMpKiLm5ORgVOf/3f/8H7siNF7tvZmZmly5d4GdJQINmOFBC2FIKIWsH7SbkM/fYYaGYOkR9Q7PmpDsWiom7xmmbt0kkUMWECPb1Cp375pYK2n3R+Q8FJWfChAlgVOT89ttv4I7ceLH7IgYOHAg/S8LEiRPhQAlhmx0JWdvMr0I7ETJ7L8vN9GytOkH57mqPSHLwik6JOZSvfg/ZB2ChBCK6hKYCd1/30CQoKCFlZWXgUlR4enqCNXJDKvddsmQJ/CwJ3bp1a2ujmT1YWFGD1TKTcET9XI5lRnyeftxlC3VEyBkPlplVJqLbSgQh2Gx9lO4r4Gfpw9Yb19Q/hIISYmRkBC5FzltvvVVUVATWyA2p3PePP/6AXyYkKYnm3qS9nWUlFK50TCndd94BBywUU4eGrjOSoJOeHLvrMVgoJl70K+2q34fNrcJMOelzm8Z9hfwme6sZZUeEGD16NFgUOStXrgRf5IxU7nvjxg34ZUIsLSnz+GibeGN1zSQQUbvvzwccsVBMj1VdR5OZ1TsiDYvDxIsGaxrW0o6rtltcxaIJQXTuK+QnzzfiadbpIUpLS8GfqODrsTNCKvctLi7u1asX/DgJq1evhiMmhN3UC1Y72awrGQgNMqCaSLiVnI/FYeJLATFZUMuE+EVnYqGEoMu3aNb7lgp1ve94bfPmVprXmogzZ86AP5HTr18/5Ibgi5yRyn0RY8eOhd8n4YsvvoAjJoTl3BCsqHNdTd9pg4Vieqw7GcVQTSSkFgh9YzvxSteBci+vhqYWASa9Oh9Isy62tv4hFkcgOnrhBhSRnOHDh4M/kbNmzRpwRD6Q1n03bdoEv09IbS1NGrDmljaWSUCYou6VJm1lexw9V3Rb6wg/FZF4hW4Wqd7FP0LH1AeLpnBZ+URB4UhobZNgcQSiBNpJ6QUFBeBMVHh7e4Mj8oG07mtnZwe/T4ifH+VQaeVxEezqrII65kx51zl2M9td/7miS9nT1NKKxWHiUcl5ZVDRhAhwzaSBJ2VGl+FaghsFzdh9jvrGSFdXF5yJnP79+5eUlIAj8oG07puSkkK3HcT+/fvhuAk5y1ZTCFLUW7AJOQe9wmXiFQHVRIgAO0elEbVj1TU0Ce3RHfWjWgE+sqJeD4b46KOPwJnI0dTUBDvkCWndFzFgwAAoBQnUOTeC2QZqgpThpVvQQoQIf6syBYq6c2S7JstOXMZY28yF9fCZenMUAU6WLCivhsIREhkZCbZExbVr18ALeYLAfefNmwelIKFLly6tra1w9CRUP2gcpIHXO5PCZUZ14ynYF0gCEXWySZbDRKZKL6yAiiYkNDEXC6VYaZt4Q8kIEVrWfeql2AgtLS2wJXI++OADfh87IwjcV09PDwpCSGws5e7HrGcRoKyv3oHmIaGxqQWLw/SkNhh5QU0RsvyYKxaKiUdRvxFok0gE9Vjitz88oGSEoDMTC6VYUWeXRIPA3r17gyeRg5wbjJA/CNz3+vXrUBBCDA0NoQIIEWzSVFWWvR/NvZRgly4IRCtpUz1rnr2EhWLiUWgAABVNzsmLIVg0BernA45QLEIO2vljoRSoEVomdQ1NUDJCvL2vgCFR4efnB0bIHwTuW1RU9Oqrr0JZSFi4cCFUACGXb6Vgtc+kcNHNzmVbwXeu+YecoKYIEWZmJWUSXSIURFqhgFZjT9CxgGIRYuB5CwulQFEnG0DMnz8fDImcTz/9FFyQVwjcFzFmzBgoDgl9+/aFCiBE+Hs7q6DcQmie/Ag2aY5ANH2nDdQUIQeENDRRSllciYS6JmfBIScsmqI0SMOgtY1m20RH/1gslAIVk0mTlAZRW1urrq4OhkTOjh07wAJ5hcx9tbW1oTiEFBQUQDWQ0N7+34lbWIoGYckrPBWah4TCcrZvVWcar20ONUXIEacgLBQTv5q915565rO9n4Csq7KmHopFgnDWLs/YQz8F3crKCqyIHDU1tdu3b4MF8gqZ+164cAFKRMgFZ2eoBkK2mAkua4yK61pUBrQNCULeLEUIGqFlAjVFyCm3UCwUE++izqx0r6Z+6DojLJqilFFUCcUi4XZqIRZHUbK5RjPfswO6p7YdjBo1CvyPb8jcNzMzs0uXLlAoEtavXw/VQMj5wDisDZgUq9DEXGgbElhG4s41SMOA7r7e+HI4FoqJdx1xCoLqJkc4L+YjUmkeQGaXCOK+ebCmYUX1AygTIfn5+eBDVPzxxx/gf3xD5r6Ir776CgpFwtdffw01QYigZi4wIcVmlkDbkBCVXoTFYcLU3EKzZ4vFlUgsDhPvGrvZrKmFJmkBIipNKGc+3SaDtQ1NWByFaKMR5XplxIEDB8CHyHnppZfS09PB/PiG2H1XrlwJ5SKEbrsFiaSd5QcWlOieX91gmcteJLqlFPZ+bC9OeYh6w8H2dqHkLTjnGw1lImT0RlMslPwVFJcNpSFEIpG88847YELkzJo1C5xPBhC7r4mJCZSLkOvXKVOdobserCWYFKjiyhpoGBLQfTcWhwnT/doGqCwSzgfGY3GYZKHNxvRjL4FMGz7uEgIFImTeAQcslJw1QceCejdff39/cCAq7OzswPlkALH73rlzB8pFyO7du6E+CGE77QtK1Q8aoWFIcLmRgMVhwnSPakoqc1/5aIimEd3tEaKm/qEQNsPQMfWBAhGy7uxlLJScddr9JhSFnEWLFoEDkdOnT5+CggJwPhlA7L6I/v37Q+lIGDlyJNQHIYm5pVhjMClQLVQ3oTbX7mBxmDDRLQi5EMTcV046HxgHlU7OPls/LJr8teyIC5SGEIXnHMwtrYKiEFJVVcVlme+qVavA82QDjfvOmjULSkeCmppaQwPNzWNrm2SUAF48MCFRL4wxvCSgjDnCVEUNzZRO9lBBbpp/kDJZIyIxR/FDiMlbLaE0hJh738ZCyVPUGaoRhoaGYD9UXL16FTxPNtC47+HDh6F0hAQFUU7cZ8lsBaLpOyhTMh29cAMLxYSJbkGFazBzX/kpLvsu1Ds5KxS9H8YgDQO6t6eeYclYKHnq+p1MKAc533zzDXgPOR9//DEYnsygcV8/Pz8oICEHDhyAWiHEyicKaxImhWjx4QvQJITstLyGhWLCVF5dB5VFgmtwIhaHSXai3iUXIYSkUSX3aKZMRqQWYHHkpolbLKnnW8XGxoLxULFz504wPJlB477FxcW9evWCMpIwfvx4qBhCYjNLsFZhUog0z1yCJiFE47QnFooJE92kHvbeV54att64qo5m1iGitU0yfacNFlDOolusn1dWhcWRm4wuh0MhyFm/fj0YDzldu3aNi4sDw5MZNO6LmDp1KhSTBHV19YcPH0LdkIBuf4QwaZAJDWGhSQhZpHsBC8WEqbae5tIQVCZhVZC9XwxUPTkKn3uIxt9QFBIeNrdiceSjQRoGRVTrGxHIaF5++WUwHnKQwYHVyRJK992zZw8Uk5CwsDCoHkJ++8MDaxsm+UvfORjag5Bp262xUEyYGptaoLJIYJPJ5ayZe+wktMn+0Q3WyA0mWEB5ijpV8gQdCyyUHLTByAt+npwLzs5gOVRYW1uD1ckSSve9coVyp2I9PT2oHkIUO++OqUNm3rehPQhhjy5eKLoN4Nh1IX/RJUzuQM9RkXtSUSesXqLnjIWSg0ISaFLKdzBhwgSwHHL69u0r02W+j6F038LCQrqd9qdMmQLVQ0hMZjHWNkzyF93W+g1NLVgcJkyDNAygsggxYrssyF1bzCjTViBy795HbY0FlJuoR5M6pvLea276ThuJhPIZQ0ZGBvgNFZqamuBzMobSfRHjxo2DwpLQtWvXlhaaJ2wtrW1s1a/C5RdNM/ufba3/Qo3eaAqVRcgpt5tYKCZZa7Cm4d37NFnrO9hg6IUFlJvmH3KCQhBywjUECyVrWflEwW+Ts3nzZvAbKoKDg8HkZAy9+27fvh0KS0hUFGW1KjzhGRPdeke2veALNW27NVQWIYcdA7FQTHLQGQ/K+SsIBT7Go77Jk/PkviGaRnTJZxCNjY2vvPIKmA05Q4YMAYeTPfTu6+npCeUl5Pjx41BPhJzzjcYaiUnOottiISQhF4vDhGneAQeoLELYQmqFaMwms/qHzdAG5Kw87oYFlJtqqbbS8ovOxOLIVNvMr8IPk3Pu3DlwGipOnjwJDid76N03Pz+/R48eUGQSpk+fDvVESHJeGdZITHLWw2aaXU7dQ5OwOEyYVhxzhcoiRIGPMVVcLjcSoA3IUeCGm5nF96AQJMg52X5sFs265A7Q4BWchhw0aM7IyACHkz307osYPXo0lJqELl26NDfT3DZKJO3jtM2xdmKSm1DlQ0sQwublvlCaZynTmKw8obBRlIpr9l576qVH6HvzDzpiAeWj0MQ8KAQJFTUPsDiy0wLal9OIhIQEsBkqFi1aBN4mFzi5r7a2NpSakFu3bkFtEaJtwvb6VZiop2ywd5Mv1G5rX6gsQlBXhYVikptCE+mXxHiFp2LR5CPX4EQoAQnoPmPYejktGkQ1A79Kzm+//QYeQ4Wnpyd4m1zg5L6urq5QakIOHToEtUXI+cA4rKmY5Cbq8dlGI3bP9AKdvEi58/lUlsZEcdI47QnNQE5rm+THXbZYQDnI8BLlyGfGnnNYKFnoUWLnFsrEznV1dd26dQOPIefTTz8tKSkBb5MLnNw3JyeH7mjHjRsHFUZIVsk9rLWY5KYDdv7QDIQsPeKChWLCZH2VJglRe/t/5TYiYXqm6F6jduAUoICxBPVTlt9OySPboIlXBPweOUZGRmAwVOjq6oKxyQtO7osYPnw4lJ0E6r1+UXczeZsV1mBM8pHFlUhoBkJYk71QHjeTobJIqK1/iMVhkrP22fpBY5DT1NIq/wysK0+4wc8TstfmOhaKdz1aaES1z2YHAwcOBIMh5+WXX05PTwdXkxdc3Zf61W9AQADUGSFsiYWi5B2RBm1AQktr22ANQywUEya6pHqF5TVYHCY5CxkGl8wbjv7y3iTjh5228NuEnPEIw0Lxrl1WlONyRFhYGFgLFf/v//0/sDQ5wtV93dzcoPiE7N69G6qNELZ8RVGi256sqJI5xIuVXXIf6ouEuOy7WBwm+euEK+U7e0RzS5uch7+DNQ3pMjjK4UYhMbcUfoyc+fPng7VQce3aNbA0OcLVfQsKCug2cho6dChUGyGFFaw3V4zo7vGj0oqwOExPq4FqgyP/mCwsDpP8NXKDSTXtpr8I+b/9pdtJ2jcqA4vDr5YecYFfIqekpERNTQ2shZyvv/4a/Ey+cHVfxNixY+EgCKmuody7UT6z75ie1BBNozYJzSY8nmHJWCgmTJO3WkJlEcKyvwlE5rR7fyHkP/zNKKqE3yYhOkO2CTLp9h7uYOfOnWAqVPzxxx9gZvKFB/elPnJv7ytQeYQodpcu1RS644HaJ8TEKwILxYTpV/2LUFmEHHFiF4IgNF7HooFD4kk5L6S8lZwPP0xCflk1FodHoRvQ5lbKhUaNjY09e/YEUyGnV69e2dnZYGbyhQf3pd7rV1tbG+qPkAD2wE3uWnuKcmmjHKZKil3Ui0DYviPCEXJQaBVy5Dz8vXwrBX6YhAeNzVgcHkW34q4DKysrcBQqVq9eDU4md3hw36KiInT7AIdCwldffQX1R0htQ9NgTTaNVq6iXlmxiqVCfJGo1zjO2muHhWJSlKbvtGmhHb0hzgfGYwFlJ2qrG7nBBAvFix69OH9A/+L8yy+/BEeh4saNG+BkcocH90VMnToVDoWQykqaNxCIX/UvYk3IJFNRO8T0HTZYKCZMdGMRiaR96DojLBSTAuUemgRtQw4a/srtStF3DoZfJeSHnTJJzsVl0jjyTvASKkaNGgUepgj4cd9Dhw7B0RBywdkZapEQlrhfzqLrWdhiX2kUnVEM9UXC3fu1WBwmxQqZE/XLS4Tchr/U+/ctPnwBC8VdgzUN6fYt7WD27NngJVSYmpqChykCftw3MDAQjoaQlStXQi0SEs9WOspXdDM17t5jDvFiVVGtALkj4zmoTBRyCxHB8Pd32vTUa095YqG4i0uGjYKCAjASKvr164cigIcpAn7ct6Sk5K233oJjIqFv377tVLt0tUkkYzebYQ3JJDvRpYOIzSzB4jBhmr7TBiqLkMu3UrBQTAoXx+HvhSB5DH/REBZ+j5Bt5j5YKO5KziuD6ORs2bIFjISKbdu2gYEpCH7cFzFr1iw4JkJSUmheeiG2mvF/KjA9T3T5BK7JeIW+EkjbxBsqixC2lEuYuhhCs4VfB/IZ/v64izLZpK4Dz1uFUo/CEQ0NDa+88gq4CDndu3dPSEgA91IQvLmvvr4+HBYhp06dguokxC2EpZyUn+jmc9pdj8HiMGGiTtSgY8ruPoWo6TttuAx/XW4kYAF51+iNpvBjhBh48pzqOSyJ5n1WB6ampmAhVCxcuBCsS3Hw5r7h4eFwWIRMmzYNqpMQ9k5RbhquZQyVTshZ2WdmF7vo9ldAyGgCKhN3cRn+ottcOSwko7uZtuU1t9rPBxyp3jo+QiKRDBgwACyEiuvXr4N1KQ7e3BfxwQcfwJGRoK6u3thIudiLrXeUjyZvs4IaJ4QlY3qhyqvroLJIqH7QiMVhEo6mbrduammFpiLnamQ6FpB3VVG9SOJ3h5srVHumdeDu4QH+QcWIESPAtBQKn+67YsUKODhCqHcbPOZ8A2tRJllozn57qHFCdln5YqGYntQEHQuoKUJupxZioZgEJddg+uGvpL19iZ4zFpBfFZRXw4+R4HM7DYtDrek7OCUnodtX/jEWFhZgWgqFT/elzvi1bds2qFRCQhJysUZlkoWW0W4/stHIGwvF9KTWG1yGmiKEvVAXuDgOf28l52MB+VVm8T34JRL8ojOxONSy94uFoORw3Mr33XffLSwsBNNSKHy6b0ZGRrdu3eAQSaBOOdnQ1DJ8vTHWrky8i3obgN9OeWChmJ4Udc4/9lBB+HINToDWouL30/wvrn2slPxy+BkSguJysDh04rgpxYwZM8A5qNi9ezc4lqLh030RQ4cOhUMkpLSUcl9lzTOXsKZl4l0rj7tBdROy+qQ7ForpSSXmUJ72s/faY6GYhCaOw19kkIM08Jh8KT77LvwMCWFJ/IzILa5EQkRy0BgPPIOKHj16pKSkgF0pGp7dV0dHB46SEAcHB6hdQuS/N7UKauUJ5r78a/Qms9Y2mi2T6x82s/ydopDLDU7DX9mlNIhKL4LfICEqrQiLQ6FRG0257KmwZs0a8Awqli1bBl4lAHh2X29vbzhKQpYvXw61S4hMd51k6hBzX1looxFlno3YLJZBTBziOPwtKK8eoimTjTToEsfG8ZHf18DzFoQjp6KiQl1dHTyDHDU1tcDAwA6rEgI8u29RUVHv3r3hWElA36JLOYlg645kLWr3ZdsLdiJHf8qJJzbX7mChmAQrLvv+InhPL9Wh4Pgc+AESkvPKsDikGq5lfK+mHsKRs3v3bjAMKsaPHw9GJQx4dl/ETz/9BMdKSGwsZWd0wjUEa2MmfvUL7awrzbPsrfxzlVFEub2mhizn4zDxq4lbLB800s8wqqypl8Wuun7RmfADJGQWVWJxSHXchX4zwfr6+p49e4JbUOHi4gIuJQz4d1/qlJOHDx+GaiYkPKUAa2MmfjX/oCPUNSGySMuuHJqgYyGhetjT3NKGBhBYNCYhy9Sbcm/sDnjP74gUGJsN0UlIK6zA4hBp6Dqj0iqa3DIdnD17FqyCioEDB5aUlIBLCQP+3TcyMhIOl5Dhw4dDNRPS3No2eqMp1tJMPOqHnZRp2Q/a+WOhmDq0/5w/1BEhUek8zHxhkqdGbTS9T7WJZAd1DU3jdSywmBwVmpgH0UlIzCnF4hDpkD1lViVES0tL//79wSqoMDY2BosSDPy7L+LDDz+EIyakoqICKpuQzcYsq4MMNXazGVQ0IScvspcCzxbdizcE29pIjNJ3Dob2o4L35Cq3UwshNAnRHLaUHqxpWFhOv4v+uXPnwCSoeOeddxS7le8zkYn7rly5Eg6aEEdHJ6hsQth+RzLVYA1DusekFlcisVBMSCM3mDxsppwKu/I4m8gmPg1dZ1RUSe89zS1tP+3ic1ON2MwSCE0Cl3d8XHbRl0gkH330EZgEFQcOHABzEhIycV87Ozs4aEKWLFkC9U1IeXUd1thM/KqeKjfNpTC2A/wztMXMByqIkIaHzTJagsIka3GxHwS/W2UnUe1pT53Zd5CGQVYJTW7LDlwvXgSHoKJXr16ZmZlgTkJCJu6bnZ3dvXt3OHQSXnnlldZWyjHBgkNOWJMz8Si6tOzhyWxC3DPkc5tydxe+kg0xyV/IgdIKKd+sIdrb/7v8mCsWk1p08+39Y7KwOFJqm/lVCEHFt99+Cw5BxYYNG8CZBIZM3Bcxbtw4OHRCbt2iXItt4HkLa3ImHnUnoxgqmoTskvtYHKah64xq6x9CBRHCNvUStag31eiAxywruaVVEJQEuq0P0W0H3aYOHXh7XwFvoAKNA+Pi4sCWBIas3PfgwYNw9ITs3r0bap2Q2EyWAEiGQhceVDQJtQ1NWBwm6i4YjX6m77DBojGJS3QpHh+jY8rPEr5KqpQXdC+Sdlpeg+9TMWLECPAGKv7f//t/4EnCQ1bui4awcPSEfP3111DrhEgk7RO3WGINz8SXzvlGQ0UTMnmbFRZKxXUtKgOqhpAkzpmGmBSu5UddaHP6PaKgvHroOq4v/tFglC7BOEVS/cEahtkl9+H75AQGBoIxUKGmphYcHAyeJDxk5b4I6nVHxcU0DzkR+8+x1aWyEnWSGplulCY6jd5o2tDUAlVDCHu3ohyiy3TxmOMuwVhAUk3aagmxCDnrQZz3Y4/NdfgyFePHjwdXoGLq1KngRoJEhu5LvRmFpSXlycHX9pNMT4t6SwDunYUyiUvCgbn7HbBoTGLUnP32dEPPDqrrGsduNsNiEmmhLuXCzn22fliozjVY0zC/jGa2ZgfUiZsec+nSJXAjQSJD9z1//jzUASFz5syB6ieksamFJeGTkX7aRZnu6mJIIhZKlUW3zhKRe5fNX1MeuYcmQbtSYesbjQUk0rqzlDMPSNO2Uyd06+DHH38ES6Bi1KhRYEVCRYbum5+fT5cUu2vXrk1NTdAChLCkVzLSIA0DukemKfnlWCiV1Yzd56jf+Vn5RGHRmMSryVst6RbQd8Ax+QYawkIgQohWdaKBL90yxQ4SEhLAD2hxdnYGKxIqMnRfxLRp06AmCPHzozw/WHoH2Sm1gGa1Yksr2xUAZHElEiqFnCV6zlg0JlHLxIvT1gt0i386ZOAZBlEIIZrWyuUlC2Lu3LlgBlQMGjQITEjAyNZ9qfc7WrduHTQCIVV1jYM1DLHzgIkXUeeIWMl2+f3dYIimUUX1A6gRQthjZ+XTCC2TMg4b/kja25cdccFiSimXGwkQhYTWNon0XevQdUYl9+gza8bFxYET0GJrawsmJGBk674xMTFqampQHyT07duXerN9lghXRjrjQXnLfNr9JhZKBbWVNrskgmKuKZPwddCO02vRmEzKPQ/otlhA945YnE6k5xgEX6Ni5syZ4ARUfPbZZ8XFxWBCAka27osYOHAgVAkh0dGUC0x53w+EqUOrTrhBFRNyMykPC6WCikyj6fIQbRLJ1O3WWDQmJRAaSnLJPYnYYOSFxZRGd+/XwvdJSJV6Asfw9cZc9vFFPT94AC2mpqZgP8JG5u6rpaUFVULI3r17oTUIKayowc4GJl40XMu4pbUNapmER3PR16v0q99Ze+3oNolC3EpmuZ2VVr+f9oRmpiKvrIp0140RWiZ0p6Kv1Ns8nHa/Cd+h4ocffgAPoOLDDz8sKioC+xE2MndfDw8PqBVC0KAZWoMctjJSRkL3v1DFhGiods4Np4A4qAhydln5YtGYlEno7gpamgpdh0AsYOdaccwVvkmIufdtLNQzNXqTWVVdI3yHHO4D31OnToH3CB6Zu29hYWHv3r2hYgjJzc2FNiGEZQWSkejmayDs/WKxUKqjkRtMqLdVqGtoYjPGlVs/H3Bsk9An36isqR+10RSL2YmOOFG+kZXyLtDKJwq+QMXUqVOh96fi3XffFeAu+s9D5u6L+Pnnn6FuCDlz5gy0CSGJOaXYOcHEi6j3KC0or8ZCqY6OXrgBtUCOe2gSFo1J+eRxMxnamwpT7wgsYCdyC6FM9CHNmrdJWy0bOKxjDg8Ph66fFj09PXAdMSAP97WwsIC6IWTcuHHQLIRI2ttZcn9ZaIKOBfX7y8WHL2DRVEGDNAy4JNtjy3xVQRyTbzQ0tUyRurujW7WPRufSPINxDaZ8NtbBxIkToeun4q233srNzQXXEQPycN+srKyXXnoJaoiQe/coN4ZEAw7szGDiRSm0r35trt3BQqmCtE0o82MjEtgjHJWRufdtaHUqzgfGPxnteRq90ZTuKXdWyT0s1NOasftcM9WszA6ot8V7zL59+8ByRII83BcxefJkqCFC7O3toXEIiUovwk4OJl5E/V5HNeeiR2dQbtiFIE1qzyRejdAyoU7GgmhuaZNmWRp1hucrEWlYqKdFvXVmB+PGjYNOn4p//vOfOTk54DciQU7ue/z4cagkQubOnQuNQ4hE0j55K9vul39Rr/pFqFrSq0W6F6gTO1c/aGTzrVRKhx0Doe2pkGZio/XVO/BpQk65hWKhMKFTnfqdFCIoKAh6fFoOHjwIZiMe5OS+CQkJ6urqUE8kdOnSpaGhAZqIED3HIOwUYeKuIZpGNbQzeKW5g1YmUefmRNj7saQxqqXBmoY5d+k3om9sannheIN6xeALEwhyXDc1fPhw6PGp6Nevn7je+HYgJ/dFDBkyBKqKkCtXKFP0RaYVYqcIEy+6FJYCVUzIw+bWcdrmWDRl1bTt1nTJSRBoGDFzjx0WkEnpRb2LdgfnOt15cOIWS7rhaVNL67BOs+WsPukOH6XCw9MT+npaxDXV+THyc99du3ZBVRGyevVqaCVC2iSSCToW2InCxF3Ub48Qx11CsGjKKptrlE/5EMHxOVg0JhURdUZSBBr+Tnr+8Jd6Y8HOE0oP0jBIzCmFj5LT1tb26aefQl9PhUgHvgj5uW9ISAjUFiE9e/ZsbW2FtiKENBEMkzQaomlEnc6m5F7NYE3l34Rq5AYT6ufziDUn3bGATCqiJXrOXF6gWl997soCv+hM+BAhncRE2ml5DT5HhbW1NXT0tBw9ehQ8RmzIz30RH330EVQYIf7+lJuBhKcUYOcKEy/ikh9gm/lVLJrySd85GI6WnLTCCiwak0rpamQ6nArk1NY/fGbqK3Q7iEbG8CFCNM9cwqI91rD1xkWV9DsJPnz48O2334Zenop33303Pz8fDEZsyNV9161bB3VGyNq1a6G5CGltk4xnD59loN9OeUAVk5OcV4ZFUzIN0jAoKKfPsLHH5joWkEml9OMu2+YW+oWzR5yeMdt0B+0ItfMtUgw8b8HnqDh58iR08bScOHEC3EWEyNV9L1++DHVGyKuvvkr98PmQfQB2xjBxFzKYwnL6e97flXrTBS5zZyqqHwxdR7ZrDZPyiTqhOgLd+aHLEwsYEJMF/0xIaOJztwedtNXyQSN9iq6ampqePXtCF0/Fe++9J6Kszk8jV/ctLi7+5z//CTVHSGAg5WI4tkGbjGTgSbnZPiIlv/zpDkJpxGXiDKpVLBqTCmr6Dhsuw19s39/xOhbU0Y45Pzdp4MWQRPgQFXv27IHOnZbTp0+DtYgTubovYvHixVBzhGhoaECjEfLo4bPKrHKRpyZuseSSWG6zsTcWUDk0/6Aj9aSZxqYW9qKEqUNchr+JuX/LUXrCNQT+gZwZe849Geqx5h1wQF0rfIicioqKbt26QedOxYABAwoLC8FXxIm83dfe3h4qj5DXXnuN+uHz/nP+2KnDxIv8aR9nIbJL7g/WUMLJz1zmozkHJWDRmFRWU7dbN7VQ9niIdWcvPw6VWVQJfyUkteC5EwA5ptegngP0GENDQzAV0SJv9y0oKHj99deh/gi5cYNyp7abSc99dcHERRxX2SvfK3k0cn3YTNljStrbZ+1lGTaY/hKXLYMeb9Gx8jh9aljDS8/eKF3jtCd8goq8vDw1NTXo1qkYOHBgcXExmIpokbf7IhYsWABVSAi6XYLWI6S1jaXdkJW4LLSvqmtUstRXp91vwrGRExTHMmww/U3obozL2l8tg0dvf4PisuG/yXnm7eBgTcOsEsqt5zqgfv/4GAcHB7ATMaMA97Wzs4MqJKR3795tbZQvGp85C5+Ju7aYUeYB7QDd3WMBRa28sio4MHJYhg2mpxUcnwPnBzm5pVVz9tlLJJT+/bzHznqOQfAJKiIjI6FDp2XEiBHgJSJHAe6bn5/fq1cvqEhCQkIopw/EZd/FziEmXjRYw5DL2lbUNSjNBvJcnsOzDBtMzxSXhfWIqPQi+F/knLz4jKSwozeZ3a+l3PYG0d7ejrwTenNavLy8wEtEjgLcF/Hzzz9DRRKipaUFzUhIe/t/Z+x+9uQ9Jo7SdeC0M1pm8b3Oc7iLRVxSFLGtfJmep/TCCjhLyKF+bt3S2jZxyzNSRtv7xcAnqHBxdYWunJbp06eDi4gfxbivra0t1CUhb7zxBvXDZ6PL4diZxMSLhmgacRn+Iqx8orCYotM4bXPq+Vb3auqV4/6DSRbaa3MdThQ54hediRUDafZeey6LDJubm99//33oyqno0qXLjRs3wEXEj2LcNy8v79VXX4UaJeTmTcqJLTl372MnExNf2m3tC7VMRZtEsuyICxZTXDruQr+k0tz7NhaNiemxBmtyerlDh+bZZ+R2Dk8ugH+mQl9fHzpxWhYuXAgWohQoxn0Rc+bMgRolRFNTExqTnEW6F7DziYkXDdIwyKBdU9hBUWXNmE1mWFgRKY328SAaTEzeZoVFY2J6UvvPUW4zQwe6GJ9ei89xfmVlZWX37t2hE6eiW7dut2/fBv9QChTmvtQbS73yyivNzZTJRe39YrBTiokv/ceY08bgCP+YLCymWDT/oCMcAzlXI9OxaExMmNDwt7CCPq06KcddgrECDNcyvnuvFv6ZCu7pNX777TcwD2VBYe7L5eHzlSuUd2EVNQ+UMr+SQHQnoxgqmpajF56bVFbIsrtOPxXltz88sGhMTE/rgJ2chr+1DU2jn9qj0OJKJPwzFenp6RzTa/Ts2TMxMRHMQ1lQmPsiZs2aBVVLyKJFi6BVyfntFOvsZCU0BOSS+hXR3NK28rgbFlbgQuMSdFcHB0BIftkztqNhYnpa6DTLuXsfzhtZcs43GvvpH3baUu8N3MEPP/wAfTctW7duBdtQIhTpvhYWFlC1hHTp0qWurg4alhCPm8nYucXEoxz9Y6Giaal+0Dhzj5gSLq43uAxFJ+e0+00sGhPT87TByAvOG5nR3No2bbs19rtBcfQZPxBBQUHQcdPSr1+/rKwssA0lQpHum5OT88orr0AFE+Lg4ABtS0htQ1Mnm0UzcdToTWaVNfVQ17RkFt97+tmXYHUtKgPKTQjq6Z65pJKJ6Xm6nUq/eaU0uAYnYr+oeeYS/BsVbW1tAwcOhF6blpMnT4JnKBeKdF8E9cPnadOmQfOSo2Pqg51hTDxqlxWn1UcdhCcXiGIJ7JhNZtTLfANjs7FoTEyda5HuBerMkS8E3Q5O32nz5M8N0TTi+Ljb1NQUumxakHkXFRWBYSgXCnZf6rQbiPLycmhhQm7Es3T2shXyFahrDqBmQhc/FlloOmQfAMUlR9tEOXc4ZpKpuGxh2TkuN/Ck62c8wuDfqLh//37Pnj2hv6bFxcUF3ELpULD7FhQUvPHGG1DNhBgaGkIjE9ImkUxhKyxlqYlbLKvqGqG6OXAlIk3gk5Jis0qgrISg+hm6Tuj3FkwC1Hgdi2o+Li6M5hb8jS/6zweNlGs7O9DQ0IDOmpapU6eCVSgjCnZfxLJly6CmCRk6dCg0MjlstoustdPyGtQ1N9xCkgRrwDN2n6POo3s+MB6LxsQkpbg8cXkeT0915rK9EiIuLg56alq6du0aEhICPqGMKN593d3dobLJycrKgqYmJJdlnZS9/KIzobq54RWeOlhTiKu0zbxvQxHJUZqdnZjkL3Q/GpPJdW39k1TVNWKZ5jYacUqe097ePmbMGOimaVm5ciWYhJKiePctLi7u378/1Dchurq60NrkLD/m+uTZxsS7xm42K67kJ0EPMnKhPadFPWAR7dFll7CbPyZOmnfAoamFcrrf0xx2DHwy+MgNJnfvc8ps5eDgAH00Lb169UpOTgaTUFIU774I6iRkAwYMgNYmxy0k6ckTjkkWWnbEhcumKE8SlV40Ttsci69ArTrhBiUj54xHGBaNiYlUf1wMhfOJG5lFldizJaeAOPg3Kurq6vr06QN9NC179+4Fe1BeBOG+AQEBUOXk3LlzB9qckLqGphFaJk+ec0yyEJfNfzDQWHPOPnssvqJ0MSQRikVIm0Qy9amEBkxMpBqkYRCRymnToQ5O/D2r8yLdCxwz1m3ZsgV6Z1o++OCD/Px8sAflRRDui/jiiy+g4glB42Zoc3L22lx/8rRjkpH4egGMqKprXHvKE4svfw3RNKKe1B2eXIBFY2Ki0/SdNrUNTXBi0XK/tmH6DljmO1jDMDG3FP6BirS0NI4pnRHm5uZgDEqNUNx3586dUPGEdO/evaGhAVqekKj0osfnMZPsNELLJCWfcnH200gk7RZXIhW7W4aWAX3Ov11Wvlg0JiZqHeRj9wXkuB0ZALk/qZo2bRp0zbQMGTKkpKQEjEGpEYr7RkVFUd8xXXB2hpYnpL39v+JKKSxeTdtuTb0VwTMJTcwdr2OB/Yrc5BWeCuUghL3vYOJdvCS3cQtJmrLNCp2f8N9UeHh6QqdMi7q6+rVr18AVFEp6enpxcTH8h2wQivsihg8fDi1AyOTJk6HxyUGjKOxUZpKRlug5c9wpBaOqtkHbRAFJQ4etN66tfwiFIIRt8sHEuyZv5Se5DccHVA0NDdSrVx6zZMkS8ANZkpub6+fnZ2JismnTphkzZiDr+eSTT/r06YONANGtwFtvvfX555+PHj163rx5e/bscXV1Ra4MUTgjIPc9duwYHDQ5BQWUsw9Kq+rYjr9y0xYzH36z1La3P/Kz0X9fqihrIcuHnydn1QmR7Z/IJAppnrkku/zPUrJjxw7ojml5/fXXk5KSwA/4A7mDv7//6dOn161bN2XKlA8++ADZKvwkFQMGDFiwYIGjo2NhYSH8BhUCct+UlJRu3brB8RFy8OBBOAXI0Tx7CTuVmWSnQ/YB1PmhnkdFzYOdltewH5Kdrkamww8TcvdercATZzKJVxw3wOdIcnIy98lWenp6YAbcyMrKunLlytGjR5cuXfrtt992794dfoBv0Mh4zZo11I/KBeS+iKlTp8JhEdK/f3+JhHKWfEBMFnYeM8lUp9z4WaeIEZVWNHe/A/ZbvGuIphH1Y+enk/kxMfGlwRqGvCxAogD1vSNGjIC+mJaBAwfSDSWzs7P9/PyMjY21tLSQg7z//vvc7wNI+eSTT44dO0ZafmG5r5WVFRwNOYGBgXAuENLaxtZfylsyuk9vk0jQwHTG7nPYz/Gotac84cfIWXz4AhaNiYlHTdpqWVHN59xGKTEzM4NemBbklx4eHmADzweNsH19fZFN7N27d9myZf/+97/feecdCCEAPv74YxsbGyirFAjLfQsKCqiTpCxduhTOBXLMvW9j5zGTrGV9lTJNygtpaml18I+dLJttrKjTAOWXVWOhmJh41y/6F1t4yi4nJeXl5S+//DL0wrRMmzYtPj4+IiIiICDAzc0Nedjp06f37Nmzdu3aefPmjRkz5rPPPnvllVfg08Jm1KhRUm4OISz3RaDqhoMgRF1dvbqGMu9uRc0D4W8lq3wyvHQLGkAGoD4IjYPnH3TEfpSjCisozzE2u55JPpLRm53nsXjxYuiCGf/jpZde0tXVfeGqZcG5b2BgIBwBOWZmZnBGkLPN/Cp2EjPJQX9cDOV9EtaTSNrbbyblbTHz4WWThnkHHCAuOei7WDQmJhnJNyoDTjsZ4+fnB50v4ykWLlxYUFAAxvYsBOe+iO+++w6KT8iQIUPgpCDnTkYxdgYzyUe6DoFttDPmpKeqtsHeL3bpERfs14lk4BkG4QjJYTtaMslRIzeYZBZVwsknMxobG99//33ofBnPYtSoUZ2soRKi+x49ehTKTk5ycjKcGoSgERgbnShKWgZe9Q+boSVkzN37tU4Bcb/94UExGqaeU2rLZjszyVczdp+roZ2cLyW7d++GbpfxfAYMGHDnzh3wtr8jRPdNT0/v0aMHlJ2QDRs2wKlBjnNQAnYGM8lNcntW9pjGphbkpoaXbq064TZ6oylWnqc1RNOogTZX18rjLMkGk7yleVaGKTgyMjLkv7BHpLz33nu3b98Ge3sCIbovYu7cuVBwQrp37/7gAeWc+weNzaOk6IWZeJfs5j9LiaS9vaC82i860+JK5P5z/mhk/OMuWywh8y/6F+HThFTVNbJ8akwKEfW7ks5pb28fPXo09LkMKUAj4KcfQQvUfV1cXKDU5Jibm8M5Qs4RpyDs9GWStfjaJFwWNLe2VdU25JdVpxVW3L1fC38lxCs8FTtkJib5aJCGQWhiLpyI/GFqagq9LUNqxo0bh23bIFD3RaX8v//7Pyg1IV9++SWcI+RkFlVipy+TTLXP1k+mc56FwFYzBWwFwcTUoXHa5nfvUd44PpPCwkLqlMAqzsmTJ8Hh/kSg7ovQ0dGBIpMTFkb/vGUly4MvL2029m5tk/lsZ8UiaW8fr22OHTgTkzy1/JhrM38pOLjv4KuyvPTSS4GBgeBwQnbfyMhI6p0oFi9eDGcKOb5RGdi5yyQLrTnp3tTSCpWuvDz5NGXsZjPkxEhsegGTPDVexyIkgZ/nz+fOnYNOlkHFt99+W1RU1OFxwnVfxJgxY6DIhKipqZWXU+5ViUZjP+6yxU5fJn61+PAFjvt4i4XbaYU+t9PSCyueXlJVW//wTkbx+cC4A3b+s/baYVXExMRRk7dannANQecYX+vpS0tLuSeVZOjq6nYYnKDd19jYGMpLjp6eHpwy5DgFxGHnMROPQk5zv7YB6prxP7JK7llciVxwyAmrLiYmIg3SeLTWyD8mi/eEz8uWLYPuVYlAQ7VPPvnkxx9//OWXX7Zs2XLs2DF9fX30/9H/Rn+ZNm3aG2+8AR/liV69enVs0S9o983Pz+/bty8UmZB+/fq1tVGefA0Pm8exd3WyEbofp06VrCIk55XpOgSO3PC39U5MTC/UYA3DfbZ+sru+ysvL58+fDz2saPnyyy8XL16MhmfuHh5paWktLS9exF9SUuLg4DB58mQIwRltbW1kcIJ2X4SWlhaUl5zLXl5QeeQYeN7Czmwm7hq72UwOCfCUg+q6RnQSSpMGhIkJjXe3mPnk3r0PZ48suXPnzqxZs6CTFTzq6uqDBw9eu3atubk5KvnDh5zyfyFLWrNmDYTmABr+5uTkCN19o6KiunTpAkUmZMqUKVBn5FTUPBi23hg7xZm4aISWSVz2XahfbrS3tzc2NsJ/KDXVD5AHh7ENuJg60ey99om5pXDGyIuMjIwDBw589NFH0NsKhgEDBsydO3ffvn2uFy+mpqa2tvI/tTMyMvLrr7+G36Pl1KlTQndfxNSpU6G85GRmZkKFkXPAzh87y5moNXSd0a3kfKhZbiDr/f3333v37m1kZNTcLKfs0Iolq+Qex/0hmJRV+2z9GuSVI/2ZxMXF6evrz5gxQ/7777722msjRoxYuXLl0aNH3dzdExISOA5tpae+vn7cuHFQDioePccGixMwTk5OUF5ytLW1obbIyS65P0gDP9eZKDRYw5DHNM7btm2D1v3HP/r37488GF0J8G/KS0trm4lXBDshmR5r9Cazq5HpcH4IAHRbjMaatra2u3fvXrhw4aBBg3iZIP3qq69+/vnnEyZMWLp06Y4dO0xNTX18fFJSUhR+1Tc0NEycOBFKSU737t1F4L7FxcUDBgyAIhOCjrCGdst9hJaBF3bGM1HIKSAOKpQz6C4bmvYJevbsuW/fvoqKCviQ8hIUl81mYzEhzdhzrrBcBLMXq6qqkpOTQ0JCPDw9LS0t0b0yuoT379+PfPQxBw8eRH88e/ashYWFo6MTMtdbt24hI0edv8AfbiEDfuedd6AboqDD4QQO6luhuOScPHkSqoqcqLQi7KRnIpW+czDUJmfs7e2hUZ+Furr6ypUr0XULn1ZSUvPLp263xiqZSaU0/6BjRQ3lXjIMfnG9eBE6IArA34RNSkoK9Z6Dffv25XIDtUTPGTv1maTXLitfCU95nL28vaFFX8THH3984sSJsrIy+KbSUVxZM40ZsKpq9l77qjqVmHIoCjht9wT+JngWLVoEJSbH0dEJqoqcayzxJK1+O+XBV3bZGzduUKQdnThxoomJCTp5IIoSUVheM2WbFVbhTEqvyVstiyrZcnlhcf36dehxSOnwNuFz9epVKDE5X331FdQTOa1tkhl7zmHXANMLtVDX6UEjP+9sYmJiOO6pMnz48OPHj0dHR1MnYBEgWSX3WE4YldIQTaPEHHmvLGK8kIaGBjU1NehriABzEwPfffcdFJocf39/qCpyLt9KwS4Dps41fYdNeXUdVB83srOze/fuDa3Ime7du8+YMeP06dPc190LgduphYM12b79qiK76zHQ8AyBMWrUKOhiiABnEwOo04RCk8Ml84ZE0j5nnz12JTA9T2M3m6FhGdQdN0pKSvr37w9NKAMGDhy4YsUKdF75+fllZmY2NYlv4weLK5FY/TMppTTPXOJrCgWDd7Zv3w59ChHgbGIgNzeXS8Lr+Ph4qCpyvMJTsYuB6ZkarmXMV0Kr+/fvf/rpp9B48qJPnz4jR478+eeff/vtt23bth05csTExITLdtGyBvXIGwzZujgl1/D1xgXl1dDkDOFx8OBB6EGIAGcTCevXr4dyk7N8+XKoKnIeDX/3s+HvCzRYwzAwNhuqjBsNDQ0jRoyAllM0u3fvhmIJksqaeraBv3LLxCsCGls2VNU2qMiOnzLi8OHD0FkQAbYmEhISEl566SUoOiFqamqFhYVQW+RciUjDLgkmTM5BCVBZ3GhubuaSXpRf0GhY+Hk8PMOSsbZgUhpN3GLZ0PTifXhIaW//b0ZRpfXVOyuOuaL75p8POGaXyGOTBqVEJca+CC5Lj7Zu3Qq1RQ4a/s7d74BdGEyPZXw5HGqKGxKJZMGCBdBgiqZr165xcbwl6pIdqCdde8oTaxEm5ZDNtTvQzHzQ0toWkVpwxClo+k4b7IeGrTe2uBLJ+67AqsDChQuhyyACPE08BAUFUU7v/sc/unXrxiXx5NXIdOx8ZerQHpvrvMwIaW9vX7t2LbSWAPD2vgIl40xrm8Q/JkvPMWiH5TV952Cf22k19XxOuk4rrGBZoJVP47XN63naRCG1oAKZ7tjNZthPYJp/yCk5T2kz1ciIjz/+GLoMIsDTRMWkSZOg9OQcO3YMKowcNvx9ptYbXEbWAnXEDS4pRXnn+PHjUCzOhCbmPb1qfIim0WZj79DEXHRewee4sdPyGvYTTGLXyYsh0LocSMwpJXo0MljDcKuZT3qh8idO54XS0lLoMkgBQxMVrq6uUHpyevbsWVdHvxSVpb7CtEj3Al9ZNSwtLaGRBMD8+fPRQBxKxgF0X3LcJQSrNExz9tkHxfEwW62woobtBKxk4rh472Fz62HHQCym9Npo5K3E+T0k7e285Ow0MDCAXoMUMDSx8c0338ABkHP06FGoNnLQMOXnA47YOaqyQuO5+7UNUDXcuHLFB5pHAHzxxRcPHvCQxb6xqWWDkbTLgXZb+6K+Er5JCxv+KpOWH3WBdqWivLpu/iEnLCaFVp5wcw1OrBZ/cuk2iQTdzXhHpJ28GLL6pPtCXSde1nENGjQIOg5SwM3EhomJCRwAORyHvwExWdjZqZqauMWSrz3OIiIiunTpAs2jaF566aWsrCwoGQeaW9o0TpPNhFp+zLWW28KPuOy7WEwm8YpLcqvqB4385ggaomm0wdDrSkQaX8+65EBFzYPbqYWO/rGH7APQrcxwLePHh7P48IXKGh52CL7s5QUdBwXgZmKjsLDwvffeg2MgR09PDyqPCnQz+LgVVVMjtEz4eiSVnZ3dq1cvaBgB4OPjAyXjgETSrm3ijVWaNFpxzLWB2ywb1K1gMZlEqpy7lEuA2tv/K7scLMPXG6864WZ46dbNpLxaXmcOcqGltS2/rDo0MRd57RGnoDUn3TtZBL/d4iovi7haW1s/+eQT6DgoADcTIZRLrP4EjW+qOUx+VvERxmBNw+D4HKgLbpSWlso0lyQphw4dgpJx44TrC971dqJt5j5c3jhfDEnEAjKJUTN2n4MWJUduqzMGaTyaI43czi0kCY0yiytr2iT8TMB8HpL29orqBwk5pdeiMmyu3UE/rWXgNWuvnZQJz9HH7K7H8LJAA8F1qgpYmQjJzMzkMmY6fPgwVCEV2iY+WLuqjlyDE6EWuFFXV8fl/T3vzJkzh5eZVq7BCViNkep8IP0i48qa+sEabOsF0UvXIRBalJBH27LtVti2bEPXGSEvRI6o7xyMfM4rPDUkITc++y4ax5fcq7lf21Db0IQ5dHNrG/oj+if0ATR+Tc0vj0wrDIjJ8riZjCIYeIbtP+e/wchrke6FqdutuWwrMkHHAt0iwK9y5sGDB3369IG+gw6wMnGipaUFh0HOyy+/zGXtb15ZlWrOLzXzvg1VwI3m5mYuK8d45+uvv+ZlplV4SgH3E2OElklhBf3JufK4qr8ZUQIh74HmJISty3imNM9eqqjh4QJ/zNKlS6HvoOLRI2vwMXESFxfHZedXjo8Zj164gTWw0mufrR8vD23QEJPjucsvb7zxRlFRERSOA1kl90ZvekE2AymlbeINQcmx94vFojGJTpnFlGuNfiec66f0Gq5lfD4wnq+nzR2YmZlB30GLjo6OuN0XsWzZMjgacrp3715dTT/jvLb+4QQdC6yllVhrTro385SFbtu2bdAGAkBdXf32bR4G9Pdq6n/cZYtVGhcl0M5rSyuswEIxiUsjtEzoXqBWP2hkWz4/qcWHL1BPXnseMTEx1PkWH3Pz5k3Ru29UVBSX4e/BgwehRqlwucH1DZ9YNO+AA1/zG01NTaH2hcH5CxegZBx42Ny6/JgrVmkcpW1COfu6tU2Cum8sGpOItFDXCdqSEPbY+bHQkNfm2h2+0vA9prKy8t1334W+g5ZBgwYh8xK9+yJWrFgBx0QOx+Evuj9dwMd6doFr8lbLknv8LO296OYGVS8MjI2NoWQcaG//7zbzq1ilcRcaxNy9Xwu/QcgqlV8UJ2ptM6e88TrmrHKvw56p3/7wyC/jf0fk2tra7777DvoODpw/fx45lzK4b3R0NDJROCxytm/fDlVLxZ2MYqzhlUyPlvbm8rO0NzQ0VF1dHepdABgZGUHJuGHlE4VVGl+y94uF3yDEwZ+9+hWxDDxvQUMSsvyoCxZK1TRxi6XP7TR+3/J2UF9fP3LkSOg7ODBmzJgO51IG90X8+uuvcGTkID/gsu8vQonT+w3WMOQlBTEiOTmZem9m3unSpYu7hweUjBu3kvNlt8IHDWHhZwjJLL6HhWISkdxCkqAhSUCWM2qjKRZKdTRsvfFp95scs8U9j6ampilTpkD3wQE1NbVr16512JaSuG9MTAyX4e+KFSugjqm4X9sw7vl5VUQtR3/KsRdGSUnJ22+/DdWtaL744oukJJre7Wnu3q+V6cy7oeuM6Ga61T9sxkIxiUiBsTS3vJU19Vgc1dE286vFlfy8HXuaxsbGGTNmQPfBjVmzZoFpKY37IlauXAnHR0VsLCebcQ1WwgRDeo5BcHjcqKmp+eqrr6CiFQoafJ8+fbqlhYckc4jGppaFujJ/60/3xr29vR2LwyQiRWcUQ0OSkJBTisVRBa045kq9OkAaqqurR40aBT0IN7p163br1i1wLGVyX2SfXB5sjh8/HiqbCkl7u5KlONhg5MVL0rjm5uaJEydCLSuOl19+ec+ePffucdqv7Una2/+7y8oXqzRZKL2wEn6SkOHr/8opzyQuZZfQLJIJjs/B4ii3FuleCIjJksUr3seUlpbyOHL49ddfwa7+RHncF7Fq1So4Sip8fX2hyqnILKocuk5Jsl8t0XPmJQu5RCKZP38+1K+C+Prrrw0NDbnsavVM5DatKT77LvwkIWzdp3hVVkVzunqFp2JxlFXLj7rcTMqTqe8iUlNT+/XrB/0IZ3r27BkfHw9e9SdK5b5xcXFchr8ff/wxx2eSZt63sbNEjPphpy0ve28hNm7cCJUrd9Blg36d4wuF5xGWlC83b6N+qobFYRKR7lNtm30+MA6Lo3xaecINXX1wwLLEx8eH31miZ8+eBaP6H0rlvog1a9bAsVJx6tQpqHsqWlrbxL6/2+iNptQp7jBOnjwJ1SpHvvjii927d0dHR/OyX8Izybl7fwxP6SSlUWpBOfwwCejgsThMIhJdZht7vxgsjtJouJbx/nP+GUWUb2GIQF2Hvr4+dCg8sXTpUrCoJ1A290XD3x49esARk9OtW7fSUk4v8JF1DRPt+7bBGoYhCblwJNxwc3eHOpU9vXr1WrJkyblz50pKSuDnZUZVXaOcN5Chm8nJZl2JWvVUezzbXLuDxVECLTvi4hqcSFchFNTU1MycORN6Fp746quv8vLywKKeQNncF6GhoQEHTcXq1auhHWixuBKJnUBikQNP64siIiJknVWjT58+ixYtMjIySkxMlN0wF6O5tU3OOaQGaRg0tbTCz5PQ2ibBQjGJSI3NNK/AZJf1Rc5Cp/2KY672frF371HmeqMjJSXlo48+gi6GJ9DYIDw8HMzp7yih+6ampnLZ9xcRHR0NrUFFm0Tyq/5F7HwSvqj3E8XIycl57bXXoCp5Bd1Crl271s7OLjeXnwE6Kfts/bBKk7XQiQS/TQjybCwUk4jUSDXn0T00CYsjLo3cYKJl4HU+MK6UatIZF9AdvIGBAe9jBjU1NSsrK3Cmp1BC90Xs2bMHjp4K1Mu3ttIMOB5TVlU3XlT5N9acdG/hY/+iqqoqHm8e+/btO3fu3BMnToSGhtbX8zMRjBoTrwis0uQg36gM+HlC6htZtg0Ri27seye9CIsjfA3WNES3mOjiisks5msLNVKQZfCSx+pp1q1b12FJz0Q53TcvL4/jNhRnz56FlqElICYLO88Eq5l77KofNEK5OdDS0jJhwgSoQVo++eQTNMB1dHQqKCiAuALA+qoC3qj9on9RQvtQvaq2AYvGJCI1t9D4UF1DEzpnsFAC1KStlv8x9rb0iQpPKXjQKKcXus/D3cOjZ8+e0PvwyqJFi0pKSsCTnoVyui/CwMAA6oCKbt26FRfTpJt5koN2/thpJ0ChMXpBOQ+bgbRz2DD/m2++0dbWvnT5cmWlPOY0kqKQqaSjN5kVltNnziuurMECMolILW30o8Co9KKdltcEtcXkDztt1xtcPu1+8/qdTL52S+POvXv3li9fDn0Q38yYMaOoqAjc6Dkorfsi7+SYo2Tu3LnQSrQ0tbQuPSLoLUeGrjNC1yoUlxt79+6FipOazz///ODBg5mZmRBCeKCRp6Lm0F2NTIdCUJF79z4WkElEkki4TiRsbGqJSC0w8YpYfdJdnlnPRm00nX/ICQ1tz3qEXb6VkpxXJrfpytKDhgp2dnavvvoq9ER8M3HixIKCArCi56O07otwdXWFyqDFy9sbmosWdKM3XpZZ+DnKMywZCsqNc+fOQZVJwdixY42MjOSwOogjzS1tOxS0e9Ux5xtQCFoyiiqxmExi0djNZtCKPNHc2pZVci8oLvucb/Qh+wDkxzP32KFfwX5XSqFRNRrLonHFBkOvfbZ+f1wMdQqIC4rLSSus4OUFlqzJysoaP348dEYyYOTIkTk5OWBCnaLM7ov44YcfoEqoePPNN6uqqqDRaIlKKxJmzr/T7jehiNwICQlRU1ODKns+6DO//PJLYmIifE3Y3L1Xq6hXaOh36V77PUlKfjkWlkksmrvfAVpRxrRJJFV1jfll1Qk5paib6lBoYl5ATFaH0OgZ/SW1oCK9sAINJMqq6h42c5qOqliam5t1dXVluhhyyJAhGRkZYD8vQsnd986dOy+//DJUDBXLli2DpuMAuuXELjCFa7OxN/enW4iUlJQX5mPr3r37fzZt4v4eXW6gfkdRU9anbbeuqHkA5eCAam53oxz67RQ/O08znsTN3f3999+HLkk2jBs3Dg2swXukQMndF7Fp0yaoG1oue3lBA3LgsGMgdo0pUIt0LzTw8TKmrKzsnXfegWp6Fug288CBAwpfLCQ992sbdlvLY+eiZ2rURlO+culFZxRjwZnEol1WnLZ7YWBER0ePGTMGuiSZsWjRosLCQnAd6VB+983Ozu7cIV7IG2+8cf8+zYZfT9ImkWgZeGGXmUI0dbs13Q4qGI2NjUOGDIE6ehbTpk3Ly8uDTwueltY2e79YeSZwxjRY0zA4PgdKw5nbqYVYfCax6I+LodCKDG4UFxevXbsW+iNZsnHjxs4XFz0T5XdfhImJCVQSLQsXLoT25AAabi7Wc8auNDkLuUsmH6Or9vb2BQsWQO08hZqa2smTJ+WWAJIjkvb2gJisOfvtsbqSpwZpGFy+lQIF4oOwpHzsJ5jEIltfTrn2GIiysjJtbW1Z57tFoJ84fPgwOA0hKuG+6K7k3//+N9QWLXZ2dtCwHKiua5x/yAm72OSmoeuM0JAIisKNffv2Qb08Rffu3YODg+Fzwqa5te1SWMqcfYr03Q6hYTeUiSdUbaN1ZZJXeCq0IoOcysrKHTt2dOnSBfojWdKrVy/kC2Az5KiE+yJu3ryJXAHqjArUnBkZlGn/nqSqtmHeAQfsepOD0OjK53YaFIIbF93coFKeAp2OcXFx8DkBU1ZVZ+kTNW27NVZLCpHFlUgoFn+g0Tz2K0xiEV+3yKpGRUUF8l05jHc7+Oyzz8LCwsBgqFAV90Xo6OhAtdHy3XffNTfzMFmpvLpu5h477JKTqQZrGHrc5Gdpbyf7F6G/R0VFwecESXNLm1905nqDy6hCsCpSlKyv3oHC8YpvVAb2Q0xiUe5drrNMVA00Llq/fr3cfBfx008/ZWZmgrXQokLum5+fz30DgK1bt0KDc+N+bYPc3gEP1jTk61lWQUFB7969oS6ewt7eHj4nMBqaWtBYcLe1rwInVT1TdtdjoIh84x2Rhv0Wk1ik8NTHYqGtre3KFZ9JkyZBByQXunTpsmvXLoo5Vk+jQu6LcHV1lSYvROfwsgAJUdfQ9NsfHtiFx7uGaBpR75ODUVdXN3DgQKiFp5gzZw58TjDcvV/rGZasbeI9XEt+mfak1NB1RjJ9vYcOHPtFJlFo9CaeE10pJaWlpfr6+m+//Tb0PvKiX79+Li4uYCecUS33RXQyU1dKunfvzssLYERzS5tMt4wdu9nsVnI+/Bg30G1mJ4nD0D1NVlYWfFShNDa1RKUVGV66tUzAGbZHbzTlq12ex8WQROxHmUSheQfklOhKjJSVlZmYmMg0T2QnoA4wOTkZjIQPVM5909LS0P0LVCctH330UU0Nbzt1eNxMHiaDNOiz9trllnJNk/mY/3SatERLSws+pwiq6xqD43NOud1cccwVjfWxehCaZu6xyyq5B0WXGReC4rHfZRKFNM9egiZk/I+SkhJDQ0M5ZMx4Hq+++uqpU6fAQvhD5dwXYWdnB5XKgblz5/K4njUhp5TfeVj/MfaurX8I0TljZmYGh/0cIiP5n7XbCaji88qqrkSkHXEK+vmA4yAN/PAFKy0DLx7bpRPs/WKxn2YShQ7a+UMTqjbNzc2hoaH79+8fNmwY9DIKYsiQIeHh4WAevKKK7otYuHAhVC0HDh06BGcKHzQ0tRx3CeZuJGM2mfGbtyEgIKDzl+X9+/eXQ2INNMC9mZRn5n17vcFl6u1ZFKjBmoao8Lzk1pYGm2t3sAIwiUImXhHQhKoH6kYSEhL++OOP6dOny2fBbud069Zt27ZtpPkjpUdF3Tc9PZ2XN/YODjy/pEnMKV15wg27IKUUcu5t5j6lfGSRfAyqqBduorB69Wr4NN8UVtR4haei0YAQEmJw0Yzd5xJySuGo5IKitiVm4ii3kCRoQtWgurr6+vXrurq6P/3002uvvQZ9igAYMWJESEgIGIZsUFH3RSDjhGrmABoU3rjBdSvWp7kRn7PimCt2WXYuNCJMyS+H7/NERUWFNLuC6OnpwRf4oKL6gWtw4naLq1O2WWHHKEahW6LDjoHy32AcDaGwkjCJQqGJudCEJFTX1ERERLS2imD7P2S3t27dMjIyWr58OfcloLLg9ddfP3nyJC9rijpHdd0X8csvv0B9cwANDVNTZbJ0JLWg4ohT0PSdNtj1+aR+3GVr4BlWUF4N3+GPBw8eDBo0CA6yU85fuADf4UBxZY29X8wv+hdF9BL3hZqz3z42swSOUL4YXQ7HCsMkCqUXVkATkoD8DF2JXbp0mTx5MrobDgsL4yUvEHeqqqpQYSwsLDZu3Dhp0qQ+ffp0dBqCZerUqbGxseAQMkal3Tc3N/eLL76AWufA22+/XVgow+Rw2SX3r0amG18OR2a8z9bvkH2AxZVI9JeSe7zNu8ZoaWmZPn06HN6LuHT5MnyNHImkPSgue/VJd6wPErtGbzKz9Y3mvkk+NYaXbmFFYhKFquoaoQlJcHF1havxf6irq48cOXLVqlXHjh1z9/BISkp6+FBW0/0kEkl5eXlMTIyHp+fp06eR0c6cOfOrr7564UsrQTFgwIDz58+DN8gFlXZfRFBQUI8ePaD6OfDOO+8UFBTAyShy2tvbV65cCQcmBdbW1vBNciTt7RdDEhW1lb0sNHSdEbpJqqptgCNUEAaezH3Fp2HrjenmL546dQquxk5B44Rhw4b9+OOPy5cv37x5s66uromJCXJudAMd8ATIRzu4ceMG+k83d3fXixfR+NXU1FRfX3/Pnj2//fbb7NmzR48e/cknnwjqZS0dvXv3PnjwIOrAwRXkhaq7L+Lo0aPQCNz46KOPysrK4GoQM+jqgkOSDnRBwjdpqa5rPO4SMlwGi57lKeS7ug6Bd+/VwlEpFAPPMKx4TMLXjN3noP0I4Z7EXjXp1q3b2rVrU1NTwQzkC3PfR3z//ffQGtz4/PPPKyt52D1XgRw4cAAORmp42fwYUVHz4OTFkNECS8UsjcZuNjvjEXb3viB8t4OzHsx9xaff/vCA9iOEewo/FWTq1KkyWsgrJcx9H4HufT744ANoE2588sknMn0HLFM62bW3E1577TWJRAIhONPwsNk1OFFuW1Bw1BI9Z1RaVGYovWBAdwNYUZmEr322ftB+hIwcORKuRoYUjBgx4tKlS9D7Kw7mvkBAQMDLL78MjcONPn36JCYmwmUhEtrb27W1teEAyImI4D9FQG5plZn3bWRvApwF/cNO21NuoZlFwn3OccrtJlZmJuGLOtUG9+y5KsKoUaNcXV2h01c0zH3/wtjYGJqIM6+88srt27fhyhA8aOS6bt06KDoVixYtglgy4F5N/dXI9GPONxYcclLgvrzoJmDpERfjy+HJeWWyT+31iLa2NuoE2ujmACs/k/BFtwl3a2srXIeM5/Pvf//b3d0d+nphwNz3b6xduxbaijNdunRxc3eH60PA1NXVzZw5EwrNgdxcmiwBpNQ1NEWlF9n7xey0vDZrr52szXjkBpM1J93PeIQFxmbLeRpzfX39jBkz1NXV4b8J+eMic1/xKTyFZt1EQUEBXISMZzFmzBhPT0/o4oUEc9+/UVhYOHr0aGg0PkB23tLSAleJ8OBrxTMCneI8vv2VkqaW1syiSr/oTIsrkfts/ZBTzth9bug6ym2Oxm42W6LnvM3cB9ktGoVkFFW2yf2IOiguLh48eDCqVWr3PXkxBDs6JuGLblOymzdvdlyDjCfp1q3b7Nmzvb29oXMXHsx9cZKTkz/88ENoQD4YO3ZseTnPOSB5AV20vXr1glLyAfelR7wgaW+vrKlHrhyTWRwcn3MlIu1CULzd9RhMrsGJVyPTQxPzYrNKMovvyWfrIWkICQnp3bt3R5V26dIF/krICVfmvuIT3fQ9R0enjrOF0UGfPn3+85//xMXFQZ8uVJj7PoPw8PA333wTWpIP3n77bVmkg6amra3t+PHjne9cRAEKeOfOHfgNBhUWFhZPtkvXrl3hHwg57sLcV2Qar2MBjUfIkSNH4HRRbdCt6qRJk8zMzPLz86ErFzbMfZ+Nl5cXLzmwnmTt2rV1dXxuQERHbm6u7Pap/vDDD5Uj5Yj8qa6unj9/PtTj/+jWrRv8MyH6zsFY584kcC3Rc4bGI+T333+H00VV+fLLL3fu3Cm3/Mx8wdz3uaBRiLq6OjQvT7z77rsKHARLJJIzZ87wflAYyICLi4vhJxnSER4ejs4NqMEn6N69O3yCkGPON7DOnUng0jH1gcYjRPqU7MoE6seGDRu2b9++iIgI6LLFBnPfzqBI/CQNP//8c2ZmJlw68uLWrVsjRoyAEsiY9957T2myXsuapqam7du3Q8U9BbX7Hr3A3FdkOuEaAo1HyOeffw6niwrQrVu3iRMnHj9+PCEhAbpp0cLc9wXILoHq2rVrS0vlseN6amrq0480Zc1bb70VFhYGJWA8h9DQ0M63OH3ppZfgo4QccQrCOncmgcvBPxYajxB0iwani/LywQcfLFq0yMTEJD09Hbpm8cPc98Vs2LABTgG+6dq1KwqelpYGlxHfJCYmLl26FH5MERw5ckT+y5BEQXVNzW+//QbV9Hxefvll+AIhzH1FJ/+YLGg8Eqqrq+FcUTo+/PDDJUuWGBgYREdHQ1+sXDD3lQpZz2v47rvvHBwc+FoZXFtbi6JNmjQJoiuUyZMns6fQT9La2mpqairlvmw9e/aErxGi58jcV2RKyqOZrhgfHw/nivhBo5GBAwcuX77c2NhY+OuFuMPcVypKSkqItrylAw10Fi5caGdnR7c+uLCwEJnusmXLunTpAhGFgbq6+sGDB5uamqCgKkxAQMCXX34J9SIFr776KnyTEF2HQKxzZxK47tXUQ+OR4OXtDeeKCEE93pAhQ3755ZcTJ05cu3ZNLCuF+IK5r7QgA+YxD+UL+fbbb1evXo1OSm/vK9nZ2WjABFfb/6iqqkpMTLxyxQcNpFasWNG/f3/4plD56KOPUGmh9KpHcHDw2LFjoS6kBg2R4fuEHLIPwDp3JiFr2HpjCVX2cCMjIzhXBE+PHj3Q0Pb7779ft24dGt2GhIQUFRVB96qSMPclY/fu3bwnqZAeNIhEd4sIoY1upWfw4ME+PqrlwUFBQdQLrHv16gVRCGHuKy7N2msHLUfItm3b4FwREm+88cY333wza9asjRs3njp1yt3dXXSLceUAc19iTp8+3bVrVzjLGFQgD3Z2cWluFty2uDyCjs7BweHbb7+FY6aid+/eEI6Qg3b+WP/OJGT9ftoTWo6QhQsXwrkiHejSmzFjxogRIz755JPXX38d/iod6KYffeXtt9/+4IMPkLmiIDNnzly1ahW6A0AWa2dnd+3atZiYmIKCAugrGZ3C3JeGc+fO8Z4JSwV588039+/fX1JSAh2JsoB6nwMHDqDbfzhODqAgEJSQA8x9RSV0twQtR8jw4cPhXJEONHiAXuxP0NWX9gR37tyJ+B83btzw9fVF/wMNW9E/FRYWwncYPMHclxIvLy+2ozVfTJw40cbGprqmBnoUcdLY2IgG9FOmTIGj4oM+ffpAdEL2n2PuKyaZe1NuB47OEDhXpEM4e8szmPvSExcXN2zYMDiplRc1NbW5c+fK4W03+olp06YZGhpmZ2dD1yIGGhoa3NzdFy1aJIv3EX379oWfIWSfrd+TnTuTwHX5Vgq0HAnNzc1wokjNrVu3oP9iKBrmvpwoKCiQw0okBdKzZ08rKyt0pLLL+fVMPvjgA1Sxtra2GRkZ0NMIDHSLYGRk9MMPP8h0Btxbb70Fv0fIXpvrWP/OJGRFphVCy5GQm5sLJ4p0oBvcvLy8jr6LoXCY+/IA6oVffvllOMGViHfeecfX1xcO8s/53vAP8uW1116bPn363r17L12+XFRUBB2P3GlsbETjhtOnT6NhLqoZKJyMYe6rIioor4aWIyE4OBhOFOn45z//CRczQwAw9+WHwMDAb775Bs5xpWDOnDmpqalweP9j165d8M+K49VXXx0zZszatWuREV6/fj0/P//pxdDcaW9vLy4uDg0NtbGxWbdu3XfffaeQlWbU733Zk2dx6WEzzTlsZ2cHJ4p0oNMYrmSGAGDuyxsFBQVbt27t1q0bnOmipW/fvpaWlnBUT7F//36F+FDnoDKPGDFi4cKFW7ZsOXXqFLJMD0/PoKCg2NjY3Nzcqqqq6qcoLS1NT0+PjIz09/e/6OaGDvn48ePIaNE4+6OPPhLIMbIVR6qgSVstodkI0dXVhRNFOn788Ue4jBkCgLkvz6Ae/1//+hec7CJk6tSpL8ywqq+vL+tNghkdsEyTqqDlR12g2QhZs2YNnCjSsXbtWriGGQKAuS//dAyCRfcm+I033jA1NYVjeBEmJiY9e/aEbzJkBjqLoKMlhO1xJCJtM6fM/ka6vG3Pnj1wATMEAHNfWREbG7tkyRJRpITs0aOHpqZmSkoKFF06bt68SbRhAIMC6t319Z2DsS6eSbA65RYKzUbIxx9/DCeKdBw+fBiuXoYAYO4rW4KDg6dNmwbnvvDo1q3bsmXLqFOw5uXlrVixAmIxZAC6e4OOlpATriFYF88kWJ0PjINmI4T05v7kyZNw6TIEAHNfeXDp0qURI0bAFSAM1NXVZ8+ezcvSezMzs169ekFcBq+oqalBR0sIGk5hXTyTYBUUR5Ne5t69e3CWSI2hoSFctAwBwNxXfvj5+S1duvSVV16BS0FB9OzZc9GiRQEBAVAsPoiPj58/f74A50IrAdDXEnLGIwzr4pkEq9SCCmg2EmJiYuAUkZpO1jIw5A9zX3mTkZFx/PjxL774Ai4IOfLtt9+in87MzISi8I2np+fAgQPhxxg8AX0tIQaet7AunkmwqqprhGYjwfPSJThFpMbBwQGuVYYAYO6rGEpKSi5evLh69eoPP/wQrgyZ8dZbb2loaISEhMBvy5LCwsL9+/eT7lzG6IR2qk3XjS+HY108kzA1XMuYqoX/e/bsWThFpIZtsSAomPsqnoiICDQknTlzJo9reF577bWxY8fu3r3b19e3uLgYfkleZGVloZ9mHswLLS0t0N2SYOodgfXyTMLUnP320GaEUKRe9/b2hkuUIQCY+wqInJwcd3f3Y8eOrVmzZsKECe+9956Ub1K7dOnSr1+/IUOGzJkzR09P78aNG2hsDUEVR3p6Ouog2IQsjjx8+BC6WxIsrkRivTyTMKV59hK0GSE///wznCJS4+fnBxcnQwAw9xU0yI+vX79uZ2dn/ienTp1Co2Rkz2hkeeDAATMzs8uXL0dHRwt54+uMjIzDhw+TLkxUYgYMGPDZZ5/Bf0hBfX09dLckWPlEYb08kzCl6xAIbUYIutuGU0Rq5PP6iSElzH0Z8gCNxZ2dnadNmyaK9COyAB34pEmTbG1ti4uLf/31V/irFNTU1EB3S4KtbzTWyzMJU5Y+UdBmhLzxxhtwikhNZGQkXJAMAcDclyFXYmNjDx06NGzYMOgPVID+/fuvX7/+yY7v999/h3+Tgupqmr3n7P1isF6eSZi6GpkObUZCU1MTnB8kJCcnwynIEADMfRmKITQ0dPPmzUq8Qumdd95ZvXq1p6fn0+/gN23aBB+SgsrKSuhxSXD0j8V6eSZhKj77LrQZCVlZWXB+kMC21hcUzH0ZCiYmJubEiRM//PDDq6++Cp2EmPnoo4/Q0NbLy6uTiW87duyAT0tBeXk59LgknA+Mx3p5JmGqsobmvb6fnx+cH1LTrVs3OP8YwoC5L0MoFBYWXr169eDBgz/99NM///lP6DPEALpvmDp16pEjRyIiIuBgOmX//v3wTSlALg49LgkuNxKwXp5JgBquZSyhWu1rbm4O54fU9O7dG84/hjBg7ssQKLdv30ZdzPr168eOHSu0pcNdu3b98ssvly1bdurUqaCgINIV1cinIZAU/P/27juoqjtvA/hQFI1lJSO6Km7MqoOJGseChowl6mvJqFk19uxmrQQllgjRWBJji4JGEkQFa8QGKiggsaNYMGJBFBEQFbgYW2JBUVFg3zPJM/tmT97lnt8B7vndy/OZ7+xM/kiE8/vu83Dw3nuUH0qQuCJ2xF9UBT1Hwhn41SYcmCChX5/8xtXVFftHcmD7knVQbitDQ0Nnz549fPjwtm3bWriPq1Sp4ubm1rdv3y+++CIyMjIzMxNfli5KZ+O/q8GNGzeQuCIij6eogp4j4UwMisaBCRo8eDD2Q7NmzZph/0gObF+yVsnJybGxsWvXrp03b56np2e/fv2UVm7YsKHuz/dQ7midnZ0bNWrk4eExdOjQzz77LCgoKDo6+sKFC/gjy8iKFSvwR2qgND0SV8TuE5dVQc+RcPzCjuLABLVu3Rr7oZny/w7sH8mB7Uu2KS0t7fTp04cOHYqIiAj/lXLr/OtnlvyfrVu3xsTExMfHJyUllfJ2VojyEwMSUYP09HQkrojohFRV0HMknE0Hz+PABOn4VNouXbpg/0gObF8iS1N+DkAiapCamorEFfHD6TRV0HMkHH1P9s3Ly8NyiOjTpw/2j+TA9iWytO3btyMRNbh06RJCV8S+xHRV0HMknLQcPU/2vXjxIpZDxNChQ7F/JAe2L5GlRUVFIRE1SEpKQuiKOHA2QxX0HAnnUf5zHJiIqOhoLIeI0aNHY/9IDmxfIkvbt28fElGDxEQ9nwN85MI1VdBzZJvOU0NwWoK+/fZbLIeIyZMnY/9IDmxfIkuLi4tDImpw/PhxhK6IhJRsVdZzZJsRC8NwWoImTpyI5RAxZ84c7B/Jge1LZGkJCQlIRA0OHDiA0BVxNj1XlfUc2WZaSCxOS1CfPn2wHCICAgKwfyQHti+RpZ07dw6JqEF0TAxCV8TF67dUWc+Rbb6NPIHTEuTm5oblEPH9999j/0gObF8iS0tJSUEiarB9xw6Eroh00z1V1nNkm+1HL+K0BDk6OmI5ROzevRv7R3Jg+xJZmtDj4UJDQxG6IrJuP1BlPUe2SUjJxmmJuHPnDjZD0NGjR7F/JAe2L5GlmUwmJKIGq1evRu6K+OmXR6qs58g2yk9IOC0RP/74IzZDUFJSEvaP5MD2JTKA9l8eBgYGIndF/PIoX5X1HKmmtVfgs4KXOC0R28LCsBmCsrOzsXwkB7YvkQG0f06vv78/cldEXv5zVdxzpJoe09fhqAQJPZ7y35R9w+aRNNi+RAZ49dVXkYvmzJs3D7krouBFoSruOVLN6CU7cVSCxo4di80Q0aBBA2weSYPtS2SAevXqIRfNmTlzJnJXRHHxv1p7qROfI898uUHP27gVXbt2xWaIaN68OTaPpMH2JTJAo0aNkIvmTJ06FbkrqP0nK1SJz5FngmN+xDkJUu5isRkiOnbsiM0jabB9iQzQrFkz5KI548ePR+4K6jI1RJX4HHkmOkHPgyMLCwvt7OywGSIGDBiAzSNpsH2JDNCqVSvkojmjRo1C9ArqMX2dKvE58sy5jFyck4isrCyshaCPP/4Ym0fSYPsSGaBDhw7IRXOGDRuG6BXUd/b3qsTnyDO37ufhnEQcOXIEayFo9uzZ2DySBtuXyADdu3dHLprTv39/RK+gD77arEp8jiTTbkJQUVExzknEunXrsBaCvvvuO2weSYPtS2SA999/H7loTq9evRC9gkYsDFOFPkeSef+LjTgkQcotLNZC0LZt27B5JA22L5EBhg8fjlw0p0uXLoheQaP8d6pCnyPJjP9uNw5J0IgRI7AWgg4dOoTNI2mwfYkMMG7cOOSiOe3bt0f0Cvo4YJcq9DmSzMLNcTgkQcoyYC0EJScnY/NIGmxfIgNMmTIFuWhOixYtEL2CJgXFqEKfI8ls2HcWhyTI2dkZayHCwcHBZDJh80gabF8iA2j/C7zGjRsjegVNC4lVhT5HkjlwNgOHJOLp06fYCUEuLi5YO5IJ25fIAIsWLUI0mlO/fn2kr6DZ6/erQp8jyVzOuoNDEpGamoqdEPTmm29i7UgmbF8iAyxfvhzRaI6zszPSV9C80EOq0OdIMg/ynuKQRMTGxmInBPXo0QNrRzJh+xIZYMOGDYhGcypXroz0FeQfHq8KfY4M886kVTghQUFBQdgJQaNGjcLakUzYvkQG2L59O6LRHDs7O6SvoKCoBFXuc2SYwfO24IQE+fj4YCcEzZw5E2tHMmH7EhlA6LeIBQUFCGAR6344o8p9jgwzdWUsTkhQ//79sRCCVq5cibUjmbB9iQwQHx+PaNTgl19+QQCL2BZ3QZX7HBnmmx3HcEKCWrRogYUQFBUVhbUjmbB9iQxw7tw5RKMGWVlZCGAR0QmpqtznyDBhcck4IUGVK1fGQgg6e/Ys1o5kwvYlMkBaWhqiUYOUlBQEsIiD566qcp8jw5xM0fOz1P3797ENghwdHXNycrB2JBO2L5EBTCaT9seknzp1ChksIiElW5X7HBkm585DnJAIoV+W/J6rqyt2jiTD9iUyRtWqVRGQ5hw8eBAZLCIp8ydV7nMMnzbjl794WYgTEhGu+UXyKh06dMDCkWTYvkTGqFOnDgLSnMhdu5DBItJN91TRzzF8dD9bcMGCBdgGQQMHDsTCkWTYvkTGaNSoEQLSnNDQUGSwCNO9h6ro5xg+nwRG43gE/fOf/8Q2CPLx8cHCkWTYvkTGaN68OQLSnBUrViCDRfzyKF8V/RzDxz88Hscj6O2338Y2CAoKCsLCkWTYvkTG6NChAwLSHD8/P2SwiOcvXqqin2P4bIu7gOMRVKtWLWyDoNjYWCwcSYbtS2SMHj16ICDNmTlzJjJYUHvvFar05xg7Jy7pebtRXl4eVkHc5cuXsXAkGbYvkTEGDx6MgDRn/PjxiGFB3aetVaU/x9jJvvMAZyPi/PnzWAVBf/rTn7BtJB+2L5ExPD09kZHmDBs2DDEsaOBXm1TpzzFwdL/daPuOHVgFQW3atMG2kXzYvkTGmDZtGjLSnF69eiGGBY3026EqAI6B02+2zrcbLVy4EKsgiG83khnbl8gYixYtQkaa4+7ujhgWNHF5tKoAOAaOd2AUDkbQyJEjsQqC+HYjmbF9iYwRHByMjDSncePGiGFBs9btUxUAx8DxDz+KgxHk4eGBVRDEtxvJjO1LZAztD9h3dnZGDAtaHHZEVQAcA2frYZ1vN1IWAKsg6NChQ9g2kg/bl8gYBw4cQEaaY2dnhxgWtCIqQVUAHAPn+KUbOBgRjx8/xh4IcnR0zMrKwraRfNi+RMY4c+YMYlKDZ8+eIYxFhB44pyoAjoGTdVvP242SkpKwBIKaNm2KVSMpsX2JjJGZmYmY1ODWrVsIYxG7T1xWFQDHqGk7PqhA19uNduzciSUQ1K9fP6waSYntS2QYJycnJKU5qampCGMR8cnXVR3AMWr6z9HzqAyF9tfGq/j6+mLPSEpsXyLDuLq6IinNOXbsGMJYRPK1W6oO4Bg1U1fG4lQEjR49GksgaO3atdgzkhLbl8gwbdu2RVKaExEZiTAWkXOHDxmUZZbvPolTEaT9aRwqJ0+exJ6RlNi+RIbp3bs3ktKckJAQhLGIR/nPVR3AMWpiTl3BqQiqVq0alkBElSpVTCYT9oykxPYlMoz2R6YvWLAAYSyiuPhf7SYEqWqAY8ik3LiNUxFx584dbICgVq1aYclIVmxfIsP4+voiLM2ZPGUK8lgQH3MkyeTlP8eRiIiPj8cGCProo4+wZCQrti+RYZYsWYKwNGfEiBHIY0GD521R1QDH8tNj+jqch6CQkBBsgKClS5diyUhWbF8iw2zcuBFhaU737t2Rx4I8l+1SNQHH8vNxwC6ch6BPP/0UGyDo8OHDWDKSFduXyDB79+5FWJrTsmVL5LGgmWv5oAXjZ3HYEZyHoJ49e2IDRDg5OWVnZ2PJSFZsXyLDnD9/HnlpjouLC/JY0LKdx1VNwLH8hMUl4zwE1atXDxsgol27dtgwkhjbl8gwyg2Kg4MDIrNEdnZ2RUVFiGQRmw6eVzUBx/Jz+koOzkNEfn4+jl/Q6NGjsWEkMbYvkZHq16+PyDTn7t27SGUR+xLTVU3AsfzceZCH8xCh/VcjKoGBgVgvkhjbl8hIb7/9NiLTnAsX9Dwd9lxGrqoJOBaeTp8GFxfjOIRs3bYNZy8oPj4e60USY/sSGWnw4MGITHNiY/V8UHDOXX7YpMEzbpmeTwlVfPnllzh7EbVq1crNzcV6kcTYvkRG8vHxQWqas2bNGqSyiKfPX6jKgGPhCYg4jsMQ9MEHH+DsRfTu3Ru7RXJj+xIZKSAgAKlpzty5c5HKgjp9GqzqA44l54fTaTgJQW5ubjh7EXPmzMFukdzYvkRGioiIQGqa4+npiVQWNGjuZlUfcCw512/dx0mI0P2C571792K3SG5sXyIjJSYmIjXN6dOnD4JZ0OQVMao+4Fhs3p64sqhIz2uuTp06hYMXUb169ZycHOwWyY3tS2Qkk8lUqVIlZGeJdH/clX94vKoSOBabUf47cQyCVq5ciYMX0bVrVywWSY/tS2Sw1157DdlZIicnJwSzoC2HklSVwLHYfLPjGI5B0NixY3HwImbMmIGtIumxfYkM9u677yI7zXnw8CGyWcSRC9dUlcCx2MQlXcMxCGrZsiVOXURUVBS2iqTH9iUymJeXF7LTnKSkJGSziAzTPVUlcCwzrb0C7+c9xTGIKCgosLOzw6lrVrNmTT5cwYqwfYkMpv1NR5G79DyoLv9ZgaoVOJaZQfO24AwEnTt3Dkcuok+fPlgpsgZsXyKDxcbGIj7NWbp0KeJZUFffNapi4FhgFm3T+WDB4OBgHLmIJUuWYKXIGrB9iQyWmZlpb2+PBC2Rt7c34lnQ2KURqmLgWGD2n8nAAQgaOnQojlzEmTNnsFJkDdi+RMZr1KgRErREvXr1QjwLWhx2RFUMnPKe1l6B9x4+wQEIql27No5cMzc3NywTWQm2L5HxevbsiRAtkVLSiGdB249eVHUDp7znw6/DcfUFXbt2DectwsvLC8tEVoLtS2S8SZMmIUTNefpUz2to+ZxBy8+a2ERcfUHr16/HYYsIDw/HMpGVYPsSGU/7Bxvpe9PRg8dPVd3AKe9JN93D1Rc0cuRIHLZmNWrUyMrKwjKRlWD7EhnvyJEjyFFzNm/W+SaW/5m2VlUPnPKb92Zs0PdEfYWrqysOW7MBAwZgk8h6sH2JjHfz5s1atWohSks0Y8YMhLQg3+BYVUNwym/8wo7iugvKzs7GSYtYt24dNomsB9uXSArdunVDlJZI95OOQg+cVzUEp/wm8YoJ111QUFAQTlqzatWqXb9+HWtE1oPtSySF6dOnI01L1KBBA+S0oAuZP6kaglNO02vGen1PFVR0794dJ63Z+++/jx0iq8L2JZLCjh07kKbm/Pzzz4hqEQUvCt29V6h6glMeExzzIy66oEePHun4eOeQkBDsEFkVti+RFDIzMzU+6HfPnliktSCvgF2qnuCU+bT2CjTd0/MoKsV2zT+B/VuVKlWUzcEOkVVh+xLJolWrVsjUEs2aNQtpLWj70WRVVXDKfMYujcDlFvfhhx/ijDXr27cvtoesDduXSBYaH6jeuXNnpLWguw8fK3dmqrbglO3EnLqCyy3o5cuXr7zyCs5Ys40bN2J7yNqwfYlkERISgkwtkYODw4sXL5DZgsZ/t1vVFpwynJ7T1xW8LMS1FnTw4EEcsGZ169bNycnB9pC1YfsSySIpKUnji27Onj2LzBYUn3xdVRicMpxNB8/jQovT8WvnCRMmYHXICrF9iSTSokULJGuJ5s2bh8wWVFRU3Hf296rO4JTJdPo0+PHTAlxoQQ8fPnRwcMDpahYfH4+9ISvE9iWSyOTJk5GsJXrzzTcR2+I27j+nqg1OmcyqmFO4xOJWr16No9Wsbdu2WBqyTmxfIolER0cjXM25evUqklvQg8dP23/CN/6W8Sg3vg/y9Dx+6jfu7u44V838/PywNGSd2L5EEjGZTM7OzsjXEi1evBjJLW5e6CFVeXBKOZtL8Te+GRkZOFTNqlevnpaWhqUh68T2JZLLiBEjELElat26NcJb3JWcu6ry4JRm+s8JfaH3pc4KjR8y+ntjx47FupDVYvsSySU8PBwRa87FixeR3+LGLYtUVQhH95y4lIXLKu7JkyfVqlXDiWpjb2+fkJCAdSGrxfYlkovJZHJxcUHQlsjT0xMRLi7xiklVIRx9MzEoGtdUl6VLl+I4NevRowd2hawZ25dIOqNGjULQlsjBweH+/ftIcXGj/HeqioQjOp2nhty+n4cLKu758+e1a9fGcWq2fft2LApZM7YvkXQiIyMRtOYsW7YMQS7u2MUbqi7hiE5cUiaupi5r167FQWr2xhtvYEvIyrF9iaSTm5tbt25dxG2J6tevX1io//U+Y5ZGqOqEo33mbzqM66hLUVHR66+/joPUTPl5C1tCVo7tSyQjjb98VsTG6nzgoOLitVt87oK+GfjVpvznOj9t+zc7IyJwhJq5urpmZ2djRcjKsX2JZLRr1y4krjk9e/ZEnOsyLSRW1Sscs9PVd03OXZ0P8f3Nixcv/vrXv+IINfP398d+kPVj+xLJSPsvnxUZGRkIdXE5dx629+ZHXwlMh09Wpty4jcunV0BAAA5PM9742hi2L5GkRo8ejdw1Z8yYMQh1XVbvOa0qGM5/mzZey+OSruHC6XXv3j0nJyccnma88bUxbF8iSe3evRu5a46dnV1OTg6iXVzBy8IBczapaobzx2kzfnl0QiquWil8/PHHODnNeONre9i+RJLKzc2tV68e0tecTz75BNGuy/mrN/nyq5LH3XvFoXM6n2zxe8nJyTgzEUuWLMFakK1g+xLJy9PTE+lrjr29/e3bpfrLSL+wo6q+4fx7PCatOpWajStVCsXFxZ06dcKZaebm5paTk4OdIFvB9iWSV0xMDAJYg8lTpiDjdSl4UThswTZV63CU6Tl93cXrt3CZSkfHi60UW7du/W0fyJawfYnkdfPmzb/85S/IYHPs7OwyM0v10Us5dx++MyVY1T0VfMZ9E/nzwye4QKVz+fJle3t7nJZm/FRnW8X2JZKaj48PYliDIUOGIOn12nPqiqp+Kuy09goMikooKirGpSmdp0+furm54Zw0q1Sp0okTJ7AKZFvYvkRSO336tHJTizDW4MyZM8h7vZTKUfVQBZxeM9afTNH/3MA/mjhxIk5IhJeXF/aAbA7bl0h2Hh4eCGMNOnfujLzXq7j4X7PX71e1UcWZNuOXL9ken/+sAJejLOzduxfHI8LFxSUtLQ1LQDaH7Usku2XLliGPtdm6bRtSX6+XhUXjv92tqqWKMEPnb7tU6s+xUrl27VqNGjVwNiLWrFmDDSBbxPYlkl1GRkb16tURyRrUrFmzNM/9/c2TZwXjvolUlZMNT68Z6yOPpxQWFeH7LyP37t3T/rq53+vbty+On2wU25fICmh/5NFvxo4di/gvhYKXhb7Btv8Mhq6+azbuP/f8xUt822Xn2bNnHTp0wJGIcHZ2Tk5OxtmTjWL7ElmBkydPir5Z5dixYyiBUnhZWDRz7T5VXdnMdP9szfq9Z0r5oMD/pqioaODAgTgMQUFBQTh4sl1sXyLr0KVLF2SzNo0bN3769CmqoBSKiouX7z5pY59D+Y9F4bE/XlFu7vFNlgNfX1+chCC+wbeCYPsSWYeNGzcinjUbN24cqqDUDp/P7PSp1X8Qh7v3itnr95f566pUiouLP//8c5yBIBcXl6SkJBw52TS2L5F1uHnzpo7nsYdv345OKLVb9/Os9HVYyo37mKURO+IvPsgrg18GlKyoqMjLywtXX5C9vX14eDjOm2wd25fIaixcuBA5rZmjo2Npnr2vUlz8rx9Op73rs1pVb9LOoHlbVu85nXvvIb6BclZYWDhy5EhcenHTpk3DSVMFwPYlshrZ2dkNGzZEVGvWpk2bgoKy/OyI+3lPF4cdaTchSFV1kozyhXku2xV64NyN26V925WQZ8+e9e3bFxddXMeOHU0mE06aKgC2L5E1Wbx4MdJahJeXFyqi7OTcfTgv9JC79wpV+Rk1Paevm7/pcFxS5pMy/Zgqje7du6fj0YH/VqdOnQsXLuCMqWJg+xJZE+X2V9+nN/j5+aEoytS9h0+CY37sNWO9qgstM0rjzlizN/xI8tWbPxeXzdMQ9Dh16pSLiwsutLgqVarExMTggKnCYPsSWZlvvvkGsS0oLDwcdVHWioqKf0zNWbg5rvtna1QFWeYzYM4m5R53z6krFvvb3JIFBgYKPQZDRfl3V6xYgaOlioTtS2RlTCZT48aNEd4ilKCPj49HaZQPpYYvZ90JPXBuYlB0V98yaOIOn6wctmDblxsObDmUdDY991H+c/xJEsjLyxsyZAgurl6zZs3CuVIFw/Ylsj6rVq1CeAuqWrVqamoq2qP83X34OCElOywuOSDi+LSQH8Z9Ezl43pZen6/vMjXkt3lnSrDyv31mbhj41aaRfjumroz9ekvc6j2nI4+nKF1750Gegb9PLtnZs2f1/Qz0eyNGjMCJUsXD9iWySh07dkSEC6pVq9aFCxfQISQuPz9f94dp/F7nzp2zs7NxnFTxsH2JrNLJkyednJwQ5IKUf1H511EmJCI2NrZevXq4jqXg7u5+9epVnCVVSGxfImvl4+ODLBfn4OCwf/9+VAppcPv27Y8++giXr3Tatm2bkZGBU6SKiu1LZK2ysrKaNGmCRBdnZ2cXuWsXuoX+u8ePHy9cuLBy5cq4cKWjVG96ejqOkCowti+RFYuIiCjN210UgYGBKBn6g2fPngUEBNSoUQMXq9RatGhx5coVHB5VbGxfIuv2wQcfINr1GjFiRH5+PgqHfvXixYtNmzY1aNAA16gseHh4pKWl4diowmP7Elm3jIyM0r/1pWXLlunp6Wieiu3x48fBwcH6PlCsBO+9997169dxZkRsXyIbcPjw4apVqyLm9bK3tw8MDCyW9g225e/atWuff/75K6+8gitSdsaMGZObm4vTIvoV25fIFixfvhxJXzrKLVp2djbqqGJQfuDYt2+f8o3jEpQpOzs7Hx8fHBLR77B9iWzE8OHDEfml4+DgsGTJkpcvX6KdbNf169cXLFjw+uuv4zsvazVq1Fi3bh2Oh+g/sX2JbMSNGzfeeustBH+pubm5xcTsQU3Zltu3bwcGBrq7u+NbLR9NmjQ5evQozoboD9i+RLYjMTHR2dkZ8V8W3nnnnYSEBLSWlbt///7333/fvXt3fG/lqX///pmZmTgVov8P25fIpmzZsqVSpUoogTLi4eGxZ0+slb4gKzU11c/Pr1u3bqV8Y7RGlStXXrBgAQ6D6L9j+xLZmpUrV9rb26MNys4bb7yxatWqhw+leKpuyZQvcmdExOjRo1999VV89RahXKKDBw/iGIhKxPYlskFff/01CqGsKb3+j3/84/Dhw4WFheg6Ofz8889R0dE+Pj7t2rXD12pBjo6O3t7efGYRacf2JbJN06ZNQzOUj2rVqo0aNSomZo+Bn5OVlZW1adMmT0/Ppk2b4ssygvKn//DDD7juRNqwfYls1sKFCy3wl53KH+Hh4fHFF18oN8SPHj1CMZaD4uLizMzMHTt3zpw5s1evXmX7+jJ9qlatqtxtKz8E4IoTacb2JbJlfn5+5fF3wCVwdXXt37//3Llzt27blpCQoHwNOl6u9eTJk4yMjOPHj2/YsEHp2kGDBrVo0cLBwQF/hhx69OiRmJj423UmEsX2JbJxgYGBZf4qaCHKzXG9evWU+uzSpcuAAQPGjBnj+Z8+/PDDgQMHduvWrX379q+99ppsLftHzZo127FjB64vkS5sXyLbFxUVVbt2bVQHlUKDBg38/f1NJhOuLJFebF+iCuHUqVNubm7oEBKn/Pgya9Ys/hUvlRW2L1FFkZ6e3rt3b5QJadawYcP58+fz+YBUtti+RBXLd999Vx4P0bNJLVq0UC5XTk4Orh1R2WH7ElU48fHxzZs3R8PQHzg6Or733ns7d+7E9SIqB2xfooooKytrypQplStXRuHQr1xdXadNm5aUlITLRFRu2L5EFdeJEyc6deqE5qnAqlat+re//W3z5s25ubm4NETljO1LVNGtWrXqz3/+M4qoInF0dOzevfvy5cuvXr2Ka0FkKWxfIvrp+vXrc+fOdXFxQS/ZNCcnpx49eixbtiwlJQXfP5HFsX2JCDIzM2fPnm3hp/JZTN26dYcMGbJmzRo+955kwPYlov9w9erVRYsWNWvWDK1lzapVq6bc5s6fP//o0aP49ojkwPYlov/fvn37Bg0aZOxnROvg4ODw1ltveXt7h4eH84G7JC22LxGV5OLFi4sXL+7YsaPMDz+oWbPmu+++6+vrqzRuRkYGvnQiibF9iUiTS5cu+fv7KyUnyUdlNWrUaPDgwX5+focPH+Y7hcjqsH2JSEx2dnZ0dPTMmTO7du1arVo1lGE5U+68mzZt2r9//9mzZ4eFhfHlymTt2L5EpJ9y05mQkLB27VpfX99+/fo1adLEyckJhVkKderUcXd3V25tlf9sUFBQbGzstWvX8EcS2QS2LxGVMeXGNC4ubvPmzQEBAbNmzZo0adKECRP+/ve/Dxs2TGlohXILq/yjwsvLy9vb+8svv/z2229DQ0OVlk1MTGTRku376af/BSG9yfRJYEhCAAAAAElFTkSuQmCC;fontStyle=1;fontSize=16;" parent="1" vertex="1">
                    <mxGeometry x="851" y="182.5" width="100" height="100" as="geometry"/>
                </mxCell>
                <mxCell id="54" value="" style="shape=doubleArrow;whiteSpace=wrap;html=1;fillColor=#dae8fc;strokeColor=#6c8ebf;" parent="1" vertex="1">
                    <mxGeometry x="635" y="208.5" width="193.5" height="48" as="geometry"/>
                </mxCell>
                <mxCell id="56" value="" style="shape=image;verticalLabelPosition=bottom;labelBackgroundColor=default;verticalAlign=top;imageAspect=0;image=data:image/png,iVBORw0KGgoAAAANSUhEUgAABBAAAAGUCAIAAAADHkbOAAAAAXNSR0IArs4c6QAAAARnQU1BAACxjwv8YQUAAAAJcEhZcwAADsMAAA7DAcdvqGQAAAASdEVYdFNvZnR3YXJlAEdyZWVuc2hvdF5VCAUAAJYqSURBVHhe7b2FexzX3Yb9/Qff9dVOmrR9+xbSNmljy5C3EGhSSpykAVtgSWZmZpJllpmZmWXLzDJbliyyBZaFFjPTYr/j7Imq/LQwMzuzM7N67uu+2lzWnDOzO9rV8+wO/D//AQAAAAAAAAAHoDAAAAAAAAAAHILCAAAAAAAAAHAICgMAAAAAAADAISgMAAAAAAAAAIegMAAAAAAAAAAcgsIAAAAAAAAAcAgKAwAAAAAAAMAhzgqDqbig8c61huvnG29darx7venBraaou80xD5rjHzc/jTUkJxieJxkznhuzM0x52abCfHN5qaWuxmo08PEAAAAAAAAAneOwMNSFHyr45J38v/xSiu//io0t/Kxr4dd/KfL/W3GfHiWDvy0d1bts4sDyGcMrQsZXLpletSqkesOSmu2ravdtqju6q+70wfoLJ1+VE9ZMHt9lncSQkmjMTDMV5llqa6xWK98sAIC3k9tsHJKR3/1phk9ixuaiikaLhf8AAAAAAGpgvzA0PbpDO4C6sgbyaeci349KBn5VNq5vxZwxlWGzqjeH1R7YWn/mSOPNi03R9wypT035Ly011VbECwB0S2pjc6cnz999lNTiwIx8/jMAAAAAqIH9wlA+fRiN7DqStYt/+RT1+mvJgC/LxvUpnz26ctnM6k3LavdvqT9zuOHGhabHd40vUsxVFfzRAgC0QXoTbQs2r1TV8SUAAAAA4HHsF4bSkQE0hXulH/+2yPej0lEBFSETqjcurTu+t/HWJUNSvLm0yGo28+cCAOARspoMnWLttAXm4rxSvhAAAAAAPI79wlC1KoRm6/bmB78q/OpPJUO+LZ85smpNaO2h7Q1XzzbHPTblv7QamvnTBACQiZfNhs5xaaQntBiSW8KXAwAAAIDHsV8YjDmZBf/yoRkafm/hF++VDutVsWBKze4NDdfOGVISLXU1/LkDAIgk32B00haYi/ANAwAAAKAe9gsDw/AsruCf6AwiLOzRrWRoz4rQyTW71zdcPWtIjrfUVPNnEwDggCLWFuJfkIZAXJaPwgAAAACohsPCwDCkJBZ82pnEYijKws/fKx0bXLV2Qf25Y68qRFMjf3IBAP/5T6nR1DkhndSDtq4sKOMDAAAAAOBxnBUGhiEtubBHNxKCoXTf/1WR3yflM0bU7FjTePOi8WUmLgIL2i3lrC0kum4LzLWF5XwMAAAAADyOi8LAMGY8L/ziPRp8oVx+/HbJwK8qF0+rO3XA8PyZ1WTizzsAXk2Vydw1MYMUA0duLEJhAAAAAFTDdWFgGLPTC//9R5p0oQIWfPJO6ciA6o1LGm9dMpcW8x0AgHdRYzL/8WkmaQVO3FaMu6YAAAAAqiGoMDBMuVmFX/+FpFuotOw5L589uvbwzubEGGszLucKvIE6s/n9ZyLaAnNXSSUfDAAAAACPI7QwMEz5L4t6fkASLfScH/6mZNDX1RuWND26Y21u4nsFAF3RYLb8NSmL9AGX7itFYQAAAABUQ0RhYJiK8ot8P6JBFnrev/6udExQ7b5NhuQEnDYN9EKTxfKP5GxSBoR4qKyKTwEAAAAAjyOuMDDMpUXFAX+n+RWqZ8GnnctnjaoLP2TKy+E7CQDt0WyxfJYipS0wj5XhliYAAACAaoguDAxzeWlx4L9IbIVasKjXXyuXzWy8dcnS2MD3FgAawGix/js1h9QA4Z4qx53UAQAAANWQUhgY5oqy4j49SFqFGvLjt8tnjGi4etZSX8f3GQAqYbJaez5/STqAKCMqUBgAAAAA1ZBYGBjm6sqSAV/SnAq15l9/Vz51aMOl05ZaRC6gAmarNSAtlxQAsV6srOXTAQAAAMDjSC8MDEtNdcngb2hChdr0o9+VTRpUf+4Ya3p8/wGgMBartW96Hkn/ErxZjS/KAAAAANVwqzAwLPW1pcN60WwKteyHb5WN68uag6Whnu9FABTAarUOysgn0V+aD2txTg4AAACgGu4WBgbLnaUjA2gqhZq34B/vVi2fY0hL5jsSAPlgbWF4ZgHJ/ZKNq2/k8wIAAADA48hQGBiWpsbSscEkj0K9WDL4m1dfOODCSkA+xmYVktDvjqmNuM05AAAAoBryFAaGtbmpbGJ/kkShjiz4R6eqFXONL1L4HgVAKpNzikjid9OcZgOfGgAAAAAeR7bCwLAamsumDCYxFOrOkiHf1p87bmnCQSBACjNfFpO4774lRhOfHQAAAAAeR87CwLAaDeUzhpMACvVowb98anassdTgDrtABCG5JSTry2KNycxXAAAAAACPI3NhYFhNpoo5Y0j6hDq14B+daratstRU8b0LgGOW5JeSoC+XRouVrwMAAAAAHkf+wsCwms0V8yeS6An1a8Hf/1C9OcxcWc53MABtWFlQRlK+jPJ1AAAAAEANFCkMDKvFUrloCsmdUNcW/O0P1RuWmCtK+T4G4HvWF5aTiC+jnR7jRHwAAABATZQqDAyr1VoZNouETqh7P367au0Cc1kJ382g3bOlqIJEfHntFJPK1wQAAAAANVCwMDBYZ6haNZ8mTugFfvzb6i0rcCUlsKukkuR72e0U+5yvDAAAAABqoGxhsFG1bhGNm9ArLOr5QePd63w3g/bHgdIqEu6VsHP8C74+AAAAAKiBJwoDo3rLcpI1oddYPnWoqTCP72nQbjhaVk2SvUJ2TkznqwQAAACAGnioMDBqdqwhQRN6jQWfvFO7b5PViNvxthdOl9eQWK+cf36WydcKAAAAADXwXGFg1OzdSIIm9CaLA//RHPOA72zgvZyrrH03isZ65fwkOYuvGAAAAABq4NHCwKg9tJ2kTOhlVoSMN5fj0qtey6VXbSGZZHpF/Tw1h68bAAAAAGrg6cLAqDu2h0RM6GUWfNql6f5Nvr+BF3G9us7DbYHZK+0lXz0AAAAA1ECFwsCoO32QREzofVZvWWE1m/kuB/rndk2959sCs88LnFIPAAAAqIk6hYFRf+5Y/vu/IhETepmlowNxeJJ3cL+2odPjFBLlPeOQjHy+EQAAAABQA9UKA6Ph0un8D9AZvNzCf/9fc1wU3+VAn0SxthCtTltgjs0q5NsBAAAAADVQszAwGq5G5H/4FomY0Nv84Fe1+7dYrVa+14GueFLXqGJbYE7LKeKbAgAAAAA1ULkwMBpvXcr/8Dc0YkKvs3zqEEtNNd/rQCck1Dd1ik4lCd7DhuSW8K0BAAAAgBqoXxgYjXev53/0O5IvofdZ1PNDY3oK3+tA8yQ1NHWKUbktMJfm4zQYAAAAQE00URgYTQ8j8z/+LcmX0Pss+JdPc+ITvteBhnne2Nzpifptgbm2sJxvEwAAAADUQCuFgdH0+G7+x2+TfAm9z4JP3ml6dIfvdaBJ0ptYW3hOgrtabiuu4JsFAAAAADXQUGFgNMc+KvjbH0i+hF7oR79rvHmR73WgMbKaDJ1itdIWmPtLq/iWAQAAAEANtFUYGM0J0QX/eJfmS+h9fvCr+gsn+V4HmiG32dg5Lo1EdnU9Xo5z5QEAAAA10VxhYBiS4gv+6UPzJfQ+3/9VffghvteBBigwaK4tMC9W1vLtAwAAAIAaaLEwMAypTws+7ULzJfRG6w9v53sdqEoRawvxL0hY14IPaxv4JgIAAABADTRaGBjGFymFPbqRcAm9z4IP3mrcsYLvdaASpUZT54R0ktQ1YmpjM99KAAAAAKiBdgsDw5iZVvjF/5F8Cb3Pok/eblwfyvc68DgVJlPnRI22BWaxwcQ3FAAAAABqoOnCwDBmZxR+9SeSL6H3WfLpu00rZ/C9DjxIlcncLTGDZHRNabBY+LYCAAAAQA20XhgYprzsom/eJ/kSep8VX7/XvHQi3+vAI9SYzH98mkkCurZ8nMy3FQAAAAAqoYPCwDAV5Bb1/JDkS+h9Ngz4R/OicXyvA4WpM5s/eKbttvAoqdOT53xzAQAAAKAS+igMDFNRfpHfxyRfQi+z4KO3TON7NoWO5nsdKEaD2fJxUhZJ5xq0c0I632IAAAAAqIRuCgPDXFpU3PvvJGJCL7PsCx/T1N7NISOtOHJdMZosln8kZ5Nork0/SsriGw0AAAAAldBTYWCYy0uLg/5FIib0Muv7/e1VZ5g7FJ1BCZotlh4pOSSXa9avn7/k2w0AAAAAldBZYWCYK8uL+35OIib0Jgs+eMs07ttXnWH2IKsJl9SUE6PF+lWqbtoCc0B6Pt90AAAAAKiE/goDw1xdWTLgS5IyoTdZ8fV7rDC86gwzB1iNRr7jgXuYrNZeaS9JIte4E7ML+dYDAAAAQCV0WRgYltqaksHfkpQJvUnj6K9sncEwo5+1Gff6dRez1dr7RS6J49p3QV4JfwAAAAAAUAm9FgaGpb62dLgvSZnQa7Sd/cw7w7S+1sYGvuOBeCxWa9/0PJLFdeGGonL+GAAAAACgEjouDAxLQ33pqAASNKHX2Dz8i/92hqnB1oY6vuOBGKxW6+CMfBLE9eLB0ir+MAAAAACgEvouDAxLU2PZuD4kaELvsOTTd1sKw6vOMCXQWlfDdzwQzIjMApLCdeSFylr+MAAAAACgErovDAxrc3PZxP4ka0LvsGnoZz/oDJN7W6or+Y4HAhiXVUgiuL58UItD0QAAAACV8YbCwLAamsunDiFZE3qB5V92bV0YXnWGSQGWyjK+44FTpuQUkfytO1MacL47AAAAoDJeUhgYVpOxfMYIEjehF2ga35N0BuMkf0tZEd/xwAGzXhaT8K1Hiwy4qC4AAACgMt5TGBhWk6lizhgSN6HerQl4nxQG5qvOUFzAdzxow/zcEpK8dWoz7vYNAAAAqI1XFQaG1WyuCJ1MEifUtYUf/9Y0JYAUBqZxop+5MJfveNCKJfmlJHbr1ahk/pAAAAAAoB7eVhgYVoulcvE0Ejqhrm0c/ClpCzZfdYbcLL7jwXesKiijsVu3dnrynD8qAAAAAKiHFxYGhtVqrQybTUIn1K+tb+JGnehrzk7nO77ds6GonGRuXds5AXsWAAAAUB/vLAw2qlbPJ7kT6tX3f2Wa5EerQousM2Sk8L3ejtlaXEECt979MAlfHwEAAADq482FgVG9fjGNnlCfNg3+wQ0ZqBN9Tc+f8r3eLtldUknSthf4VWoOf3gAAAAAUA8vLwyM6i0rSPSEerSq559oSSCyzpAcx/d6O+NAaRWJ2t5h//Q8/ggBAAAAoB7eXxgYNTvXkvQJdWfRJ2/ThtBW1hmeRvO93m44VlZNcrbXOCG7kD9IAAAAAKhHuygMjNp9m0gAhbrTOOZr2hDaOtHXGPeQ7/V2wOnyGhKyvcnQvBL+OAEAAACgHu2lMDBqD+0gARTqy9rgv9J6YNdJfsboO3yvezXnKmvfjaIh25tcX1jOH6rXYTAY0tLSnv6QF2lpRiPubO0NZGRkDB0yuFfPb3p++63NPsFBV65c4T8GAAC90Y4KA6Pu+F6SQaGOLPvc8cVViawzPLzJ97qXcrmKtYVkkrC9zKNl1fzRehcZGekDBwzw9/PtHeDfWj/fXoMHDczOzubLAd0ybOiQlqrQom+vnmVlpXwJAADQFe2rMDDqwg+RGAr1YuFff0uLgRNZZ7jrtZ/n3aiu8/q2wLxXU88fsHcxauQIEiVb7NXzmwnjx/HlgG5h3Y/sWSbrhPHx8XwJAADQFe2uMDDqzx3Pf/9XJIxCXWia4EuLgRMn+Rlunud73Yu4XVP/7mPvbwvMrCYDf8xeRGpqit002SL7YVZWJl8a6BO2E8luZb4qDHHt9EpuAAC90x4LA6PhUnj+B+gM+rNpSA/aCpzLOsPV03yvewUPahs6PU4hwdpbNVgs/GF7EevXrbWbJltkdWLbtq18aaBPUBgAAF5GOy0MjIZr5/I/fIvkUahxa4OEnffc2kn+hovH+V7XOY/rGjpFt5e20CkmlT9sL6KpqSnA34/kyLYGBfbG2c+6BoUBAOBltN/CwGiMvJz/4W9IJIVatuLr92gfEOJkf0PEYb7XdUtsfWP7aQvMrokZ/JF7ETdu3GCpkeTItrJS8eD+fT4G6BAUBgCAl9GuCwOj8d71/I9+R1Ip1KzF//g9LQMCZZ3h9F6+13VIYn1Tp+hUEqm9269Sc/iD9yKmTJ5EQqQj586ZzccAHYLCAADwMtp7YWA0PYzM//i3JJhCjfr+r1j0p2VAoJP9m4/t4HtdVyQ1NHWKaV9tgTkys4A/fm+hoKCg9YX5ncuWLCsr4yOB3kBhAAB4GSgMr2iKvlfwyTs0m0JNahr3LW0Cwp0c0Hx4C9/rOuF5Y3OnJ89JmG4PLs7ztivW79+319/Pl4RIRwb4+5044SXn3rRDUBgAAF4GCgOnOS6q4O9/INkUalDDyC9pDRDllIDm/ev4Xtc86U3ttC0w95VW8mfBKzCbzf369iEJkslC5MgRI9j/kn9nDhk8iA8GegOFAQDgZaAw/JfmxJiCf3Qi8RRqzcbBn9IOIFbWGXav5Htdw2Q1GTrFttO2wLxeXcefCK8gJibG7tcLfr69CvLz7R6qxH6UlJTExwNdgcIAAPAyUBh+gCEpvuBfPiShQk1Z3+9vtABIkHWGbcv4Xtckuc3GznFpJEO3K1Mbm/lz4RUsWrSQxEcm6wnLw179Hi5YEEp+xGShc/XqVbbhQF+gMAAAvAwUBorh+bOCT7uQkAq1Y03ghzT9S3NKQNPmRXyva4wCA2sLL0iAbm/Wmc386dA/1dXVdhOkv59vfHw8W+Dx48d278/AFmhsbLRNoihWqzU/P//27du7d+1atXLFkiWLly1dunbtmpMnTsRER5eWKnU+SV1dHcvQJ04cX79u3fKwsCWLF9nWe/TokduRkc9TU5V7+AaDISsr8+7du0cOH16zejVbL3vU7LFv3LjhTPiZpGfPmpqa+KLiEVUYigoL2Wbs2bN79aqVbCuYa9esPnny1TNfVqbgmTxms/nly5d379w5eOCAbaezVbNtOHBgP/tH9iO2AF8UANDuQWGwgzE9pfDz90hOhRqxqtefafR3w+b1IXyva4Zig6lzfHtvC52iU/jT4RVEnD1r9yyFAf37Wb67mzVLZn2Cg8hPmWzU9evXbJNIoL6+fkHo/OCgQDYPk/3fiOHDoqMf8x9/R0lJ8ZbNm9lPe/X8hi1Aki5rLLYtHzxoIIvRtbW1fJh7FBUVbd+2lc3JZmbztz1Yy8+316uN9vNl2xMyb+7NmzcaGhr4YPdgT3VcXOyKFcttk7O1sHWRtbMtYj9lT8jIEcO3bt2Sl5fHBwuGPI022QNqXRgKCgo2bdrINsD5Mz9m9KhrV682N8v5hVtmZubmzZvY/LZngKza9uSzrWL/wZ6o1FSvejECAKSBwmAfY2Za4Rf/R6Iq1IIVX3Unod9Nm1fP4ntdA5QaTZ0T0kl6bod2TnjBnxGvYMTw4a0DmU0Whw8dOsiX+M9/du/e1TY3MydNmsiXEM+mjRvbpmG2FlYk2E/Ly8uXLw9jP7e73rZ+F+B77d+/z50PnktKilevWsnCqMCV2mSrZrWH1QY+i1Sioh4NHDDg1cMQfH1btixbeEFoaEF+Pp9FACSC22wpDPX1dRvWr2fLtN07dmUDWYK/HRlpm9wdXr58OXnSROGrti05etRI21dhAIB2CwqDQ4w5mYVf/YmkVai6pT06k8Tvvk3Lp/G9rioVJlPnRLSFV/4rJZs/KfrnRVoaS10khzFZDC0qKuIL/ec/ubm5dlMs+8d8MVG1NdOnTyOzMf18fTMyMtLT0/v17SMwNbaWtYZpU6dWVFTwdYjh7t27LKxLWKlNNpY9otqaGj6dGNgGL1ywQPKq2Tjm4UOHrFYrn9EpbGEyA9NWGPLy8oYOGSyqL9lkO451LcnHaLGad+L4cfYMCC9LrWWPaPeuXSaTiU8HAGhnoDA4w5SXXfTN+ySwQnUt+ee7JO7LYvNS6Z/jykKVydwtMYPk5nbroAyJEVmDbNq4wW58nDZ1Cl/ieyaMH0eWYbJkuW+vxJuUs1WQ2ZgsMu7fv09CYG2RzdC3T3BxcTFfjQBYWt21a6fkvN4im2H0qJH19eKuoMXKWL++fd1fu7+/3/KwMKPRyOd1jKPCsGfPbva/0iI709/Pb8rkSRIOT2JD5s6Zbfc8GeGy4ePHjauRVNgAAHoHhcEFpoLcop4fkswKVVShwsBsXjSO73WPU2My//FpJgnN7dm5uSLCqJZhQY0FRBK8mOwfb926xRf6nitXLttdmKVzaUcB2S0MssgC8Yjhw4R/2r1p40Y302qLrOrMmjVT4Cf9jIL8/OCgQDKJZNmjmDp1isvGYrcwyCLbgAULQoU/fIbJZJo9a5Ysz7+fn+/4cWM9cyI+AEBToDC4xlRcUOT3MYmtUC2VKwzMptBRfK97kDqz+YNnaAs/cFuxlCNeNMjtyEi7HYClt7afE9fX19v9FJxF5JjoaL6QGCQUBrYutm1CPoxnS61csYKvySn3791z8oUGW5XtQ/c+wUED+vdj/8vWzpZ3sg3+/n7Xrl7lszuFPclDBg9y+Yk+e8iBvQNsunzsbNsWLVrIV+AANgcZ5Vy2hWwbmEK+fGCLnT59iq9JAGvXrmFDyCQt2p589qjZk9+/f1+25Uwny7OHL7axAAC8ABQGQZhLi4t7/50kV6iKihYGZnPIcOt3F67xDA1my8dJWSQuw/OV8lyNR3XsnkXAAtn6dWv5Ej9k+fIwu5Fx0UIXCdUuAgsDS4dsk8aPG7tp48aTJ06cPnXq4MEDIfPm9ukT7CQ4MtmwlBQXl9AxGAx2LwDFtGXTLZs3szrU+kNrk8n07NnTPbt3Dxo40M/XftNgyV7IsTG7du108hDYj5jLw5ax/M1azaOHD2/fvr1/376xY0aznzopOexHkZH0C6LWsMdFhtiVhXXmrJkz2INlT/upkyd3bN8+Y/o0Nr/dntki2+yqqiq+MqfExsY6qkBskoEDBpwJP5Obm9vyFRZ78rOyso4cOcz2mqOnjv37pYsXbcsDANoJKAxCMVeUFgd/SsIr9LxKFwZm85yhVo+c29dksfwzOZtkZciMr/eGYx6Ki4vtpn8W4BxdqjIxMcFuTmWRr7q6mi8kGCGFgW3MwQP77Z7EbLFYWIYeM2a0o+DInOzqIk4sWNvNvuxhsoqSl5vLl7OH0Whcs3qV3bzL5jxz5gxfzgEZGRmOgjubkz2oixcuODofoLKycs2a1Y6iNpPlaSdH5jhab4ts7YMGDrh165bdDWAzX7l8OTgo0NEGsGfPUedsTVNTE1sLGWuTzcxaipND3diGrV2zxtEGsG2T60K3AABdgMIgAnNleXHfz0l+hR7WA4WB2TxrkNKdodli6ZGSQ4IytFnhFRdjOXTooN2oPWzoEL5EG6xW68ABdhIey8cRZ8/yhQTjvDCwMjOgf7+MjHS+tANYamfB0W6NYbJ/d3641KyZM8gQJhs1dcpkgXdGCwtbZje2jhwxnC/hgAULQh0VNja2pKSEL+eYe/fuOor+bI84ucyr88LAHv6qlStcngnASsuUKZMdPfPsobn8kuHI4cN2fwPZM3DjhqBr1J44cdzuBrBp9+2TeC4+AECPoDCIw1JTVTLgSxJhoSf1TGFgNs8cYBVwORRpGC3Wr1LRFuzrHXdts1gsLI6TmMUMCPA/deokX8gehw8dshvyXObjtjgvDGwtwi/YumzpUkfJdcnixXwhewwdMpgszxw8aKDwE2czMjLs5n72j4WFhXyhNlRXV9sdxezfvy/L4nw5V+zZvdvu7mDOnDmDL9QGJ4WBzbZq5UqB5wDU19cPHzaUzGCTNZYrVy7z5exhNpv79gkmo5hsA3bv3sUXEsC6tWvtPgOsddhu6AEAaA+gMIjGUltTMvhbkmKhx/RYYWA2T+9nlfUGqzZMVmuvtJckJcMW/+9pBn+m9ExcXKzdhM1SrPObGJSU2D+QiWXQ9HQX3wYQnBQGfz+h5w3bYNHQbvpksofp5LuC5WFh5DwEtnzbK0Q5Z/Soka1nsBnYO+DRw4d8iTY4urs2W/uD+/f5QgIwGo1jvjuloa1sNzn6jN9JYRg0cICj46DskpSU5Oi4oFmOGwvjcVSU3aDfr28fURtQX19n9zJT7OmV5V5yAABdgMIgBUt9belwfxJkoWf0ZGFgGqb1tTbKeaiu2WoNfJFLIjJsbfCLPP5k6ZmlS5fYzf3z5s7hSzjG0anSmzdv4ksIw0lhGDt2DF9IMCdOHLcbQFlwvH/vHl+oDQ0NDTt37pgze9bsWTOZc+fMDj99mv9MMHt27yYrZbLof+zYUb5EG6ZMnkSWtzl6tOgroT169MjuA2f/mJKczBf6IY4KAxty795dvpBg5s6ZQ+axyX7BnNxJLXR+CFmeyXbWuYgIvoRgzp49Y7d9LVy4gC8BAPB2UBgkYmmoLx3Vm2RZ6AE9XBiYhqlB1gZxN4pyhMVq7ZeeR/IxJIbkuj64XOPU1tbajYwsLz548IAv5JjIyFsB/nbyGQttBoOBLyQAR4WBzcMiIF9IMI4eFIutO7Zv5wspw7GjR+1+yr51y2a+xA+xWq2OIv7xY8f4QoIxm839+vYhUzHZbLFPnvCFfoijwsBKjqg9aOPq1St2Hw575gscHFTGngG7EZ9ZUiL6JielpaVkEpvs4Yj6sgIAoF9QGKRjaWosG9eHxFmotGVf+JBA7wENUwKtde7e35T9CR+ckU/CMWzrgVJB14vUMhfOn7cb14ICewu5TzALYXYDIpvzzp3bfCEBOCoMLGiWlZXxhcQwccJ4MpXN6dOm8SWU4eSJEyybkpUy169bx5f4IUWFhXa/3mE5Pisrky8khhs3brCxLfdqYLJ9MWTwIEdx2VFhWCTpI/myMvt5nW2DozPO8/Ly7D4Dw4cN5UuIZMzoUWQqJtspz58/50sAALwaFAa3sDY3l00cSBItVNTKb94jad4zGib3tlQLPVHSLiMzC0gyhnZ9VKv7yzXaTVd+vr22b9vGl3DFhvXr7YZO54etExwVhsmTJ/ElRLJr1067WxUcFMSXkJXampq0tLTbt2+zp85uYVjn4NKijx4+ZJmeLMzs0yeYLyGeFy9e3Lp588b16zYf3L/v5MwNu88SK4GXLkm8fcHgQQPJbExWGM6fO8eX+CG3bt2y+wxs27qVLyGS3bt3kamYbBU4jQGAdgIKg7tYDc3lU4eSUAuVs9rvLyTKe0zDpABLhZTPZRnjswtJLIaOLDPq+5qqmZmZdvMi+8esrCy+kCuep6baPQinV89vhFwP1IbdwsBmPXToIF9CJCwl2/3mhFlf79Zhe1VVVampKSyRHz50KGzZ0rFjxtjyLnsS2H/YbQtMR4XhvINveMaJP3NDGnZ/AdgDcXKyh3Ns95IjsqflxPHjfIkfsmfP7rbfMLAn88jhw3wJkZw+dartt16vJjwicUIAgL5AYZABq8lYPnMkybVQIWsDPyI53pMaJ/lbyor4jhfMlJwikomhI73gmqpbt26xm/XHiDzddthQO9fTZKFNeESzWxhYkr544QJfQiQlJcV2HxqzuFjckfF1dXU3btzYsmXz5EmTbN2AxV/2H47mt6ujwnD8+DG7HWP27Fl8CYWxWxjYM//kSQxfQiRTpkwmszGd5PXlYWFkYSZ7Ttg2HDt6VIID+vez+5QuXx7GVwkA8GpQGOTBajJVzB1Loi1Uwvp+fyMh3sMaJ/pbigv4jhfA7JfFJBNDJ76n82uqGo1GW/wlsqB24fx5vpAwTp8+bfdMhoEDBgi8ir/dwsA2T9SJEK2pr68js9lkyTUjQ9COMxgMD+7fXxA6n0Vqu18CiNJRYThwYL/dyL5s2VK+hMI4KgzxcXF8CZHMmD6dzMZkT/vhw4f4Ej9k9qxZZGGbbIhkyVQ2Z86YzlcJAPBqUBhkw2o2VyyYRNItlN3GwZ+SBO95jRP9zAUv+Y53SmheCQnE0LmBL3L5c6dP7t69azfls7hVW1vLFxJGZWWl3fNW/f18ExMT+UJOcVQYHj16xJcQCYv7ZDab7CEnJSXxhRzAxp46eZKt3f2e0KKjwrDH3gH3zDVrVvMlFEb1wuDoqrKyO3XKFL5KAIBXg8IgJ1aLpXLJdBJwobw2D/+CxHdVfNUZcl0cj740v5SkYejSeTq/pursWTNJorK5dImz2yE7Yn7IPDIPk7WIFSuW8yWc4qgwSD4whkFms8mi8NOnT/kS9oiOfjygfz+7VcodHRWG7du3kSVtbtq0kS+hMKoXhvHjxpKFFXLSxIl8lQAArwaFQWasVmtl2GyScaGMGsd8TbK7ak70NWe/4Du+DasKykgUhkLcr+drqpaWltr9ToA5csRwlmLFavfaOEyWFOvr6/laHePgHIaAmBj5C8OzZ/YLg8Vi2bNnt6MDWhzZ+/svIti4YUOHsP+wO4OjwrBj+3aypM32UxgmjLd/AVzZxTcMALQTUBgUoWr1fBJzoVyymE6Du4qyzpBh5yTdDUXlJAdDgT7Q8zVVjx09KvuH6HZl0fPK5ct8rY5x9A3D46govoRIjEYjmc0me9SO7nm8Yf16l88Jezi2hD1o4IA5s2exuH/xwgWWrYuLi1nfYJM4ug+Do8Kwd88esqTN1atX8SUURvXCYHfXyy7bKawN8lUCALwaFAalqN6whCRd6L4FH7xlmhJAU7u6sgLz/AefrW4rriAhGAq3wqTXa6parVaWd0miUs7x48fxFTvGUWGQfHHPiooKMptNlo+zs7P5Qq04e+aM3aBvkwXoXj2/mTxp4tmzZzIzM53cM9jRVY8cFYZDBw/ajexLJB0YJgHVC8O8uXPIwkzbtzRTp0yRxRnTp+3etUvIjQgBAF4ACoOCVG9dSfIudNOSf75L87oWZJ0hmeeAPSWVJAFD4XZ6ouO7xiYmJjoJx7LLovbLly7OvHdUGK5dvcqXEAlrBXajMLO0tJQv9D0lJcWOFg7w9xvQv9/lS5eqqgQdgXZgv/2rHjkqDCdPnrD7tQaL3XwJhVG9MKxetZIszHSyPAAAOAeFQVlqdq0jkZd5wa/nyjFzRs/f/eX6m1+vvT548ZFpMzesGjM78utPyZKQWPFVdxrWNSLrDM9iDpZWkQQMRflZip1PqfXCihXLHZ3AoIR+fr67du3k63aA3cLAkjTL03wJkcTGxrLUSya02fb7gfXr19ltUCy2bt+21cn3CW1ZumQxmcSmo8Jw6dLF3vYubjt61Ei+hMKoXhgcVayNG9bzJQAAQAwoDIpTu39zS9492H/o+zvj37v0H0d2PlowaPHRPYNGZnz0dsso2GJNwPs0qWvHSX5vX40kCRiKcmqO6JviaYT6+nrb8R6etE9wkMnpEVyODmQPCZnHlxDJjh3b7cbQgQMG8CW+h22Y3SeEVYj9+/bxhQQzatRIMo9NR4XBUbFh/2g2m/lCYmCjjhw+vGBB6PyQEJurV63MzMzkP26D6oXh/r17gfYq05jRo/kSAAAgBhQGT1B7eOeLv/7+i/W3SD1wYpdTlVNmb4r71x9JYm7nNgz4B43pWjJ/zuDf34khIRgKV7+XSLp86ZKjj96VM8DfLyrK2R0VHBWGXj2/EXgsEIEVAzKVzfnzQ/gS3/MiLc1uYRg4cICo7xYYdXV1dvM301FhqKysJEvaZPO4vF+EXfbs3t32GCdWfhw9jaoXhqLCQrvfd7F/zM/P5wsBAIBgUBg8QWmjtfPRIlIJhNj9vCE4LPz6t1+Q3NxuNYz8kmR0rRm6ezMJwVC48fWN/DWjN8aNHUOSWYuBvQPcl8zZYtuk3hpHhYEl13MREXwhwWRlZZF5bLLYeujgQb7Q91y5crntQUEsre7bu5cvIZjr1685KmOOCgOjT3AQWZjJNpVFf76EYBoaGuweW9U7ICA6+jFf6IeoXhgYbPPI8kxWew4fwmkMAADRoDAoTlmjtfsZE2kCYu29IiL207+Q9NwONU3yIwFda1bN7v/7u7EkB0OBNn93DU3dkZNj/1RgljIPHaJJWhq7d++ym1lZBK+srOQLtcFRYWCOGjnSdsVS4Rw8eMDuNrB/THr2jC/0PWfOhLf9SJ4F3COHD/MlhME20kkZc1IYQubNJQvbHDRwoNijkq5cvmy3sbCH8+KF/TuxaKEwLHFw4seQwYP4EmKIjLy1auWKpUuX2AxbtuzE8eO4RBIA7QcUBmWpapKhLdjsdrZh3tQVWR/+jmTo9mPhX39D0rk2HXV4H8nBUIidExzeBU/j7Nyxw1GaLy4u5gu5R15ent0jTFgoP336NF+oDU4KAxt4/NgxvpwACgsLWTwlk9js2ye4bfe4cOG83ZC9cuUKvoQwLl++1LZ4tOikMNyOjLS7AWy28+fO8YUEUF1dbffLCibb6Y4Or9JCYYiNjXVU8G7evMEXEsa5iIi2U7F/cXnaPQDAa0BhUJA6g2xtocVOh7IP9h9KknQ7sfSzziSaa9MtW1aQKAyFGJCWy185usJkMgUHBZIsZXPmDDkv4jlp0kQyv81hQ4fyJdrgpDAwWagVeMtn9hgnT5poNwSzf9y6ZTNfrhVRUY/s5nW2POsefCFXJCU9c9IWmE4KA4vyjsayf8/JyeHLuWLhggV2YzfrbytXLOcLtUELhYG1uP79+5IhNtkzUCR4L8THxzvqivPmzeULAQC8HRQGpWgwWruflbkttBgUFv78404kT3u9ld/+kURzbXpjxQwShaEQF+XRC/nrgocPH9gNpuwf7965wxeSgxvXr9uN4CzMPU9N5Qv9EOeFgcnGXr16hS/tgJqaGtZ8HIVvliRzcuxcDLexsdFuymT/OG/uXIPBwJdzTEJCgt3H21onhYGxYf16R0m3T3BQ28OoCCxw79+3z25bYLJ/j42N5Yu2QQuFgXHixHG7O45t3rBhQ0tKXH/9FRl5y9FzyGZue+4KAMBbQWFQhCYl24LNTodyLvn2JJHau60N/iuJ5tr0ZcgwEoWhECMqavjrR1fYvaUuM7B3gLxHeDc1NTkKf+vXr+ML/RCXhYHJgu+0aVMfPXrUNsSXlZUeOXKYZWs/B6GZRclVjg8xcnQWAXsUo0aOePbsB/dHb01paenGjRsc5dTWOi8M5eXljnoO07dXLzY8JSXFarXyAd/T3Nwc++TJhAnjnQwfO2a0k5NANFIY2G/gsKFDySibbAuDAns/ePCg7cO3UVVVtXr1Kid7gT2curo6vjQAwNtBYZAfg9naPcJI8r0Sdj9vDJmyPPcvvybB2lttHv4Fieba9EXoKBKFoRCzmlx/6qw1Kioq7J5awGLWtq1b+ULywYqB3STKcq3dg+mFFAabbAb2QIYPGzp71qy5c+dMnTLZdpyVk8TMZA+zpKSEr6wNjx4+dPTxPJM9kIEDBmxYv/7OndtxcbGJiQksvB45fHjWzBlsS5yvt0XnhYFx4cJ5J1Ox7WebMaB/v6VLl2zdsnnXrp2bN2+aMnkS+0fnG8AWeP7c2V3J7e4mzxcGBitmdjfGJttBw4YNZU97THR0ZmZmRkY6W/706dOs7LEfOdl97EfnxJwKAgDQOygMMmNibeGcJ9pCi//Y/CD2X38i2dor1f4lkmzeC5tKojB0aafHdj7o1T5ODvnIysriC8kHC6l2P/FlSfTWrVt8oVY4Kgx2S45Y2QM/deokX5MD5n2XO8nA1rItCewdwLafyf7D7qNzosvCYLFYWPlxvg1iZQ/84IEDfAUO0E5hYGzfvs15/2HPD9s2NhuT/b/zhZlsgfWunnkAgJeBwiAnFoun24JNn+MlV3p9ReK1l1nyz3dJLtesJ9eFkjQMXfrnZw5vmqtlhgweRLKUzXFjx/Al5GbE8GFkXTZZN+BLtMJuYbClZyefOguRRcaFCxe47Hg1NTWDBg5wc122FmE39LssDIzampqRI4Y7OqpKrGwzdu7c4eRgJBuaKgxsa5cuWeKyBgiUPQPLw5ZJu2E2AEC/oDDISffzKrQFm90iGvcPGEZCtjdZ1fNPJJdr1nXbVpM0DF06LkvoNVu0Q0pKii3LElkuvHzpEl9Ibs6ePcPmJ2u0WdLmHFa7hSGwd8CJ48dHjRopOUGygTNnTBd4w+aSkpKxY0a7s64xY0ZHRETYvXudkMLAYL1lwvhx7idmtrsvXrzAJ3WKpgoDg+X7tWtW2y1dwmUPis0g8BkAAHgZKAyy8ceLqrUF7kXLwklLSM72Guv7/43kcs3a89QpkoahSw+XVfEXkn64fv2a3RTLYlx9fT1fSG6qq6vtHlDEwujDhw/4Qt/jqDDcuXO7qalpyeJFEjI0e3QHDuwX9QEzqxZhy5ZJSKtsyIIFoWxTo6Ie2X2qN2/exNfhCqPRePToEbbxdqO8S9kTNXjQQOFx39/eE8v2kZNTvZ0zZ/YsMhuTPT/Hj4u4mcaDBw/6BAdJqw1s1PhxY/Py8vhcAIB2BgqDPHxwSe228L1DFh3Oef8tkra9QOOYr0ku16bG6UG407MEM3V4xnNGejoLoCRXsWS5dcsWvoQyrLH3UTHbkrb3FnBSGNhPrVbr7cjIkSOGC0mQ7IEyJ04Yn5CQYJtcLCytDh82VGBaZU/jkMGDHj18aBtbUlLcNuizqe7cfvVAhFNQUMAaCGtcjr6laStbsl/fPmfPnhF1zavZs2a2/d0ICuxdWyPxUmCs7djd6UlJSXwJYdTW1m7atJE9vQKfAdt+Hzd2DKujejzLCAAgFygMMvDJZa20BZufbbzrZXdpKPjoLdOUABLNtemdsGkkCkOXdoqxfxsB7XP37t0lixeFzJtnk4XRUydPKn14d3Nz86GDBxeEzm9Z75LFix8+oF8vMJwXBhssBcbExISGzu/bJ5j9lOVItgD73969A9h/2L6CGNC/39o1qzMy0vkYqbB1PXkSs2zpEtsNxdj8tnXZ/sO2rqFDBq9YsZxVBXKeAEvGYWHLWh7yooULL168yH8mkurqajZ2yuRJtjXyh9xqS1g0Z6VizOhRWzZvvnvnjoTL49bU1Gzfvo3topYNXrliRXa2nRtWCMRkMp08eWLhgtCWCdkvXkuhEktTU9PNmzdmTJ/GHusPdvr3zwB7+OxZmDxp4s6dO9LT3d3vAAAvAIXBXT69qq22YPODHXGpn3QmsVu/ln3uQ3K5Zp21bxtJw9ClX6UKve0uEIWQwtCa8vLyx48fX7t69cKF85cuXbxx40ZycpJCh1dVVFRERT2yrevK5ctsXU+fPm1oaOA/9giswJSVlcbHx1+7dpVVCLYlbHsiI2+lpqYIubWcd8CegdjYWPbA2eNnsqfiwf37+fn5+D4BANAaFAa3+Oq6FtuCzT/vSkjxls5QE/A+yeUadVrg2zfvkzQMXbokX5f3eNY+YgsDAAAAYBcUBun43tRuW7D5x93Pkv7mQ8K3Hm0a/BmN5pr0BC6oKsmb1bhfrCKgMAAAAJAFFAaJBEVqvS1w9yQ/+3tXkr91p2miL4nm2vRPF6+SKAyFWItruisDCgMAAABZQGGQwoA7xvcuWmk016rd9qY8+3s3EsF1ZPE/fk9yuTZ9uGwyycFQiJ0TcEqlUqAwAAAAkAUUBtEMv6+ntmCz677n+v2eodrvLySaa1O/kydIFIZCHJqRz19aQG5QGAAAAMgCCoM4xj3UX1uw+cGOuIyP3iZZXBc2De1BorkGffX1wsNnJApDIe4qqeSvLiA3KAwAAABkAYVBBFOjTDptCza/Wnf95fu/JnFc4xZ88JZpsj9J55pzWu/ul66THAwFmtTQxF9gQG5QGAAAAMgCCoNQZsfo9buF1g5afJQkco1b9oUO7sCwY3MYCcFQoJ2iUyy43LtioDAAAACQBRQGQSyINb53QfdtwebMGWtJKNeydX0+Julca1bOHvD729EkB0OB4pZtioLCAAAAQBZQGFwTFm/ymrZgc+3omSSXa1bj2K9JQNeaYw/tJSEYCnd9YTl/mQEFQGEAAAAgCygMLlj91NvaArP7BfOhfoNJNNegRZ+8TdK51ry1fDrOdXbHlIZm/koDCjBzxnTSFpisMNy/d48vAQAAAAgAhcEZm5JN7533trZgs1tE47WeX5KArjWrev6JBHRNWT5n4Du3HpIEDIXb6clz/koDyrBnz+4Afz9SGPx8exXk41K2AAAARIDC4JAdqV7bFmx2OpKn8ZszNA7+lGR0TfnN6dMkAUNRDkhHbFUWk8m0d8+eaVOnTJo00eac2bPj4mL5jwEAAABhoDDY50Cal7cFm59uuqvlC62aJvmRjK4dt2xZQeIvFOuhsir+egMAAACAhkFhsMOxdFP3cxaSrb3ViXO2kpiuEUs/60wyunZMWjj2D/fjSfyFYi02mPhLDgAAAAAaBoWBcjqrHbUFm7sHjSJhXQvWBn1EYrpGrJ3V7w9Xb5HsC8XaOSGdv+QAAAAAoG1QGH7A+Rxze2sLzK5n6+989U+S11XXNO4bktQ14bTAHmfOkuwLJTgpu4i/6gAAAACgbVAY/su1PHP3iHbXFmy+ezDz+cedSGRX0ZJ/vkuTujYcdXgfCb5Qmpcqa/kLDwAAAADaBoWBE1nQftuCza/XXs9rE9zVsjborySpa8G121eT1AslGpVcb7bw1x4AAAAAtA0KwyseFJm7n23XbcHmoomLSXBXS9O4b0lYV92INfNwjza5/Dgpi7/2AAAAAKB5UBj+E11iQVuw2e1c881vepDs7nk1eDxS7JKJf7gXR1IvlOzS/FL+8gMAAACA5mnvhSGulLUFM8nN7dku+9IyP/wdSfAeVmvHI6UuGP1OZBSJvNAdXzQ281cgAAAAADRPuy4MSRVoC3YcFbqXJHgPq6njkdIWjHrn1iOSd6E74oKqAAAAgL5ov4UhrcrS/Qzagj0vWo/16UdCvMfU1PFI6aEj0RZkd0FeCX8RAgAAAEAPtNPCkFmNtuBMn+Mlz/7ejUR5z6id45Ey54945+ZDEnah+yY3NPHXIQAAAAD0QHssDLl1VrQFl3675gqJ8p5RI8cjZc8f/s7NByTpQvftnPCCvw4BAAAAoBPaXWEorGdtwUTCMbTrulEzSJpX2pJPNXE80suQYW/fuEeSLpTFubnF/KUIAAAAAJ3QvgpDSSPaggi7nW148MUnJNMral3wxyS7e96khWPx3YJyJtTjeCQAAABAZ7SjwlDRhLYg2n9sfkAyvaKaxqt8PNLdsKm/vxNDMi6Uy87xOB4JAAAA0B/tpTBUoS1IdcPIqSTWK2TZ5z4kvnvYU2vn/+F+Asm4UEZnvsTxSAAAAID+aBeFoc6AtiDdLqcqPXPFpIaB/yQJ3pNu3Lry3YfPSMCF8vqkrpG/JgEAAACgH7y/MDQYrd3Poi24ZVBYOAn3slv40W9Mk/1JiPeYM/dtJ9EWym7nuDT+mgQAAACArvDywtCEtiCTJ4L7kogvr1W+fyYh3jMapwf1O36ERFuohDgeCYB2jtVqra2tLS4uLsjPf/nyZVZWpnNycrIbG0V/LVlRUeFkZrZeo9HIFwUACMabC4PBbO0eYSTBF0qz06GcjI/eJilfRo2jvyJR3gMWzR380flLJNdChcxoMvBXJgCgHVBfX5eamnLr1q0jhw+vXrVy6pTJfYKDe377rSiDgwIPHjxgNpv5pE7JyclZEBpKZmjr4EEDL1+6xMcAAIThtYXBxNrCObQFOZ00ZwtJ+XJZ8k8Vbr/wcNnkd249IqEWKuQ/k7P5KxMA4NXU1NRcu3aVBXffXj1JUpfs+vXr+OyOKSos7NtHRCE5E36GjwQACMA7C4PFgrYgv90vmG5+04NkfVms7/c3kuaVduuW5X94kEhCLVTOk+XV/MUJAPBGamtqrl69Mj9know9obUv0lycBLVzxw4yxLkB/n6s2/DBAABXeGdh6H4ebUERP9gRl/uXX5O476YFH7xlmuRHAr1yNs8IHnT0EImzUFE7PUk1Wqz8xQmAeCwWS2NjY4MrmpqarFb8pnkak8kUcfZsUGBvksjldf++fXx9Dhg9ehQZ4tJbt27xwQAAV3hhYfjTRffawnlr93Bz9+OmbocM3fY2d93R2HVTQ5f19dx1bdxQ33VrQ9cdTWxhNqT7MVP30+buEZb3LlrpzF7hyjFzSOJ308pv3iOZXjlzQ4a9d+kaibNQaXG6M5BMVVXVju3bhIfR4cOGhoefZhGWjwcKk5iYMHbsGLIXlHDbtq18lQ4YOmQwGeLSS5cu8sEAAFd4W2H44JK4ttD9rKXbEWPXnU0s+vssre4cUtl5rmz6hFb5LKvpsq6u67bGbvsN3U+YWBshG6A7fU6Wp37SmYR+d2we/gWJ9Qp5a/n0d24/JlkWesBMnO4MJFFfXzdq5AgS8oS4bOlSgafJAsmUlZWtXLGcPPPKicIAgLp4VWH422UBbeGC9VVD2Nros7LWZ0EVifgekK3UZ0Vtl431XXc1dTtsZI2FbqHmnTB3Own9ki3++zsk1ivi9MCQPVveffiUBFnoAf+VgtOdgUROnz5FEp5wHz18yGcBCpCXlzd40EDynCsqCgMA6uI9heGza87aQvczlm57m7usqZP3OwRZ9FlU/epbiF1N3Y+bWJ8hW65Bu51rfvT5X0n0l2Zt0F9puJfbjNCRf7p4laRY6DFPleO0QukUFRZevHBh/bq1K5aHCXHVypX79u6Nj4vzjivNT5s6hSQ84S5evIjPAuQmLzd34IAB5AlXWhQGANTFSwrDV9ftt4Xu4eau2xp9ltaQjK5d51X6hNV03dLw6hCmcDN5ONrRd9VFEv2laZrgS/K9vO7atOwP9+JIhIUes9OT5zjdWRos8R86eLBXz29IxBHopIkTcnJ0/93O8GFDyeMS7uRJE/ksQFZevnzp+bbARGEAQF28oTD43mzTFi5aux0ydFlVS+O43vRZUNVlbV23vc3dz2juyKWIAH+S/sVa/mVXku9ltHzOwJ6nTpH8Cj3sLJzuLJVdu3aScCPWfv37lpeX8+n0ybChQ8iDEu6kiSgM8pOTkzOgfz/yVHtGFAYA1EX3hSE48gdtoftZS9ftjT4LVTg5QWl9llS/+ubhiFEjhy39eVdCXpsOIMqmoT1IypfLqytn4aZsWjALpztL4tmzpyTZSHPRwoV8Rn2CwqApTCbT+HFjyfPsMbdv28a3wwEoDAAoir4Lw8C7xparl76qCpsaOs+jOdsLDanssqr21TkPp1U+ZmnLiEmkAwi3+B+/JylfFptmBE84uOfdh89IcoWet296Hn+hApEsXbKYJBvJ5ufn80l1CAqDpjhzJpw8yZ701MmTfDscgMIAgKLouDCMuP99Wzhv7bqtUYNnM3tAn4VVXTbUdztoUOWCrZ2PFmR89DZpAgJV4u7OD5ZN+f3VSBJboVo+b2zmr1UghoqKChnvlXtg/34+rw5BYdAOZWVlgb0DyJPsMdkrgm0A3xQHoDAAoCh6LQzjHn7XFi5Yu+5q8gn1wgOQRBtS2WVd3avm4NkDlmZPX02agBALP/qNabI/ifvuWD2r/8jD+/HFgnYMfJHLX6tAJOHhp0msccdBAwfo944EKAzaYcXyMPIMe9Iz4Wf4djgGhQEARdFlYZgaZWJtofsJk8+Sapqb4avmUN/tkIeaQ7ezDXH/+iPpAy6t8X+fJH53PLkuFGcsaM3khibbqxWIwmq1jhk9isQaN42Jjuaz6w0UBo0QHxdHnl439ffzHTJ40MgRw0ePGunEsWNGh4Uti42N5dvhFBQGABRFf4VhTsyrs35fHYNEgjIkzvdQcxi68CDpAy58/1em8T1J6Jdmbsiwr8LDSVSFquuXhq8XJJKamkIyjfuGLVvKZ9cbKAwaYeHCBeTpleCE8eNOnjjB6mthYaES33qhMACgKDorDAtijd1PmnyW6ee+ChrQZ35Vl/WsOSh1eaXu5w3Rn31AW4FjK75+j+R+KU7rvW7batxjQZsm1uPrBYls2riRZBr39e3Vs7q6mq9AV6AwaIHamho3T6pZv25tenq61arsLVlQGABQFD0VhrAEU9fdTe3iOkjKyJpD100N3U+YSOJ33yGLDpNW4ETDyC9p+hdp/OLx7126RkIq1IjfPn/JX7FAJI2NjUGBvUmmkcWIiAi+Dl2BwqAFrl+/Rp5b4fbr2+dxVBSfSGFQGABQFN0UhvVPTV021ZMEDKXps6yGVa/u52S7GVz380aBXzKUftqJpH9RVs4e8OqqqQ+ekpAKtWNcfSN/0QKR3Lx5gwQauRw/bqzSn+8qgTuFAXd6lovQ0PnkuRUoS/ClpaV8FuVBYQBAUfRRGPalGrus1v1tmzXnvO9Ocjj633tZuOPgxUdIN7Brw8B/kg4gUOP0oHXbVv/+TgyJp1BT/js1x/aaBRKYNWsmCTQy+uLFC74a/cBCP3kUwl0QGspnAW5QI/V4JH8/34yMdD6LR0BhAEBRdFAYLmSafJbhwqkK6rOouuuOxu5n3PrCoft5Y1SPD0k9IBZ9/FvTlADSBIQYsWbe29fukGwKNWh0Hb5ekEhBfj5JM/K6bdtWvib9cPzYMfIohHvnzm0+C3CDa1evkidWoCdPnuBTeAoUBgAUReuF4f5LU+fFNOBCheyyqtadOzkMXHyUNARibdBfSRNwafzi8X+POE9SKdSmuPeCOxw4sJ+kGXntExzU3KyzW+lVVVVJSIHMkHnzjEYjnwW4wcaNG8hzK8Q+wcGNjZ7+7ACFAQBF0XRheJJv8lmM7xY8rc+Cqq5bG7qHm0kfcOmrLxk+/yspCS0WfPCWaZIf6QNOLJw3ZPDRg7gXm17sFJ1SaEBEk4jZbB48aCBJM7Krxw/dKysrWZUaPXoUy6Cs8zi3X98+06dNPX/+PNqCXMyeNYv8Fgnx0MGDfLwHQWEAQFG0WxiSS8w+S9AW1LTL6rpXZzi0KQZOHLDkGOkJLVb1/BOpBI5snNF30a6NuGSqvlxXWM5fukA8MTExJMooYci8eXx9AAhj0MAB5LdIiCUlJXy8B0FhAEBRNFoYsirNPsvRFjShz9KabnubBR6n1P2C6dHnf837yy8ffPj2xY86nf+o040Pf5/9l1+zwmAc8zUpBm01Tg/asTnsnZsPSBiFGtcnMcOsw4vwaIewsGUkyihkSUkxXyUArmhsbCS/P0IcOXIEH+9ZUBgAUBQtFoaiWovP6moSW6G6vjpOaVtj97MuTozuFtEUMG7hkH/97YsePVoM+PSfm3p8VDjBn9SDHzg9cNemZW/fuE+SKNSFj2ob+KsXiKe6utrNG2MJ99jRo3ytALgiMzOT/P4IcfOmTXy8Z0FhAEBRNFcYKhosPhvQFrTqvMou6+sd3fqt85GCf/j1bV0VWvvvHj3uD+9FewJzeuDuV1XhHsmgUC8Ozcjnr14giYiICJJjhCjt6vjDhw21WCx8xQA45f69e+T3R4i3bt3i4z0LCgMAiqKtwmCxWP+xB/db0IE+y7+7nlKrGzj4HCv+u+O2YJN1hjvDerauCns3Ln37+l0SQKGO7BSTWmEy8RcwEI/Vah0/bizJMUJ8kZY2Z7aUE1ITExP5ugFwyskTJ8gvjxBTUlL4eM+CwgCAomirMMy93kiCKdSyr27gsKvpvXPW7ueNf+s9iNQDu37Zo0fGWH/TtMB9G5egKniBu0oq+asXSILlfhJihDhu7BjWNKTdGXrtmtV83QA4Ze+ePeSXR4iqnPHMQGEAQFE0VBguvzCSPAr1YUjlr2dfJcXAiaOH9H/7Ou7C5g2+/yyTxVb+AgaS2LplCwkxQjx79gwb29jYGBTYm/zIpQH+fvX1dba1A+CEnTt2kF8eIap1TVsUBgAURSuFIbfagouo6tc/+U8ircCJPb748p3rD0n0hPozKvlpQxN/AQNJNDc3BwcFkhDjUt9ePauqqmwzSLuv1pXLl23DAXCChDbbr39fPtjjoDAAoCiaKAxGs/XP22pIBoV68ffTM0klcOnPN+2i6RPqza3FFfwFDKRyOzKSJBghLl2ymI//z39SkpPJT4U4bdpUPh4Ax0ioo0MGD+KDPQ4KAwCKoonCMP5CA8mgUEf+bnI86QMu/fXytSR9Qn3Z50Uef/UCN5g3dw5JMEJ8HBXFx393zvToUSPJAkLMycnhUwDggI0b1pNfG5cOHzaUD/Y4KAwAKIr6heHkMwMJoFBf/m5yHOkDLv318nUkgEId2Tkhvd6MS3O6S1FREYkvQhw4YIDph5elOnXyJFlGiHv27ObjAXCApMIwjA/2OCgMACiKyoUhrczceSENoFBfSjkkaeMOkkGhbnycnNLQzF/AwA2OHD5M4osQ2wb98vLyXj2/IYu5dED/fqR4AEBAYQAAtKBmYTCYrF024tQF/Tun4v1eo0klcGKPL7545/ojGkOhTjxcxk+3Be5gNpsl5Bum3UOJFi5cQBYTYlTUIz4eAHugMAAAWlCzMCy5jbsueIOdQkp/smAlaQVO7D5jzrtRySSGQl04MrOAv3qBe8TFxZLsIsRpU6fw8T/kwf37ZEkhLln835OnAWgLCgMAoAXVCkN2pblzKI2eUF92mlf2630RP4kZ/cazwL8Hfk6KgV0///zzd25Fdcsu75Kc2yk6leRRqGW7P81otuDUBXlYuXIFyS5CvHzpEh//Q4xGY7++fcjCLvXt1bOiApe6Ag5BYQAAtKBaYfjqYB1Jn1BHflcVzv0kZsybKYE2X78V8A8/F53h8x493joe0f1lJTenouvzgs6xL0gwhRq0U3RKdpOBv3qBe9TW1Pj7+ZLs4lLnN1yTdo+t8PDTfDwAbUBhAAC0oE5hiEjBlZH06quqsPfcT6L/WxVafD0y4B/+tCS0yNrCb4+E/7cttLJbRknnhEySUKGGjEq+WY17A8vGhQvnSXAR4urVq/h4e2RmZpLlhTh2zGjcqxs4AoVBa9TX1z9//vzevbtsy48fO7Zzx441q1cvW7p06ZLFixcvYv8btmzpurVr9+zedfLEiStXLj98+CArK7O5GZepADKgQmFoMFh9VlWTGAq176uqsOfCT6LHkp7Q2h9H9/71yn9/4v9Z66rw6b8/7TR32LvRyaQnELtllfk8y+n0OIWmVai2Zytq+KsXyMGkiRNJcBFifHw8H++ASRMnkCFCfJ6ayscD8ENQGFSnvr7ucVQUKwCh80OGDB5Etl+4I0cMZ43i0KGDiYkJ6A9AGioUhlnXcK6z3pxX/taei86rAjc5qMO5z3906l//76ZP31z+6U+XfdZx7af/35FPO4T/2yc9gzQE++ZUdEnN7xTznGRWqJYHSnFZJDmR9lXAsKFDzGYzn8IB589L+eJi86ZNfLyGKSoq2rtnz5QpkyeMH+/IaVOnHD16pLq6mo9RALYLHj58sHjRwokT6NpbnDJ50rZtW1++fMnHiIflubS0tGtXrx47epRNFbZs6cwZMyazlulgpewna9esTk9P5+PbYDQaIyNvzQ+Z52Sz7donOJj8trjUt1dPMonHZKsmG+NSbRYGq9WakZFx4MB+9ist4YrJLvX38507Z87JkyfYy4qvUiWep6ayX91JEyeQXdnijOnT2KugsrKSD9AG7OW5dcsWu29H7CUWMm8u+71ycvio52FvKVevXgkNne/kHYC9yVy4cJ69V/Ax9vB0YUgtNXee3yaPQg37200PfvpwMi0GDvzxY98fnf6XXf/33mraDZza9UVR5/gMEl6hh91YVM5fukAmduzYTv5+C/HI4cN8vGNqamr8WGhqM9a5QYG9m5qa+BSaJDExoXeAP9lsRw4fNqykpJiPlBWLxbJq5UqyOkey/XDv3l0+UgDs73RMdPTmzZtYeJIQfJksWd69c4dP1wqWFViCIQtDm1orDBUVFWfCz0wYP45sp3LOnjXr+vVr9fX1fAs8yOVLl8jGOHLwoIEvXrzgw1SFdTmB988ZPmxofn4+H6YqrLpMniT0O+0FoaFO7s/j6cLwt921JI9CzfrOipSf3VhEKoFzO17+kvSEFjuEfyH0S4ZWdsss9XmajeOUVHFZfhl/3QKZMBgMffuI/tSWKfCzwBXLw8hAId66dYuP1x5ms3nQwAFkg507a+YMPlhWHjx4QFbkXH8/X5cXoWL5IzExce3aNcFBgWS4BFnTKCkp4VN/z+nTp8hisEXtFIbCwsL169dJ64ruG9g7YP++fYp+O0dgFUX4pwDMfn37FBcr8kGAKK5cvkw2zImsMzQ2NvKR6hEWtoxsmHPv37vHR7bBo4XhUEIziaRQm767KPd/z255M6kP6QPOfSPOj5QE4s/vriJ9QKi26ynFpZNEC5VzXi5NHsB97t69S96dhTh3zhw+3hVPnsSQsUKcM2c2H6894uPjydYKMScnm4+Xj7BlS8laXHryxAk+uA2sKsTExMyYPo0McdNDhw7yFXzPhPHjyTKwRS0UBnWrQmtZgt+3b69naoOEW8fs2L6ND1YJlv7FFvujR4/wwSrB9qbYo9pWrVzJB7fBc4XBYLL6rKgiwRRqzU4hpb86fPzNhEGkDAix441/k4ZA/O5LhnRaBsTYLausS9JL3MBBace8VP+zHK8kdH4IeXcWovBvAMxm8+BBA8lwIRYVFvIpNMatmzfJpgoxJjqaj5ePiRNEJ+81q1fzwT/k5cuX06dNJQvL4rq1a/k6vqdf/75kGdiiuoXBZDKdOH5cwhWWFbVvn2D2hqP0xdMeP35M1uvSYUOHKL1Vznn4UNx3jMyxY0bzwSrBdiXZJJe2fQ9pwXOFYctjfL2gdX+z/YagM5vt+cbTgB+Ff0oaQlt/fncl6QBSzKl4dYYDrsSqgJ0epwTk4LsFRSgpKSFvzUIUe47BgQP7yQxCPHz4EB+vMW7evEE2VYgsjvDx8jF+3FiyFpe2/ayONboz4WeUy4hr19CKIuGOfu1HFQtDenq6hArqMReEhrY9vE1GysrKyBqFmJOTw8erAev/ZHuEmJeXx8ergYQ7hJ4/d44PboOHCoPRbPVZiUupate318T/7PZc0gFE+dqdr0k3sG/45z7pL2gBkCq/YzQuqSST7Jn8NBttQSmOHztG3pqFKPYqRgX5+WQGIQ4dMtjlVZhUwZsKQ0NDQ8i8eWQZeUVhEKUqhcFqtUacPavE5Y/kNSiw9+OoKL7RcsOehFEjR5A1uvT06VN8vMcxGo3STjQ6dfIkn8LjmEymPsFBZHtcmpWVxce3wUOFYUcMvl7QqJ1CC//3zLY3k4NJARBnclCHiM9oN3Dgz++uILnffbumF/skZr0blUwSMBRu57j099EWFMNisQwfNoy8NQsxNTWFTyGYmTNmkEmEGBcXy8drCa8pDFVVVVMmTyILyC4Kgyg9XxhY7tywXvTdLVT05MkTCh0ItGfPbrIul86aNZMP9jixsbFkYwQ6dcpkPoXHefbsKdkYlzo/7ssThcFkxp3aNOpvtkb+5Mkomv7F+/qjnqQVODP8884vZPuS4Qfazo1OyERzEGdUcpeUvG7ZpSzU8hctkJvExETy1izEMaNHSfhrff36NTKPEFeuXMHHawnvKAwVFRWjR40kP1VCFAZRergwVFdXz5gxnWyD9l29epXzy/NLIykpiazIpb16flNbW8vHe5bNmzeRjRFuaWkpn8Wz7Nu7l2yJS3fs2M4H28MThWFPLL5e0Jx/WJL1P1fDSO6XbIeLX9BW4NSf311Os7682ppDfAaag0s7x77ollnaLavUhLagJCzJkbdmIUr7Cr6xsVHUJQtt+vv5qvXH2AleUBgMBoNCpzi3FYVBlJ4sDFVVVZ68wYK8Ll60UPbOYDabJfxy2r3ZiNKwTR04QNzFnVt7/vx5PpFnGTt2DNkSl8bHx/PB9lC8MJgtVp81+HpBU5b/ev+ZNxOlXAfJrj9+4vBmbQ4N/7xTWhJN+QrYLbsczcGJXZJzWblCW1Ca+vq6AH8/8tbs0l49v3F5IX9HrF+3lswmxIsXLvDxmkHvhcFqta5fv478u3KiMIjSY4WhtqZG79e3XbJ4sZNbeklj3VrRb1OOrjymKMnJor8Maa0q160uKioim+HSoMDezmuh4oVhfxy+XtCQ76x89tO7s0jid9OO1xzerM2JP705m4R7Rf1vc2gTmtun7Knolln66pnJKjWgLSiM8HuatnbRwoV8vHiSnj0jswlx8qSJfLxm0HthuHJFxJ2e3LdtYZB2md12omcKQ2Nj49Qpk8mq9ejqVSvlPWxVwoVKWQH2/OUZdu/aRTZDlL16fuPJm+LZuHDhPNkMl7o8KlXZwmCxWH3W4usFTdgppOQXJ/eKvRebS99I7E2agHB//+xe60zvGXlzSMhst3eP7hyX3jW9mD8bWSUNZrQFxZEWF9hfUz5ePFardeSI4WRCIWZlZfIptIGuC8OsWTODAnuTf1TUDevX8839HmnHwrUTPVAY2CtR2v3XBTp82FD2mzll8qRp06aywj9u7BhFK+Lx48f4A5MDVqUkXGI4JTmZj/cIbA+yJ5lsg1ivX7/Gp/MUoaHzyTa49HZkJB/sAGULw+EEA4mtUBXfXp34k0cTSdaXxdcivyI1QLg/vjSsW055S5T3tDkVLDd3SXrZOfYFidTeaqcnaV1fFLU8A6wt1GnySppeRnZ2NnlfFmK//n3dPGiY/Wkncwpx184dfLw20HVh8LxtDypLTU0hy8AWPVAYTp08SVbqjr69es6dM2fXrp0sgL5IS3N0h5a6urqkpCT2y7Bly+Ypcn+5Ie+La+GCUDK/Sw8c2M8He4SMjAyyARJ05+tiCUhoYuxXy+U5bMoWBp8N+HpBdct/eeTYm8/6kqAvj0m9f3TG9c3anPib2PCW/Kqitq8dfBKzvPUe0p3jM7qmFbKO9N+HnFlSg7bgEaR9ne1+cC8tLSVzCrFf3z5KXBFFMigMwh08aCALCnxzW/Ho4cNx4k9/bA8qXRhinzwha5TsiOHDWPeorKzkU4shLzeXdYw+wcFkTmkGBfaW8WZkVy6LPmZvwvjxfLBHOHToINkACbL43tDQwGdUnsdRUWQDXCrkRAsFC8PtLGOb8Ao96h+WZv4sch5N+fL5+oNvSQEQa8dzAV2zCltSrBbsllnaJTm3c1y6F5wn3elxis+znG5ZZW0eY0kF2oJHYOG7X/++5K1ZiE7uniOc0PkhZFohPrh/n4/XACgMAp00cWJBQQHf1jZYrdbCwsLnjNRU4S5etJCsxaWDBg4gk3jMAf37kY1xqaKFoa6uzp1L67S4cOGC+Lg4908eaG5uvnXzpiy/xtOnTZXrRAJpt3z25IVK5Srbd+/e5TMqz+ZNoi8CG3H2LB/sGAULQ9DxOpJfoSd9a+e1NxOGkIgvr2KvpmrXXz7cRuKsVsyp6JZR0iUl79UJD/q6mXRU8qsTFZ4XtP5KoUXWiEqNaAseQsJZfUy5Tj6+e+cOmVmICxeE8vEaoL0VBpZ658yZvW3b1nPnIq5duxoZeevOndvOvXfvbkZGBqsEfEPlY+MG0bcYGz5sGB/scYYOGUw2xqWKFgYJzx6xT3DQ7chIefeswWDYu2cPWZEE2e8nn9FtJBw0dfnSJT5YYfLy8siqJbtyxXI+qcKwXxgJ57E4+bihBaUKQ1m9pfN8GmGhZ3w3tODnF9eQcC+7b8T5kegvzQ7h//ZJTyehVoO+OmzpRdGrcx7i0rV5wnSn6FSfp9nk0CMiawuFRpkvjQecsGih6M9omRcuyHPd7ubmZgnHIfTq+U1ZWRmfQm3aSWGYHzKPRX/PX0rFOSgMkomPiyPrEmvIvHllZUp9jp6YmCjh6Wpt7wD/oqIiPp17SDjbavEiD50SIOMpKIG9A9gbMp9XSTIzM8mqXTp2zGg+2ClKFYZV95pIioWe8Xfro38SM4aEeyV87dbXJPpL9meRi0iu1b6vjlxKzfd5ltM5PuPV9w8qHb/ESgLbgC7JubZrpDqXLZNrQFvwHOXl5Sx8k7dml766gVpNDZ/CbbZt20rmF+LJkyf4eLXx7sLQr3/fE8ePq3UjWJegMEjDZDKNGjmCrEuUZ8LPKH3f/bq6uoULF5D1inLpksV8LvfIysoiM7s0wN/PM+F72tQpZNXuGB0t//tSWyQUsP379vHBTlGqMOBqqqr4yyNH30wKJsleEd0+3Zn4h5QYkm515qvbn5W9+goiJc/nafarbyGUOH86KrnTkzSfxCy2FraubtkirjHF2kI22oJnYbGbvC8LUd5vrtPT08n8Qhw5coQSh7hIwIsLw6qVK6uqqvjsmgSFQRrXr18jKxLllcuX+UQKYzQaF4SKvkhRa1+kpfG53IC91Ui4bmlMTAwfrxjSrhvhxLZXPVYCCfeVT0lJ4YOdokhhiMTpzh63U2jh/1wNo7FeMV9/1JMkfjd94+pYEnC9QdYisstZUmfhvuvzApbyuyS9fFUnEjJZo+gc+8KhcemsFfg8y+mSnMsGvuoGGSWv6oHjY42c2y2rNK3ZwF+fwCOwv4IsdpP3ZSHGPnnCp5ADthkTxo8jqxBiUlISn0JVvLIwDBo44HFUFJ9Xw6AwSICl8GFDh5AVCVfIuacy0tzcPHPGDLINwmV9g0/kHjt37CAzu3Tbtq18sGKcPy/63mfO7de3j+x3yyZUVVWRlbq0f/++Ak9hV6QwBOJ0Z8/6++WpCt1mwZEdL0u5u7NzNXKJVe+TtYWUJrQFT8MCN3lfFuKQwYNkv48piyBkLUL0zIdhLvG+wjB69CjtnCLiHBQGCUi7rbvNHdu3ef6bverqamk3ebQpy23UEhISyLQuHTpkiNLP1Zw5s8lK3TcxMYHPrgy3bt4ka3Sp8Ld6+QsDTnf2sL/ZGvlm4iAS6BX1jQR/kvVlsePZnl0yckjYhW7aLasssdETx3oCwvr168j7shAPHjzAx8tHVVWVb6+eZEUu7R3gb/ei/h7GywrDmNGjpF1KXxVQGMTCIizbxWQtAp02dYrsHxYIJDs7W8JbhE1ZDqE0Go3BQYFkZpfm5GTz8QrAepSEM9BcyjohX4EysN1B1ujSRw8f8sGukL8wrMTpzp6z/Bcn9r+ZHEQCvdK+dke2052JP4tcQPIudEfWFmIa0BZUoKGhgQVu8r4sxIL8fD6FrCxbupSsSIjXr1/j49XDmwoDS7SaPb/ZLigMYklOlvK9os3nz5/zWdRg107RBwXZ9PPtJcupOKtXrSQzu/TUyZN8sAK4eSKKIwcPGqjc6ewmk0ls7/L38xX+wZDMhYHVa5zu7BnfXZj/sxuLSJT3hMlBHSI+I0FfRt95GklSL5QmawsPG5r4KxN4lmvXrpL3ZSHOmjWTj5cbFqDJuoQ4a+YMPl49vKkwKH00guygMIhl7do1ZBUCXbd2LZ9CJerq6qTdYpJ5JvwMn8UNJNw0RtE3KGlXxBaics3w6dOnZF0uXbhwAR8sAJkLw61MnO7sCX8flvaTqPE0ynvEH0f3IhFfXl8737dbdjHJvlCsrC3cqUdbUI0ZM6aT92Uh3rh+nY+XG5PJJO2ms/nKfOMhHK8pDOvXr+MT6QcUBlHU19cF+PuRVQgxsHdARUUFn0U9rl69QjZMoKNHj3L/dAL27Ik9LKpXz29kvAJ1axoaGvz9fMnq5FLgNUwlIOGWfKIuySVzYRh6pp5EWyi7b69J+EncMJLjPWbHa/Kf7kz8xYNNJP5CUXbLLrteq/7R5+2WvNxc8qYsRKXPGdi3dy9ZoxAP7N/Px6uEdxSG/v371iiTbBQFhUEU9+7dJfMLVCO3PTGbzZMmTiTbJlD2psdncYOQefPItC69ffs2Hywrd++K25WijqcapdhFqyWcPyPqAgxyFgazxeqztIqkWyivv918783EgSTEe8w3ngaQcK+MPd5NjSchGAq0W3b5pRq0BTWRFs2VvipRrqQaM2jgALVOxLThHYXh4oULfBZdgcIginVr15L5hejbq6dCH5NLQNqxlMwzZ8L5FG4g4TKmq1ev4oNlRdSpw3NmzxJ7TTwlTtcuKiwka3HplMmT+GBhyFkYbuJ4JIV9a/elN5P6kBDvSV+/922bcK+Ib1wZ1S1HxF3JoE3WFs7UNPAXJFADyQf/eOC+BxJu6MP0wA2SnOAFheHVrbtra/ksugKFQTgWi6W/pHMAFi6Q51YGslBXV+fHGkybjXTpvLlz+BRuUFJSTKZ1ad8+wbJ/omEwGAJ7B5AVOZH1HLYNot72jx87xlcmHxLq1rGjR/lgYchZGEZFNJCAC2X0l0ePkPjueTtc6EGSvXK+FX2EpGHoXNYWjlfX81cjUInHUVHkTVmInrmz8pUrl8l6hRgWtoyPVwMvKAzqPoHugMIgnBdpaWRygd64cYNPoQ2WLF5MtlCIrGU0NMjwWdXECePJzC5NTpb5o5boaHGXiLAd1bN1yxby706cNHGCbV0yEjo/hKzFpZmZmXywMGQrDBaL1ScMxyMpZPn/nt1CsrvnfSNekdsvOLLDma87v3hOMjF0JGsLB6vQFtRn6RIpf25PnvDEQcz19fUSTspkUaC6uppP4XG8oDBERT3iU+gNFAbhXLgg5a7Afr696urq+BTaQMLVimwmPXvGp3CDw4cPkWldKvt5VhvWi/i1nz5tqm1UfHw8+ZFzi4qKbANlobGxUexZ2uz1IvZTKtkKw51sHI+kjPPK/+fSKpLdVVG52y848o2rY3FgkhBZW9hdqa2/Ou2TyspKsRf6sFlW5qHL869ds5qsWogRERF8vMfRe2Fgf8WNRiOfQm+gMAhn08aNZHIhLl68iI/XDE1NTdLuIXP+/Hk+hRukp6eTaV06Yfw4PlgOzGZzv759yCqc2HJJWZPJ1LdPMPmpE8+eleFatC1ERT0i87t0+zbRt5CTrTCMO4/jkZSQtYXVJLirZYfznjseqcVfRe0m4RhScyq2VujyCGnvg/3xIG/KQgwNnc/HK09iYgJZuxAnjB/vgSOm7KL3wsCeOj5eh6AwCGfqlMlkciHKuAEysniRlFsQbNy4gY93A4vFMnjQQDKzS0tKSvh4t0lMTCSTO7f1FwWivpqYOUPOm0hI6KuxsbF8sGDkKQzsb4nPchyPJLvlP7+wlqR2tXwjzo9EeQ8Z/vkfUmJoRIYt5lSsK9ff5Rq9EvY2OHbMaPKmLMR79+7yKZSH/T0ePmwo2QAhpqen8yk8i94Lw8qVK/h4HYLCIBCz2SztDgweuNSBBA4ePEC2U4hTpkzm491D1MkANmXsXTu2byOTO3HSxIl82HfEREeTBZwr1803JLSsoMDeEr75lKcwPHhpahN2oZtW/Pz8epLaVdTzxyO1+PqFAV2zCmlQhsycihVlaAta4XlqKnlTFmKf4GCDwcCn8AhHjx4h2yDEbdu28vGeRe+FgT3bfLwOQWEQiLRbrzBVPDvICdJOY/D385XlgkWxT56QmV0q6nbFTmDJe8jgQWRyJ544fpyP/A4WwVkQJ8s4UdRN05yQkSH6OK7lYWF8sBjkKQyTL+F4JHmt+Pm5jSSyq6sqxyO1+PO7y2lWhjkVi0u1+Mem3SLtIGYJB5K6SXGx6GsXMvsEBzU3N/MpPIjeC4Mnvz6SHRQGgYi9z5fN/v378vEaIycnm2yqQHPluH2b2KuaMgP8/WR5d0oTeamrtrerW716FVnGiaHzQ/gw9zh+7BiZ2aW3bt3ig8UgT2HwWVndJvJCyVb8PGIzyevqqtrxSK18O/EaTczt2ZyKeSVoCxqisbFR1GdLLWZkqHCoz7y5c8hmCPHunTt8vAfRe2FISEjg43UICoNAJCQ25uxZs/h4jWE0GqVdvOHRI3kuCBYWtozM7NKY6Gg+2A3279tHpnXi2LFj+LBWPHz4gCzmRPYky3KNrGkib7DTq+c30m48L0NhiMnH8Uhy+ouTe0leV93Xbn9D4rvn7Rjh65ORRXNz+zSnYkZxFX/5AW0gLdeqdTLx7chIsiVCnB8yj4/3IHovDLJfJN6ToDAIZPeuXWRmIW7dsoWP1x7SfttvXL/Ox7vHrVu3yMwudf/JZG/Fo0aOINM68fDhQ3xkK8ReYyoyUson/a2pqqoic7p01qyZfLBIZCgMC281ksgLJfvWnoskrGtBdY9HavEn16fT6NwOzamYUFTJX3tAM8yeNYu8KQtRrcuVNjc3BwcFko0RooxXIxGI3gvD89RUPl6HoDAIRNTlcVqU98Ka8rJieRjZWiFGnD3Lx7tHTU1Nr57fkMmdy/a+mx++5OTkkDmdm5Vl/65nor4eWbZ0KR8mFQnvkC2XghWLDIXhrztrSeqF0vzdhqg3k/qQsK66WjgeqcVfPd5HA3S7MqdiVAHaguYoyM8n78hCVPeGaFu2bCbbI8Tjx47x8Z5C94Xh+XM+XoegMAhk6dIlZGYhXr9+jY/XHtLeH44cPszHu42Ej2Cys7P5YEmIOq5s5IjhjvrJnTu3ycJODPD3a2pq4iMlIaHa5efn88Eicbcw1BusnUNo8IUS/P3y1DcThpCwrgW1cDxSKz9759kdGqPbiTkVQwrkuQobkBdpVyEMW+buZ0vuwIIs2R4hsjhosVj4FB4BhUFFUBgEMmfObDKzELV8Qvy+fXvJ1gpxx47tfLzbnD0r+p42J0+6db/8SRMnkgmdyJ4fPqwNDQ0Nom66/OjhQz5SPGKvy8QcPXoUHywedwvDxee4wbMMvrso9yePx5GkrhE7nPu8TWpX044Rvp1fpNEw3Q7sl1/OX3VAS5jNZgl3GmJGR8sfaoUj+a4RiYmJfAqPgMKgIigMApF21zZZztNVCBa+ydYKcd3atXy82xQUFJDJXerOrdCKiorIbM5NS0vjI+0h6s53a9es5sPEI/Y2c8x9ex1WHZe4WxgmXsQFVd21U0jpz27PJTFdI2rqeKQWf3x5eLfsYpKnvduAPLQFjfLkSQx5RxbioIEDZLlmuTtIuy+1O3/eJIDCoCIoDAKZOGE8mVmIiYnavYIWe2bI1gpx6ZLFfLwciP1EQ/LFfxiivtBgv2nOv2i9cUPEu1af4CAJ91CzsWfPbjKbS925V6C7hcFnAy6o6q6/OL2LxHTt+Nrdb0lY14j/c3sxidRe7Le5Zfz1BrSHhCsAMp18o+0xKisrJVw8McDfr76+nk+hPCgMKoLCIJCxY8eQmYWYkpzMx2sPUQfitzhnzmw+Xg4O7N9P5nfp7chIPlgks2bOIFM5ceeOHXyYA2prakS9tcbFxfKRIhk9ehSZyrn9+vZx54MqtwpDUa2FZF8o1t9uvv9mchCJ6dqxwyVtHY/U2rdijpFg7ZV+jragYaqrq6VdsLztHX9UYfHiRWTDhHjlijw3KBUCCoOKoDAIZKSYy3G2+OLFCz5ee8RER5OtFSKL3Xy8HKSmppD5Xbp61Uo+WAwVFRVkHucmPXvGRzomZN48MsqJW7Zs5sPEIOGoLTePGXOrMByMbybxF4ryD4tzfhI7nGR07fjGs0CS0bVl+Oe/T3pE4rWX+c+XaAuaJiIigrwjC3HG9Gl8vNo8evSIbJsQp02byscrDwqDiqAwCGTokCFkZiG6eVUfRZF2pKU7ZxG0xWw2D+jfj6zCuX2CgyV8gn7l8mUyjxMHDhB0NOnlS5fIQCcKnJNw7pzovz4PHjzggyXhVmHof6qeJGAoxoqf3VhEMrqmfD2qJ83oGrPjuQCf9AwSsr3Gv+aU8lca0CRWq1VaiLx69QqfQm2MRmP//n3J5gnx5cuXfAqFQWFQERQGgbDAR2YWYl5eHh+vPWJjY8nWCnHGjOl8vExs3LiBrMKlEo7RDw2dTyZxosBvAyorK8lA50o4Pm1+iIgvMZj+fr6NjY18sCTcKgw+y6vahGAo1F8dPEkCutZ87ea/SUDXoD++NKxrVj6J2l7gX9AWNM+LFy/IO7IQewf4e/IcAJdIu0nt3j17+HiFQWFQERQGgfTtE0xmFmJxcTEfrz3i4+LI1gpxutzfPT6OiiKrcOn+ffv4YGHU1dWJOqyUPTN8pCtmzZpJxjpxz+5dfJgwWPT3Y9vdZh4nsl7EB0tFemFILjGTBAyF++quC8/6koCuNTtEfEbSuTZ989rkbtmlJHDr2v/LRlvQAVu3biHvyEJcu3YNH68NcnKyyRYKcUD/fiaTiU+hJCgMKoLCIJDA3gFkZiFWVGj3vjrx8fFka4Uo+8GKTU1NAf5+ZC3OHTd2DB8sjMjIW2QGJ7JmKPx9T9QhQ8OHDRV1p+pHDx+SGVx68aK7v+3SC8P6h00kBEPhavxgJOYb8f4kl2vZn0Uu6J5TQWK3TmXlx8P3xgISaG5uDg4KJO/IQvTwfQyEMEXSVeSjoh7x8UqCwqAiKAwC6R3gT2YWopYLQ0JCAtlaIU6bOoWPl48lixeTtbi0pETEVzfLli4lw524fv06PkwApaWlZLhzMzIy+EgBSDhYi20PHywV6YXh28N1JARDgf526x2SzjXo6/e1fgID8Rf3N5LkrUe7ZZWY0Bb0wO3bUi47yOKUBtvgxYtSrrnO/pDz8UqCwqAiKAwC6RMs5ZAkUbnWw2jkkCTGtWtXyVpcKvyj9KamJlFlT+zdNlmDIjM48fDhQ3yYK9gfkUEDxZ02M2niRD7YDaQXBp8wnMAgxU4hJZq9qXNrO175giRy7fvr6EMkf+vLblmlaAt6Yd7cOeQdWYg7d+wo1x45OTkSLg7LhlRWVvKnQzFQGFQEhUEg0k56zs/P5+O1h8STnhW4/pvYs4eZCxeE8sGuEHVgT1Bgb4PBwEcK4/TpU2QSJwo/mCo9PZ2MdemRI4f5YDeQWBiyK3ECg0R/efQIieZaNKn3j8I/JXFcF/4u/iJJ4XqRtYUmtAWdUFRURN6O26dnws/wZ0QxUBhUBIVBIBJWzczJ0e5lVWOfPCFbK0R5L6vaAushZEXO9ffzbWpq4oOdsnbNajLWiRJu8lBYWEgmca7ADnns6FEy0KWsY/DBbiCxMBxNNJAcDIX47qLcN58OoOlce/44uhcJ4nqxQ/gX7zy7Q7K49mVtocGMtqAbjhw+TN6O26djx4wWdaKeBFAYVASFQSAjRwwnMwtRlgynEFq4cVsLp06eJCtyqZB3AKPR2Cc4iAx0orSbGEycMJ7M48TTp07xYU6ZKvKss8GDBspyKKzEwjDhYgOJwlCIvzx6mERzbfpa5FckiOvIDuH/fufpbZLItWy3rJI6N+7WDjyM2WyWdp8mr/R5aip/XpQBhUFFUBgEwpozmVmIKSkpfLz2uHv3LtlaIc6ZPYuPl5WXL1+SFblUyN0S4uJEHHbVO8Bf4LcWhOPHjpGpnCjkrHEJx2ht3bKFD3YPiYXhT9tqSBSGLu0UUvqT2BEkmmvTDhf1dwJDa7/rDJEkl2tT1haq0BZ0hbTTAb3VzZs38edFGVAYVASFQSCiPkVuUYMXTGtB1M2PW1y8eBEfLytWq3XkyBFkXc4dMniQyy8/Wakgo5wYtmwpHyYSsW2nrMzFtYxu3BD9lvjkSQwf7B5SCoPBZO08n6Zh6NJf775IcrlGTepN8rce7RD+xduJN0k615rdMksq0Bb0xqqVK8nbcXs2KLC3tA/eBILCoCIoDAIRe4iIzZgYeWKcEpw+JeJs3RbXrlnNx8vNnt2i7y+ZlZXJB9vDbDaLOlX99u3bfKRIWG8ZM3oUmc2JFy6c5yMdEBa2jAxxbu8Af7HnajtCSmGIyjWRKAyF+NMHU2g016Q/fuJLwrdeDf/87cTrJKNrx26ZpaVGtAWdUVtb6+/nS96R27m3bt3iz44CoDCoCAqDQGbPmkVmFuL9e/f4eO1x4MB+srVC3LZtKx8vN0nPnpF1ufTkiRN8sD1SkpPJ8k708+3lzu35Dx08SCZ04tw5c/gwexiNxqDA3mSIc5ctlfjdSFukFIZ1D3DLNtG+vTqB5HLN+vq9b2ny1q+sMyRcJUldC7K2UGj0xI1ygbxcvHCBvB1D53/h3ASFQUVQGAQi4eZizBvXr/Px2kPabexZMubj5cZsNvftI+5mFzNmTOeD7SHqK4tFCxfyYZLIyMggEzqxV89vqqur+cg2JCaKvqHejRs3+GC3kVIYAo/jlm2i1cfVVL+z47UvaezWtz1+G3eW5HV17ZZVmmtAW9AlkyZOJG/HkFlUWMifILlBYVARFAaBrFu7lswsxHPnIvh47SHtwEtFr7O8du0asjqXOkreVquV/aKShZ3oZrWTcXW7d4k+NKuqqooPdhsphcFnVTVJw9ClP70zh+Ryzdoh4rM2mVv3/vLhdpLa1ZK1hWy0BX2SmZlJ3ouhTeH3KBULCoOKoDAIZOeOHWRmIbJRfLz2mDJ5EtlaIV67epWPV4AHDx6Q1bk0MtL+0ZKi3sl9e/WsqanhI6Wyd88eMq0TFy9y+IXG6FEjycLOlffOGKILQ3GdhURh6NJ3F+S/mRRMcrk2fSPRG854tuvPIkO7ZZeQ+O5hWVtIa5bn9CPgeXbs2E7ejqFNltXMypy+j8KgIigMApF2Y5aQefP4eI3BXssB/n5ka4X44P59PoUCNDY2ij1/bNVK+7daO3z4EFnSiSHz5vJhbpCamkKmdSJ7mA0NDXxkKwry88mSLhV4YweBiC4MZ1NwyzbR/mbrbZLLNevrUT1JzvYm37gypktGDgnxHpO1haRGtAW9YjAYxB5E266Mj4vjz5SsoDCoCAqDQCRc6ZI5eNBAPl5jSAimNjMylL0V3YLQULJG5/YJDjKZ7HyfL+q1LMsvicViYbubzOzEe/fu8pGtiIiIIIu5NDc3lw+WA9GFYc71RpKGoUt/vf8MyeWaVde3bBPia+f7dnr+jER5D9gtqyyhsZm/ioAOYe/g5L0YttbRh3lugsKgIigMAmFBmcwsUHeuvaMcDx+KPviH6durp1yX73TE5UuXyEpdmvTsGR/8Pfki61BFRQUf6R47tm8jMztx5coVfFgrQubNI4s5d+TIES5vRiEK0YXhq4M441m0vzixn+Ryzdrh0uckYXufHc9++7v4SyTQKyprCzENaAv6JjR0Pnk7hq319/Otra3lT5Z8oDCoCAqDQJqbm3v1/IZMLkRt/nocO3qUbKcQx40dw8crRllZGVmpS/ft3csHf4+oW0zMminbOQBPnz4lkzsxKLA3aV8NDQ2skpHFnLtn9y4+WCZEFwaflTjjWbQ/P7eJ5HKNmhz0o/BPSbz2Vn9+J6xrVhFJ9krI2sKDegXvbAU8QGlpKXkvhm29eOECf77kA4VBRVAYhDN2zGgyuRCvX7/Gx2uJ5WFhZDuFuHqVIt8xEsSejT22TY2ZNm0qWcaJERGyXcnKbDb379+XzO/EmOhoPvI7JHzt8+zZUz5YJsQVhpomK4nCUIg/v7iGRnNN+kacH0nV3u3rFwe/mxpP8r28srZwuw5tQfccP36MvBfDtrK/5fz5kg8UBhVBYRDOypUryORC9EzIFoXRaJR2spa859c64vgx0W/FRUVFfPCr7yjEffRTUlLCR8rB5k2byPxOZK8+Puw7xL4Y+wQH2z1/wx3EFYYHL3GPZynq5ZCk1x958xnPdu0Q/sWvow+TlC+X3bLLrtc28hcP0C0Wi4XFIPJ2DO2alZXJnzWZQGFQERQG4Zw8eYJMLsTA3gHNzdo6WjUmOppspEBjnzzhUygJe4ch63XphQvn+eD//If9N/mpE6dOmcyHyURsbCxZhRP79e/bcuk59jdo4IABZAHnrlm92jZWRsQVhm3RzSQKQyG+tesKieba9LU7X5M83U5889rETs8TSdx3027Z5Rdq7FwZDeiOxMRE8l4s0Pkh8+r0SXT0Y/JYBLprp8yXlkdhUBEUBuGwuEwmF+iDBw/4FNqABU2yhQKV6+Rg51it1mFDh5BVO3dBaCgf/J//zJs7h/zUibJ/Z2I0GvsEB5G1OPHpU35M0YsXL8iPXGr3OktuIq4wjD7XQKIwFOLbqxNINNemHa972T2eRdnjf++t7ZqZT3K/NFlbCK9GW/AS1q6R+Bf0/r17fAq9IflLlX59+7A/inwWOUBhUBEUBuE0NTWJvUuAzRXLw/gUGqC5uTmwdwDZQiFOnDCeT6E8Yu+Hw/ZLY+Orr/prampEnZteUFBgW6OMiLopOHuktlFHjx4hP3Kub6+eSlyAS1xh+GhnLYnCUKA/vTeDpHMN2uHiF21idPuyY4Tvb56c6pZTTgqAKFlbOF6txYvlAQnU19dJu4dRv/595Y3OHkbCscI25f3EFIVBRVAYRDE/RNxVL232DvC3xVktIPni0QcO7OdTKE98fDxZu0sfR0WxgTeuXyf/7sQJ4xWpQGxLyIqcOGTwIIvFwkZNmTKZ/Mi57FfRtjp5EVcYfBZXkRwMBfqbrZEknWvQ9nOJJOf++NLQ38ae7ZZdSpqAEFlbOIy24EVcuXyZvBcLdNeunXwKfSL5wlALFy7gU8gBCoOKoDCIIuLsWTK/QNmbDJ9CVaxWq6gjdlqbkpzMZ1Eeo9EYHBRINsC5mzdvYgMXL15E/t2Jx44eta1OXsR+h/MiLa2iooL8o0vPn//vaRsyIqIw5FZbSAiGYqz46Z05JKBryjcSe5Pc3M7teC7gV492dcl8SSqBE7tkvPzx5RGj4zfIe7cUoCLTpk4h78UCzcnJ5lPoloULxN1X1Wavnt+UlZXxKdwGhUFFUBhEIfaOYC0O6N9PC3dwe/ToEdkwgfbr26fl9FzPsGrlSrINzh08aGBDQ4OoY8ZycnL4yuRG1AW1DuzfL+qLEZvFxcV8ZbIiojBcfG5sE4KhCN9dmPtmXH8S07Xjj2Pa1zVVBdoh/N8/i1zw27iILhnZpB60tmtmPmsXHc/yy0wNi11rsb76JhHoGhb6yRuxQKdNm8qn0DMPHki54Svz5MkTfAq3QWFQERQGsUj+fGHPnt18CpVobm5m+45slUBlv9SBS+7cuU22waUHDuwn/+LE0aNHKfep3/1798jqnDh61MiwZUvJPzpXoYOpGCIKQ9idJpKAoSj9jtal1OW/mdiHJHWN+PqDb1tSMrTrG5dH/uLBprdijv0u4fLvkx69m5rwduK1Xz/e/z93lnU8S5+9ATEr0Bn0zp7du8h7sUCvXr3Cp9AzRqNR1J2GWhw1coRcf25RGFQEhUEs7IVPViFQ31498/Pz+SxqcOL4cbJJwvX8t6l1dXVib3ssavmDBw/wNSlAY2OjqPPixD7SQ4cO8jXJjYjC0OdEPUnAULjfHKozml/9BU1vLHgzsR8J61rwtcivSOSFbhr8eJnZ6tEvaoGMSI7LvQP8Gxq85BpZkitTcnISn8I9UBhUBIVBLOyFz17+ZC0CXbhwgVrHspaVlUre7OkqfZsaMm8u2RIZzchI56tRhqVLl5A1yuiLtDS+GrkRURi6bKwhIRgK9IsDtQbTf98IXjaVvpmguc7Q8eq/Sd6F7usXtdBkQWfQJRJuxW9z/fp1fAr98/LlS/LoBLph/Q9uUyoZFAYVQWGQwKaNG8lahHsm/AyfxYM0NzdPmzaVbIlw2SuUT+RZzp87R7ZELtnvsNLNLTLyFlmpXA4aOMB2YSUlEFoYLBZr5/k0B0Mh/mtvbZOR/vLlN5e/maCt8xk6nO9Bwi6UxW8fhhosOr68Zrtl0cKF5L1YoHJ9uK4RpksKE4G9A2S5WCQKg4qgMEigsLBQ7DEkrX340KP3cWPhcnlYGNkG4Y4cOcJkMvG5PEtxcTHZGLn0wPkk9fV1fuy3pM2q3XfzplfXg1IIoYXhZRUukSTFv+2ubWzTFmwUG6reTBhAUruK/ugsCoNSfvlgbrPZwHc80APl5eWibvHToqJny6nCtatXyWMU6I3r1/kUboDCoCIoDNLYsF7089aiv5/vkycxfCKFYW2B5UuyAaKMjLzF51KDCePHk+2RxdTUFL4CJZF2DTqXRkfL/9bXgtDCcCMDl0gS7Yc7ausNzqJDmaH6zYSBJLirY3IQybhQXj+9N7PR3Mx3PNA8p06eJG/EAg0PP82n8BYaGxul3fx11swZfAo3QGFQERQGaRS59yUD6wyPHj3icymGyWTaunULWbUox44Z7eGrqRIOHTpINsl9Bw8aqNwhPa25dk3iBzFO7B3g39ysYMwQWhi2RTeTNAyd++dtNbXNrj9orDTWvZkwhMZ3j/vGs0AScKHs/u3OtHpTE9/xQMNYrdZRI0eQ92IhspRQWVnJZ/EiJARHm+5f+AWFQUVQGCSza9dOsi6xbtmyWbk7QBfk50u+AmyLMTEe+ibEES/S0sgmue/2bdv47ApTXV0t7UtsJy5dspjPrgxCC8PUyw0kEEMndt9SU90k9LCEWlPDTxKHkgTvYd9I8CfpFirhh7cn1Rq95Po5XkxychJ5Ixbo0qVL+BTeRUpKCnmkAj1wYD+fQiooDCqCwiAZlvWHDhlCVifWkSOGs5cen1EmrFbrlcuXJV8TqcU1q1fzGdXDYrEMHjSQbJibJiYm8tmVZ+4ciffVduS1a1f51MogtDB8e7iOZGLoyC6baiobxX2l1WBu+lnicBLiPemPn/iSaAsV8s+R46uN6t/UEzhB8iHIih4/qiIsZIwZPYo8WCGyP+duHrSAwqAiKAzuEBMTQ1YnwV49v9m1c0dRYSGf1A3Yq5jVj4ULF5BVSLBf/77V1dV8XlXZsmUz2TZ3ZI/LkwdZXbxwgWyAmyr9/bbQwuCzoZrEYmhX9kSV1Us5AK7JbPhF4giS4z3mjx+jMHjO926OqTTU8h0PNEZjY6O0j9/cD8da5kz4GfJ4BermcQsoDCqCwuAma9euIWuU7PyQeQ/u3zcapVxwr76+nmXTCePHkTkle+/eXT612jx5IkMra3HTxo18Xo9QXl5ONsAdPXBDDEGFgRXTzqE0GcO2+qyrLqmTfrqMwWJ86+loEuU94+sPe5FQCxW1y42R5c01fMcDLSH5XDT3D7/RMlVVVdLO4wwLW8ankAQKg4qgMLhJY2OjtF8bRw4cMGDzpk0XLpxPevasttbhp04ss7EwGhsbGx5+evWqle4fgNTa3bt28dVoAIPBIOOji33yhM/rKWbMmE62QbInT57gkyqGoMKQV41rqrrWZ211Ya27J9ebLKa3n44lad4Dvn7vW5JoodK+e314SVMV3/FAM0h+By8oKOBTeCnLli4lD1mIfr693Dl6AYVBRVAY3Ie9LfQJDiLrlcvBgwaGzJu3dMnilSuWr169asXysCWLF8+eNatf3z5kSbkMmTdXa9+jhi2T8r7UVrabpH2B4w5nz0r85ratOTk5fFLFEFQYbmXimqou9FldzWoVf77cw2KxvPt0Agn0Svva7W9InIUe8J1rQwoby/mOBxogLzeXvAsLdM6c2XwK70XyMdnnzkXwKcSDwqAiKAyyEBMdLfv1cFRxxPBhNTWa+2L81s2bZDuluXbtGj6jB5Hr9nPsdWdV/v4/ggrDjhhcU9WZPiurc6pk7txdn00mmV5RX7v1Ncmy0DP+5srAvIZSvteB2uzbt5e8EQtU3RsYeQaz2SztmiQTxo+X/McMhUFFUBjkQomL7ntY9tqX5dxr2ZHr+qRRUYrf+8IuUyZPIlsiwV07d/DplERQYZh+BddUdajP8qqMCkW+oftj0gwS65UThUFFf3W5f05DMd/rQD1MJtPAAQPIG7EQg4MCFb1djnY4dFDinZLS09P5FCJBYVARFAYZuXDhPFm7jmRvjHm5ufyRaI9Zs2aSDRZrYO8Atd7DT548QTZGgomJCXw6JRFUGHodwTVV7esTVpVWpuDxfB8mzybJXiFRGNT1fy/1zazX4oc37QqWMsm7sEC3bt3Cp/B2igoLyWMXqOTbIaEwqAgKg7xcuXJZj8cmsSc2Ly+PPwZNcuZMONlmsa5csZzP5XHy8/PJxoi1T3CQyWTi0ymJoMLQZWMNCcqQ6bOsKqVE8bN//p4yj4R7JURhUN2fXQpOq9X0m7LXs3TpEvJGLFDJH5/rEWk3G+oTHCztAzwUBhVBYZCdhIQE5c5IVsKZM2Zo/+71BW5nbnUvFCvtvaXF1atW8okURlBh8FlURbIy9FlS9bTIQ9cK+Cx1Acn3sovCoAXfuBiYUvOS73XgWdgfRWmXDZ04QfoB+nrkdmQkeQYEevfOHT6FGFAYVASFQQmKioomjB9PtkSbsl8Az184SBrS7ixp09/Pt7GxkU+kBkeOHCabJMo7d27ziRTGdWGoa7aSrAx9FlfFFXjiC6AWvn6+lER8eUVh0IivXfB/Wp3F9zrwINeknpV4/vx5PkX7oLm5WdplIletlPIxGAqDiqAwKERTU9OuXTvJxmjKvn2C2UtPRx+F7N+3jzwE4S5dspjPohLZ2dlkk4Tr26tnXV0dn0hhXBeG56VmEpfbu4sqo/M82hZs+KetIClfRlEYtGPH873iqtrRIS4a4fjxY+SNWIj+fr5Obp/krWzfto08D0IcO3YMHy8GaYUhOlorhSEtLY2P1yESCsOI4XoqDJcvXeKD1eBFWtrECVr8qmH1qpVVVTq7R1BGRjp5FMK9HRnJZ1EJVsxGjhhOtkqgCxeE8lmUx3VhuJGBmzC0cmHlw5cqtAUbfV+sfTM5iGR9WURh0JQdz/lGV+j4g0k9cuL4cfJGLESPHTyqKTIyMsjzIMTgoEA+XgzSzkRX4nP92bNmkbUIsaioiI/XIXv37CEPx6XTpk3lgz2OhPD94MEDPlglTCbT+XPnpF2tWAmnTJ7k+bsdy8WcObPJwxEie/Kbmpr4FOoh+QJ08fHxfArlcV0Y9sXhJgzfu6DybrbKx/MNTt+oRGdAYdCaHSO+fViezPc6UB4WMckbsRDb1enOrZFwHcOwZUv5YDGwv+WBvQPIVM4dNXKExSLPbTRbI+GerDOmT+OD9UlychJ5RC5V8Qi9I4fFHQgu+UR82TEYDBcvXhw6ZAjZQk/Kml5MTIyuT8fKzc318+1FHpdL2aPm41WlsbFRQm/08CdWrgvDktuNNDe3T0Mrb2Zq4uyf0ZnbZO8MuNOzBu0Q8c3dsqd8rwOFYX8pV65cQd6OnXvlymU+uP1RVFg4oH8/8oQ4MSiwd3Z2Nh8sElFHi7HAoFACqK2tHTZURKQL8PdLSUnhg/UJ612h80PI43LilMmTVDx5tKKiQtR9VK5du8pHagOj0Xj/3r3FixdJu/qCNNkLc+OG9c+ePdV1VWiB7VPhF6719/NV95g0wosXL0S9w0ycMN7DN952XRhGReCubZWd51deeaGhawVMzNolb2d4/X5PklahFuxw9qubJZ77wrGdYzKZTp86NWL4MBb1nNi3T/DSJYvj4mL5sPYK6wxbtmwePmxY7wB/8hS1liWSsLBlOTkS2wKDRRkWpFhyDQ4KJJO3tk9w0NKlS5KTk/gwBaiqqtq/b9/IEcOdP+RBAwds3rQpJyeHD9MzBoPhzJnwSRMnBvYOIA+zRfZssFfNgQP76+vr+TCVKCsr3bN71/BhQ53sIPYLyX6XYqKj+RjtUV1dffHChZB5c9nWkowol32Cg5ctXXr37l3vu+Pk89RU9upjydvR7wD7BRg3dszePXs0+Aqtra09dfLk7Fmz2A4im90i+wPEfjfOnj3j+SOpXBeGrw62+7u2za+88FxzVxabkb1fxs7wehQKg0btcObLq8V6PagUAACANFhbS3r27OjRIywgun+eA+v2ixcvYkEzIyPDbPbQReGBN+G6MHTb3L7v2hZSeSbZwJ8LjRHy8rBcneHHMX4kp0LtyDrDhcIovtcBAAC0P+rr69LS0m7evHH8+LFdu3auXbN64YLQaVOnTBg/btzYMWPHjGb/O2H8+BnTp7FisH79uj17dp88eeLu3btZWZne900C8DyuC4PPsnZ817Z5lcefarQt2FiSe+LNpN4k/UvwjXh/ElKhpuwQ/sWZgvt8rwMAAAAAeBAXhcFgasd3bZtXeShBB6V8Zf4Z9zvDG08DSEKFmjO8x4k8KffKBQAAAABwBxeFIbuy/d61bW+sbr7C21Bwwd3OkBxE4ynUoj0O597kex0AAAAAwCO4KAz3ckwkRrcTt0fr7IC/7YVX3njWpgaIsUPEZ23iKdSgn+3Lucb3OgAAAACA8rgoDMeeGkiSbg9ufKT+bf8ksKf4ujudocPFL9pkU6hRd2Rd5HsdAAAAAEBhXBSGVfeaSJj2etfc12VbsHGk9I7kzvDazX+TVAq17KaMCL7XAQAAAACUxEVhmHixfd21bdkdHbcFG6fKHkjrDLh3m+5c8+I03+sAAAAAAIrhojD4H21Hd20LvanaPe3lJaL88RtPaR9w6Y+f+JI8CrVv2PNjfK8DAAAAACiDi8Lwl+3t5a5tc657SVuwcaUi9o2n4u7p9sazQBJGoS5cmHKI73UAAAAAAAVwURh8VrSLu7ZNu9LAH7AXcbMyUWxn6HDucxJGoS6cm7SX73UAAAAAALlxVhgsFmvnEJqtvc8JF72wLdi4V50sqjN0vIrznvXq9Kc7+V4HAAAAAJAVZ4WhsNZCsrX3OSrCa9uCjaia528kCu0Mr935msRQqCMnJm7lex0AAAAAQD6cFYb4Qi+/a9uQ8Hqr1cofrfcSV5v5ZmIw6QZ2xXnPend0/Ib28CsNAAAAAE/irDDcyjSShO1N9j9Vb7G0l2j1rD7nzcQ+pB7YMTnoR2c+JRkU6suhsWssVgvf8QAAAAAAbuOsMJxO8trbPAcerzO3m7ZgI7UhT0hn6HjtSxJAoe4cELMCnQEAAAAAcuGsMOx60kxytnfoe6TOZG6Ph21kNBa+mdiPNATi6w97kfQJ9WjQ46Vmq5nveAAAAAAAN3BWGFbeayJR2wv8+lCdsV22BRsvm0rfTHDWGd54GkCiJ9SpflELjRYT3/EAAAAAAFJxVhhmX2skaVvvfr6/1mBq76eE5jeXv5nQn/SE1na4+AWJnlCnfvNwvsFi5DseAAAAAEASzgrDqIgGErh17b/21jYZ23tbsFFsqHozYQDpCS3i4qre5Bf35zSZDXzHAwAAAACIx1lhCDxeRzK3fv1kV20j2kIrygzVbyYMIlXB5huJvUnohLr2X/dmNpqb+Y4HAAAAABCJs8Lw2b5aErt16oc7ausNaAuUKmPdmwlDSFuw2fEKjkryKv92Z1q9qYnveAAAAAAAMTgrDH/cWkOStx7987aa2ma0BfvUmRt/kjiUtAXmjx/jDm7e5oe3J9Uavfy+5gAAAABQAmeFwWdtNQnfurP7lprqJrQFZzSYm36WOJwUhjeTgzpEfEYSJ9S7f44cX22s5zseAAAAAEAYTgvD0iqSv/Vll001FQ24fZVrmsyGXySOJJ0Bpz57pe/dHFNpqOU7HgAAAABAAM4KQ+cQGsF1pM+G6rJ6tAWhGCzGtxLHtC4MOPXZW+1yY2RZczXf8QAAAAAArnBYGGqbrSSC60ifddXFdWgL4jBZTG8/Hdu6M7x2898ka0Lv8N3rw4ubKvmOBwAAAABwisPC8LLKQlK4XvRZU11Qg7YgBYvF0unpxJbC8OpLhvBPSdaE3uHbV4cUNpbzHQ8AAAAA4BiHhSGh0ESCuC70WVWdW4224Bbdnk1p6Qyv3f6GBE3oNf7mysC8hlK+1wEAAAAAHOCwMERmGUkW174+K6uzK838AQA3+GPSDP4lw7PAH53Blwxe668u989pKOZ7HQAAAADAHg4LQ3iygcRxjeuzvCqjAm1BNj5Mnm3rDK/f+5akTOhN/vxScGZ9Id/rAAAAAABtcFgYdj9pJolcy/qEVT0vRVuQmb+nhLzqDEm9O5z7nKRM6E3+9GJQWm0e3+sAAAAAAD/EYWFYda+JhHLN6rO0KrkEbUEReqQuYJ3hx09w42cv9/ULvVNqXvK9DgAAAADQCoeFYc71RpLLtanPkqrEIhPfaKAA3zxfyjrDa5FfkYgJvczXLvg/rc7iex0AAAAA4HscFobR5xpINNegPour4grQFhQnIG3lqwOTzvcgERN6mR3P94qrSud7HQAAAADgOxwWhqDjdSSda85FlY/z0BY8RL8X634c60/yJfQ+O57zja54zvc6AAAAAICTwtBjXy0N6JpyYeWDl2gLHmVI+sbX7uCKSd5vx4hvH5Yn870OAAAAgHaPw8Lwp201NKNrxwWVd7KNfEOBBxmdua3jNZzM4P12OPv13bKnfK8DAAAAoH3jsDD4rK2mMV0jhlbeyEBbUI3p2fs6XPqS5EvofXY4+9XNkni+1wEAAADQjnFcGJZW0aSuBedXXnmBtqAyy3JOdohAZ/B+O5z58kpxDN/rAAAAAGivOCwMnUPahHXVDak8n2rg2wdUZU/+NZYmSb6E3ifbyxcKo/heBwAAAEC7xH5hqGu20rCuuiGV4cloCxoioughOkN7sEP4F2cK7vO9DgAAAID2h/3CUFRroXldXedVHn+KtqA5rhXHdjiLc6DbgeE9jufd5nsdAAAAAO0M+4Uhu9JMI7uKzqs8GN/MtwxojPvlSR0jcK3V9mCPQy9v8L0OAAAAgPaE/cKQUqKhwrAnFm1B08RXZbx2Afd0aw9+tjfnKt/rAAAAAGg32C8MsQUmktrVcns02oIOSKvN+59LwW3yJfRCd2Rd5HsdAAAAAO0D+4Xhfo4mCsPGR018g4DmyW0o6XR9OAmX0CvdlBHB9zoAAAAA2gH2C8P1DCPJ7p539X20BZ3RYGoaELOChEvola55cZrvdQAAAAB4O/YLw/lUA4nvHnbZHbQFvbIr+zIut9oeXPb8KN/lAAAAAPBq7BeGE8/ULAyhNxv5dgB9El+V8daVgSRfQu9zQcpBvssBAAAA4L3YLwz745pJiPeYs6+hLXgD1cb6no9CSb6E3uecpL18lwMAAADAS7FfGLZFq1MYpl5u4FsAvILVL079KLwHiZjQy5z2dAff3wAAAADwRuwXhrUPmkiU94DjL6AteCH3y5N+ejGIREzoZU5I2ML3NwAAAAC8DvuFYdkdTxeGkRH1fN3A66gw1AyLXUsiJvQyR8VtsFqtfJcDAAAAwIuwXxhCbjSSQK+og8PrETW8nkflKV1ujCQpE3qTQ56stlgtfH8DAAAAwFuwXximXWkgmV45+52st1jQFtoFZqt5ffqZjhHfkqAJvcb+MSvYXub7GwAAAABegf3CMPa8hwpD4PE6M9pCO6OwsTzo8VISNKHXyHauyYLOAAAAAHgP9gvDkPB6kuyVsNeROpMZbaGdcqMk7ndXB5OsCb1Dv6iFRouJ72kAAAAA6Bz7haHPCcULw1cH64xoC+0bg8W4JPVIh7NfkbgJvcCvH4aw/cv3NAAAAAD0jP3C0OtIHcn38vr5/lqDCW0BvKK4qXLq0x2oDd7n5/dnN5kNfDcDAAAAQLfYLwws0JOIL6P/3FPbZERbAD+grLl65rPdHSK+IaET6tp/3ZvZaG7m+xgAAAAA+sR+Yfhkl1KF4eNdtY1oC8ABFYaauUl7cRklb/KTO1PrTU18BwMAAABAh9gvDH/aVkOCvix+sKOmrhltAbigylAXmnKg4zlfEj2hTv3w9qRaI+7jDgAAAOgV+4Whyyb5CwMrITVNaAtAKDXG+sWphzue70XSJ9Sjf7o1rtqIu7kDAAAAusR+YfBZW03ivpt231JT1YhbwALRNJiadmdf/uOtcSSAQt3Z/eaYSkMt368AAAAA0A8OCsOKKpL43bHLppqKBrQF4BbxVRmj4jbg9AZd63NjZFlzNd+jAAAAANAJDgrDUtkKg8+G6tJ6tAUgD/Wmpp1Zl/7v1liSRKFe/MO1ocVNlXx3AgAAAEAP2C8MnRfQ3C9Nn3XVxXVoC0B+4qrSR8Stw2VY9ejbV4cUNJbzHQkAAAAAzeOgMMyj0V+CPmuqC2rQFoCC1Jkad2Rd/PjO1B+d/oykUqhl37oyMLehhO9FAAAAAGgbO4XBaLaS6C9Bn1XVudVoC8BDlDRVbcu88M+7M34U3oNkU6hNf3m5X3Z9Ed9/AAAAANAwdgpDbbO7hcFnRVV2pZlPB4AHKW+u2ZV9ucf92T8K/5wkVKg1f34pOKOugO85AAAAAGgVO4WhosFCCoAofZZXZVSgLQCVqTLU7cu59tWDeR3OfElyKtSOP70YlFabx/cZAAAAADSJncJQUie9MPiEVT0vRVsAGqLW2HAk91bf6LA3LgaStAq14OsXeifX5PC9BQAAAADtYacwFNRILAw+S6uSitEWgHZ5Vp299sXpL+7P6XD2axJboYp2PO+fWJ3JdxIAAAAANIadwpBTZSZNQIg+S6oSi0x8CgC0jdFiulP2dF7yvj9Hjv/RaZwnrb4dz/eKq0rnuwcAAAAAWsJOYcioEF0YfBZXxRagLQBdUm2sP1Nwf0z8xneuDSEpFnrSjud6Pq5I5XsFAAAAAJrBTmF4XiqyMCyqfJyHtgC8gSpD3ZXimNCUAz3uz+54zpckWqi0HSO+fVCexHcGAAAAALSBncKQVCymMCysvJ+DtgC8EKvV+rw2d3/OtVFxG7reGIU7PHjGDme/vlP2lO8DAAAAAGgAO4UhodBEW4EjF1TezjLyYQB4NQ2mJhZkl6cd93208DdXBuLe0srZ4exXN0vi+fMOAAAAALWxUxie5AsrDKGVNzLQFkA7hfWH6Irnu7MvT0zc+ve70zqe9yepF7pjhzNfXimO4c81AAAAAFTFTmF4lCugMMyvvPwCbQGA/1LcVHm9JHb1i1MDY1Z2vzkGN4xzU/YEni98xJ9cAAAAAKiHncJwL8dVYQipPJdq4EsDAOxhtpoz6wuvFMdsyoiYmLj1ywdzf3d1cIfwL0gshs4M/zw8/z5/QgEAAACgEnYKQ2SWkTaE1oZUnk5CWwBACqxFZNUXXSt+siXz3OTEbV89mPfOtSH4LsKZ4T2ul8Typw8AAAAAamCnMFzPcFwY5lUee4q2AICcWKyWwsby6IrnZwrub8w4O+PZrr7RYZ/cmfrWlYHoEsxuN0fzZwoAAAAAamCnMNzKdFAY5lUejG/mCwEAPEKFoSaxOvNSUfSOrIshyfuHPFn92b1Z714f3vFcTxKsvVXWmsxWM386AAAAAOBx7BSGvGpL5/lt2sLcyt1P0BYA0BD1pqa02rybJfGHc29uyohYlHp4cuK2QU9Wffsw9OM7UztfH/E/l4I7nP2a5G/dyapRsxlfbAIAAACqYacwMFbcbSJtYetjtAUAdInRYiptrmLVIqoi9XJR9JHcW5szzi1OPTwlcfvgJ6t7Pgr95M5Unxsjf87aRcQ3JKxrwQkJW/gjAQAAAIAa2C8MFot1c1STz4Zqn0VVH+2sPYWznAFoH5gs5rLm6hd1+Y8rUm+WxF8ojDqZd/fgyxs7si6uTz8T9vxYaMqBGc92jU/YPCx2bb/o5X5RC798MPfvd6e9Hzmx641Rb18d8r+X+r52wb9jxLc/Cv+cRH8J9nq0oMJQwzcOAAAAAGpgvzAAAID7mK3mOlMjayC5DSVptXkJVRlRFan3yp5FliZcL4m9XBR9vvBReP79E3l3juTeOvDy+p7sK6yZbM44x8rJxoyzuHcbAAAAoAVQGAAAAAAAAAAOQWEAAAAAAAAAOASFAQAAAAAAAOAQFAYAAAAAAACAA/7zn/8fwFFSSY4xrHgAAAAASUVORK5CYII=;fontSize=20;fontStyle=1;imageBorder=none;dashed=1;dashPattern=8 8;" vertex="1" parent="1">
                    <mxGeometry x="622" y="336" width="235" height="65" as="geometry"/>
                </mxCell>
            </root>
        </mxGraphModel>
    </diagram>
</mxfile>